<svg width="174" height="13" viewBox="0 0 174 13" fill="none" xmlns="http://www.w3.org/2000/svg">
	<path d="M41.6988 1.97284C41.071 1.4348 40.4433 0.986422 39.6362 0.627723C38.9188 0.358699 38.1118 0.17935 37.215 0.17935C36.408 0.17935 35.6009 0.358699 34.7938 0.627723C33.9867 0.896748 33.359 1.34512 32.7313 1.97284C32.1036 2.60057 31.6552 3.22829 31.3862 3.94569C31.1171 4.66309 30.9378 5.47016 30.9378 6.27723C30.9378 7.08431 31.1171 7.89138 31.3862 8.60878C31.6552 9.32617 32.1932 10.0436 32.7313 10.5816C33.359 11.1197 33.9867 11.568 34.7938 11.9267C35.6009 12.2854 36.408 12.3751 37.215 12.3751C38.0221 12.3751 38.8292 12.1958 39.6362 11.9267C40.3536 11.6577 41.071 11.2093 41.6988 10.5816C42.3265 10.0436 42.7749 9.32617 43.0439 8.60878C43.3129 7.89138 43.4923 7.08431 43.4923 6.27723C43.4923 5.47016 43.3129 4.66309 43.0439 3.94569C42.7749 3.22829 42.3265 2.60057 41.6988 1.97284ZM41.2504 7.98105C41.071 8.5191 40.7123 8.96747 40.3536 9.41585C39.9053 9.86422 39.4569 10.1332 39.0085 10.4023C38.4705 10.5816 37.9324 10.761 37.3944 10.761C36.8563 10.761 36.2286 10.6713 35.7802 10.4023C35.2422 10.2229 34.7938 9.86422 34.4351 9.41585C33.9867 8.96747 33.7177 8.5191 33.5384 7.98105C33.359 7.443 33.1797 6.90496 33.1797 6.27723C33.1797 5.64951 33.2693 5.11146 33.5384 4.57341C33.7177 4.03536 34.0764 3.58699 34.4351 3.13862C34.7938 2.69024 35.3319 2.42122 35.7802 2.15219C36.3183 1.97284 36.8563 1.7935 37.3944 1.7935C37.9324 1.7935 38.4705 1.88317 39.0085 2.15219C39.5466 2.33154 39.9949 2.69024 40.3536 3.13862C40.802 3.58699 41.071 4.03536 41.2504 4.57341C41.4297 5.11146 41.6091 5.64951 41.6091 6.27723C41.5194 6.90496 41.4297 7.443 41.2504 7.98105Z" fill="#A5A5A5"/>
	<path d="M19.9975 6.27723C19.9975 9.68487 22.7774 12.4648 26.185 12.4648C27.7095 12.4648 29.1443 11.9267 30.2204 10.9403C29.9514 10.4919 29.4133 10.2229 28.8753 10.2229C28.6959 10.2229 28.4269 10.2229 28.2475 10.3126C27.7095 10.5816 27.0818 10.6713 26.4541 10.6713C24.0328 10.6713 22.06 8.69845 22.06 6.27723C22.06 3.85601 24.0328 1.88317 26.4541 1.88317C27.0818 1.88317 27.7095 1.97284 28.2475 2.24187C28.4269 2.33154 28.6959 2.33154 28.8753 2.33154C29.4133 2.33154 29.9514 2.06252 30.2204 1.61415C29.1443 0.627723 27.7095 0.0896748 26.185 0.0896748C22.7774 0.17935 19.9975 2.95927 19.9975 6.27723Z" fill="#A5A5A5"/>
	<path d="M11.6577 0.448374C10.761 0.448374 10.0436 1.16577 9.9539 2.06252H13.9893V12.1061H14.2583C15.155 12.1061 15.9621 11.3887 15.9621 10.4919V2.06252H18.2936C19.1904 2.06252 19.9078 1.34512 19.9078 0.448374H11.6577Z" fill="#A5A5A5"/>
	<path d="M8.78813 9.86422C8.78813 9.77455 8.78813 9.77455 8.78813 9.86422H4.75276C4.75276 8.96747 5.47016 8.25008 6.45658 8.25008H7.98105" fill="#A5A5A5"/>
	<path d="M8.8778 11.2093C9.14682 11.7474 9.68487 12.1958 10.4023 12.1958H11.299L5.64951 0L0 12.1958H0.896748C1.52447 12.1958 2.15219 11.8371 2.42122 11.2093L5.73918 3.94569L8.8778 11.2093Z" fill="#A5A5A5"/>
	<path d="M51.2043 6.99463L45.8238 0.17935L45.2858 12.1958H45.5548C46.4515 12.1958 47.2586 11.4784 47.2586 10.5816L47.5276 5.20114L51.2043 9.86422H51.294L54.9706 5.11146L55.2396 10.5816C55.2396 11.4784 55.957 12.1958 56.9435 12.1958H57.2125L56.4951 0.17935L51.2043 6.99463Z" fill="#A5A5A5"/>
	<path d="M66.8077 0.627718H70.8431C73.354 0.627718 75.0578 1.88316 75.0578 4.12503C75.0578 6.45658 72.9953 7.71202 70.6637 7.71202H67.6148V11.9267H66.8077V0.627718ZM70.7534 6.90495C72.8159 6.90495 74.2507 5.82885 74.2507 4.12503C74.2507 2.33154 72.9056 1.43479 70.8431 1.43479H67.6148V6.99463H70.7534V6.90495Z" fill="#A5A5A5"/>
	<path d="M77.0306 0.627718H81.7834C84.2943 0.627718 85.8187 1.97284 85.8187 3.85601C85.8187 5.73918 84.3839 6.81528 82.5008 7.0843L86.2671 11.9267H85.191L81.604 7.17397H77.9274V11.8371H77.1203V0.627718H77.0306ZM81.6937 6.45658C83.5769 6.45658 85.0117 5.55983 85.0117 3.85601C85.0117 2.33154 83.8459 1.34512 81.7834 1.34512H77.9274V6.45658H81.6937Z" fill="#A5A5A5"/>
	<path d="M87.6122 6.27723C87.6122 3.13861 89.8541 0.358694 93.3514 0.358694C96.7591 0.358694 99.0009 3.04894 99.0009 6.18755C99.0009 9.23649 96.7591 12.0164 93.2617 12.0164C89.7644 12.0164 87.6122 9.32617 87.6122 6.27723ZM98.1042 6.27723C98.1042 3.40763 96.0417 1.16577 93.2617 1.16577C90.4818 1.16577 88.509 3.40764 88.509 6.18755C88.509 8.96747 90.5715 11.299 93.3514 11.299C96.1313 11.299 98.1042 9.05714 98.1042 6.27723Z" fill="#A5A5A5"/>
	<path d="M101.332 0.627718H105.099C108.686 0.627718 111.107 3.04894 111.107 6.27723C111.107 9.41584 108.686 11.9267 105.099 11.9267H101.332V0.627718ZM105.099 11.1197C108.237 11.1197 110.21 8.96747 110.21 6.27723C110.21 3.58698 108.237 1.43479 105.099 1.43479H102.229V11.2093H105.099V11.1197Z" fill="#A5A5A5"/>
	<path d="M113.349 7.17397V0.627718H114.156V7.17397C114.156 9.86422 115.591 11.3887 118.012 11.3887C120.344 11.3887 121.778 10.0436 121.778 7.26365V0.627718H122.585V7.17397C122.585 10.4023 120.702 12.1061 117.922 12.1061C115.232 12.1061 113.349 10.4023 113.349 7.17397Z" fill="#A5A5A5"/>
	<path d="M124.738 6.27723C124.738 3.04894 127.159 0.358694 130.387 0.358694C132.45 0.358694 133.615 1.07609 134.781 2.15219L134.153 2.77991C133.167 1.79349 132.001 1.07609 130.387 1.07609C127.697 1.07609 125.634 3.31796 125.634 6.09788C125.634 8.96747 127.697 11.2093 130.387 11.2093C132.001 11.2093 133.167 10.5816 134.243 9.41584L134.781 9.95389C133.615 11.1197 132.27 11.9267 130.297 11.9267C127.159 12.1061 124.738 9.50552 124.738 6.27723Z" fill="#A5A5A5"/>
	<path d="M139.803 1.34512H135.857V0.627718H144.556V1.43479H140.61V11.9267H139.803V1.34512Z" fill="#A5A5A5"/>
	<path d="M146.798 0.627718H147.605V11.9267H146.798V0.627718Z" fill="#A5A5A5"/>
	<path d="M150.564 6.27723C150.564 3.13861 152.806 0.358694 156.303 0.358694C159.711 0.358694 161.953 3.04894 161.953 6.18755C161.953 9.23649 159.711 12.0164 156.213 12.0164C152.716 12.0164 150.564 9.32617 150.564 6.27723ZM161.056 6.27723C161.056 3.40763 158.993 1.16577 156.213 1.16577C153.434 1.16577 151.461 3.40764 151.461 6.18755C151.461 8.96747 153.523 11.299 156.303 11.299C159.083 11.299 161.056 9.05714 161.056 6.27723Z" fill="#A5A5A5"/>
	<path d="M164.284 0.627718H165.091L172.893 10.4919V0.627718H173.7V11.9267H173.072L165.091 1.88316V11.9267H164.284V0.627718Z" fill="#A5A5A5"/>
</svg>
