<svg width="1960" height="1712" viewBox="0 0 1960 1712" fill="none" xmlns="http://www.w3.org/2000/svg">
<path fill-rule="evenodd" clip-rule="evenodd" d="M980.149 1226.83C1184.59 1226.83 1352.06 1059.38 1352.06 856.129C1352.06 651.77 1184.66 484.11 980.213 484.11C775.769 484.11 608.088 651.791 608.088 856.129C608.088 1059.38 775.769 1226.89 980.213 1226.89" fill="#D91A32"/>
<path fill-rule="evenodd" clip-rule="evenodd" d="M980.042 0C509.771 0 124.317 385.114 124.317 855.555C124.703 983.989 153.844 1110.71 209.601 1226.41H749.47C625.068 1148.98 541.057 1011.41 541.057 855.555C541.057 614.434 738.921 418.078 980.042 416.571H1960V0H980.042Z" fill="#F37920"/>
<path fill-rule="evenodd" clip-rule="evenodd" d="M1750.34 484.789H1211.8C1336.38 562.05 1418.88 699.782 1418.88 855.555C1418.88 1096.44 1221.08 1293.12 980.043 1294.48H0V1711.03H980.043C1451.5 1711.03 1836.79 1325.76 1836.79 855.64C1836.59 727.053 1807.02 600.209 1750.34 484.789" fill="#F37920"/>
</svg>
