<?xml version="1.0" encoding="utf-8"?>
<!-- Generator: Adobe Illustrator 25.0.0, SVG Export Plug-In . SVG Version: 6.00 Build 0)  -->
<svg version="1.1" id="Layer_1" xmlns="http://www.w3.org/2000/svg" xmlns:xlink="http://www.w3.org/1999/xlink" x="0px" y="0px"
	 viewBox="0 0 77.6 81.5" style="enable-background:new 0 0 77.6 81.5;" xml:space="preserve">
<style type="text/css">
	.st0{fill:#F9ED32;}
	.st1{fill:#EF4136;}
</style>
<g id="XMLID_11_">
	<path id="XMLID_14_" class="st0" d="M40.8,0.9l6.8,7.5c0.6,0.7,1.6,1,2.5,0.8l10.6-1.9c1.5-0.3,3,0.8,3.1,2.4l1.1,10.8
		c0.1,1,0.7,1.8,1.6,2.2l9.5,3.9c1.5,0.6,2.1,2.3,1.4,3.7l-5,9.7c-0.4,0.8-0.4,1.8,0.1,2.5l4.9,8.6c0.7,1.3,0.3,3-1.1,3.7l-10,5.3
		c-0.8,0.4-1.3,1.2-1.4,2.1l-1.1,9.7c-0.2,1.4-1.4,2.5-2.9,2.4l-11.1-0.9c-0.8-0.1-1.5,0.2-2,0.7l-7.1,6.7c-1,0.9-2.5,1-3.5,0.1
		L28.8,74c-0.5-0.5-1.2-0.7-1.9-0.6l-10.2,0.9c-1.3,0.1-2.6-0.8-2.8-2.1l-2.1-10.2c-0.2-0.7-0.6-1.4-1.3-1.8l-9.2-5.4
		c-1.2-0.7-1.7-2.2-1-3.5l4.4-8.9c0.4-0.7,0.4-1.6,0-2.3l-4.5-10c-0.6-1.4,0-2.9,1.4-3.5l8.5-3.7c0.8-0.4,1.4-1.1,1.6-2l2.1-11.5
		C14.1,8,15.5,7,17,7.3l9.6,1.9c0.9,0.2,1.8-0.1,2.4-0.7l7.9-7.8C38-0.3,39.8-0.2,40.8,0.9z"/>
	<g id="XMLID_12_">
		<g id="XMLID_70_">
			<path id="XMLID_76_" class="st1" d="M16.9,47.8V31.5h4.3l3.4,6c1,1.7,1.9,3.8,2.7,5.6h0.1c-0.2-2.2-0.3-4.4-0.3-6.8v-4.8h3.4
				v16.3h-3.9l-3.5-6.3c-1-1.7-2-3.8-2.8-5.8l-0.1,0c0.1,2.2,0.1,4.5,0.1,7.1v4.9H16.9z"/>
			<path id="XMLID_74_" class="st1" d="M43.3,40.9h-6v3.9H44v3H33.6V31.5h10.1v3h-6.4v3.4h6V40.9z"/>
			<path id="XMLID_71_" class="st1" d="M61.5,39.5c0,5.3-3.2,8.6-8,8.6c-4.8,0-7.7-3.7-7.7-8.3c0-4.9,3.1-8.5,7.9-8.5
				C58.7,31.3,61.5,35,61.5,39.5z M49.7,39.7c0,3.2,1.5,5.4,4,5.4c2.5,0,3.9-2.4,3.9-5.5c0-2.9-1.4-5.4-3.9-5.4
				C51.1,34.2,49.7,36.6,49.7,39.7z"/>
		</g>
	</g>
</g>
</svg>
