<?xml version="1.0" encoding="utf-8"?>
<!-- Generator: Adobe Illustrator 25.0.1, SVG Export Plug-In . SVG Version: 6.00 Build 0)  -->
<svg version="1.1" id="Layer_1" xmlns="http://www.w3.org/2000/svg" xmlns:xlink="http://www.w3.org/1999/xlink" x="0px" y="0px"
	 viewBox="0 0 272.9 278.3" style="enable-background:new 0 0 272.9 278.3;" xml:space="preserve">
<style type="text/css">
	.st0{fill:#9E1F63;}
	.st1{fill:#F17B66;}
	.st2{fill:#FAC6C0;}
</style>
<g id="XMLID_1_">
	<g>
		<circle class="st0" cx="22.9" cy="103.8" r="6.7"/>
		<circle class="st0" cx="44.7" cy="95.3" r="6.7"/>
		<circle class="st0" cx="123.5" cy="55.1" r="6.7"/>
		<circle class="st0" cx="100" cy="63.2" r="6.7"/>
		<circle class="st0" cx="76" cy="59.2" r="6.7"/>
		<circle class="st0" cx="62.7" cy="44.6" r="6.7"/>
		<ellipse transform="matrix(0.9871 -0.1602 0.1602 0.9871 -24.7766 32.583)" class="st0" cx="189.7" cy="170" rx="6.7" ry="6.7"/>
		<circle class="st0" cx="176.1" cy="189.3" r="6.7"/>
		<circle class="st0" cx="169.4" cy="207.9" r="6.7"/>
		<circle class="st0" cx="169.4" cy="229.7" r="6.7"/>
		<circle class="st0" cx="178.4" cy="252.8" r="6.7"/>
		
			<ellipse transform="matrix(0.9871 -0.1602 0.1602 0.9871 -39.1987 34.8276)" class="st0" cx="196.4" cy="260.5" rx="6.7" ry="6.7"/>
		<circle class="st0" cx="209.4" cy="241.5" r="6.7"/>
		<circle class="st0" cx="6.7" cy="123.9" r="6.7"/>
		<circle class="st0" cx="11.2" cy="145.8" r="6.7"/>
		<circle class="st0" cx="31.2" cy="157.7" r="6.7"/>
		<circle class="st0" cx="57.1" cy="163.3" r="6.7"/>
		
			<ellipse transform="matrix(0.9871 -0.1602 0.1602 0.9871 -24.1919 15.2907)" class="st0" cx="82.7" cy="157.7" rx="6.7" ry="6.7"/>
		<circle class="st0" cx="104.8" cy="144.3" r="6.7"/>
		<circle class="st0" cx="118.9" cy="130.7" r="6.7"/>
		<circle class="st0" cx="130.2" cy="115.3" r="6.7"/>
		<circle class="st0" cx="156.7" cy="137.2" r="6.7"/>
		<circle class="st0" cx="150" cy="156.5" r="6.7"/>
		
			<ellipse transform="matrix(0.9871 -0.1602 0.1602 0.9871 -26.5324 25.5778)" class="st0" cx="145.4" cy="177.4" rx="6.7" ry="6.7"/>
		<circle class="st0" cx="141.8" cy="196" r="6.7"/>
		<circle class="st0" cx="133.3" cy="214.6" r="6.7"/>
		<circle class="st0" cx="109.3" cy="209.6" r="6.7"/>
		<circle class="st0" cx="100.9" cy="193.5" r="6.7"/>
		<circle class="st0" cx="84" cy="199.8" r="6.7"/>
	</g>
	<path class="st1" d="M203.2,0c-28.9,0-53.7,17.6-64.3,42.7c0,0,0,0,0,0.1c-0.1,0.1-0.3,0.3-0.4,0.4c-5,5.1-10.7,9.5-16.8,12.9
		c-1.5,0.8-3.1,1.6-4.7,2.3c-1.6,0.7-3.2,1.3-4.8,1.9c-3.3,1.1-6.7,1.9-10.1,2.4c-1.7,0.2-3.4,0.4-5.2,0.5c-1.7,0.1-3.5,0.1-5.2,0
		c-3.5-0.2-6.9-0.7-10.1-1.7c-1.6-0.5-3.2-1-4.7-1.7c-1.5-0.7-3-1.5-4.3-2.4c-2.7-1.8-5.1-4.1-7.1-6.8c-0.1-0.2-0.2-0.3-0.3-0.5
		c-0.1-0.2-0.2-0.3-0.3-0.5c-0.2-0.3-0.4-0.7-0.6-1l-0.3-0.5c0,0,0,0,0,0l-0.3-0.5c0-0.1-0.1-0.2-0.1-0.3l-0.1-0.3
		c-0.1-0.2-0.2-0.3-0.2-0.5c-0.3-0.7-0.5-1.4-0.7-2.1c-0.1-0.7-0.2-1.4-0.3-2c0-1.3,0.2-2.6,0.7-3.8c0.3-0.6,0.6-1.2,1-1.7
		c0.4-0.5,0.9-1,1.5-1.5c0.6-0.5,1.2-0.9,1.9-1.2c0.7-0.4,1.4-0.7,2.2-0.9c0.4-0.1,0.8-0.2,1.2-0.4c0.2-0.1,0.4-0.1,0.6-0.2l0.6-0.1
		c0.9-0.2,1.8-0.3,2.8-0.5c1.9-0.3,3.7-0.5,5.6-0.7c1.9-0.2,3.8-0.3,5.7-0.4c1.9-0.1,3.9-0.1,6-0.3c1-0.1,2.1-0.3,3.1-0.5
		c1-0.3,2-0.6,3-1c1.9-0.9,3.6-2.1,5-3.6c0.7-0.7,1.3-1.5,1.8-2.4c0.2-0.3,0.3-0.5,0.5-0.8c0.1-0.2-0.2-0.4-0.3-0.2
		c-0.2,0.2-0.4,0.5-0.6,0.7c-0.7,0.7-1.4,1.3-2.1,1.9c-1.5,1.1-3.2,1.9-5,2.4c-0.9,0.2-1.8,0.4-2.7,0.5c-0.9,0.1-1.8,0.1-2.7,0
		c-1.8-0.1-3.7-0.4-5.7-0.6c-4-0.5-8-0.7-12-0.6c-1,0-2,0.1-3,0.1l-0.8,0.1c-0.3,0-0.6,0-0.8,0.1c-0.6,0.1-1.1,0.2-1.7,0.3
		c-1.1,0.2-2.2,0.5-3.3,1c-1.1,0.4-2.2,1-3.2,1.6c-1,0.6-2,1.4-2.9,2.3c-0.9,0.9-1.7,1.9-2.4,3c-0.7,1.1-1.2,2.3-1.6,3.5
		c-0.4,1.2-0.6,2.5-0.7,3.8c-0.1,1.3-0.1,2.5,0.1,3.8c0.1,1.2,0.4,2.4,0.7,3.6c0.7,2.3,1.7,4.5,2.9,6.5c1.1,1.9,2.5,3.7,4,5.4
		c1.5,1.7,3.1,3.3,4.9,4.7c3.5,2.8,7.5,5,11.7,6.5c4.1,1.5,8.4,2.5,12.7,3c2.1,0.3,4.3,0.4,6.4,0.4l0.8,0l0.8,0c0.5,0,1.1,0,1.6,0
		c1.1,0,2.2-0.1,3.2-0.2c1.5-0.1,3-0.3,4.5-0.6l0,0c0.2,0,0.4-0.1,0.6-0.1c1.6-0.3,3.1-0.6,4.7-0.9c1.4-0.3,2.7-0.5,3.7-0.5
		c4.2,0,7.6,3.2,7.6,7.2c0,0.8-0.2,1.9-0.5,2.8c-0.3,0.7-0.6,1.4-0.8,2.1c-0.2,0.5-0.4,0.9-0.6,1.4l-0.6,1.4l-0.6,1.4l-0.3,0.7
		l-0.3,0.7l-0.6,1.4c-0.2,0.5-0.4,0.9-0.7,1.3c-0.4,0.9-0.9,1.8-1.3,2.7c-0.2,0.4-0.5,0.9-0.7,1.3c-0.2,0.4-0.5,0.9-0.7,1.3
		l-0.7,1.3l-0.4,0.6l-0.4,0.6c-2,3.4-4.1,6.7-6.5,9.8c-1.2,1.6-2.4,3.1-3.6,4.6l-1,1.1l-0.5,0.6l-0.5,0.5l-1,1.1l-1,1
		c-2.7,2.8-5.5,5.4-8.5,7.7c-3,2.4-6.2,4.5-9.5,6.4c-0.4,0.2-0.8,0.5-1.3,0.7c-0.4,0.2-0.8,0.5-1.3,0.7l-1.3,0.6l-0.6,0.3l-0.7,0.3
		c-1.7,0.8-3.5,1.6-5.3,2.3c-1.8,0.7-3.6,1.3-5.4,1.9c-1.8,0.6-3.7,1.1-5.5,1.5c-3.7,0.8-7.4,1.3-11,1.4c-3.6,0.1-7.3-0.2-10.7-0.9
		c-1.7-0.4-3.4-0.9-5.1-1.5l-0.6-0.2c-0.2-0.1-0.4-0.2-0.6-0.2l-1.2-0.5l-1.2-0.6c-0.4-0.2-0.8-0.4-1.2-0.6
		c-0.4-0.2-0.8-0.4-1.2-0.6l-0.6-0.3c-0.2-0.1-0.4-0.2-0.6-0.4l-0.6-0.4c-0.2-0.1-0.4-0.2-0.6-0.4l-0.5-0.4
		c-0.2-0.1-0.4-0.2-0.5-0.4c-1.4-1-2.6-2-3.6-3.2c-1-1.1-1.9-2.4-2.6-3.6c-0.6-1.3-1.1-2.5-1.3-3.8c0-0.2,0-0.3-0.1-0.5
		c0-0.2,0-0.3,0-0.5c0-0.2,0-0.3,0-0.5l0-0.1l0-0.1l0-0.2c0-0.7,0.1-1.3,0.3-2c0.3-1.3,0.9-2.7,1.8-4c0.9-1.3,2-2.5,3.3-3.7
		c0.3-0.3,0.7-0.6,1-0.8c0.4-0.3,0.7-0.6,1.1-0.8l0.6-0.4l0.3-0.2l0.3-0.2c0.4-0.3,0.9-0.6,1.3-0.8c3.6-2.2,7.2-4.2,11-6
		c0.9-0.5,1.9-0.9,2.9-1.3c1-0.4,1.9-0.9,2.9-1.3c2-0.9,4.1-1.7,6.1-2.8c2.1-1,4.1-2.2,6-3.7c1.9-1.5,3.5-3.3,4.8-5.2
		c1.3-2,2.3-4.1,2.9-6.2c0.2-0.5,0.3-1.1,0.4-1.6c0.1-0.3,0.1-0.6,0.2-0.8c0-0.3,0.1-0.5,0.1-0.8l0.1-0.8c0-0.3,0-0.6,0.1-0.8l0-0.4
		c0-0.1,0-0.3,0-0.4l0-0.8l-0.2,0.8c0,0.1-0.1,0.3-0.1,0.4L65.4,80c-0.1,0.3-0.2,0.5-0.3,0.8l-0.3,0.8c-0.1,0.3-0.2,0.5-0.3,0.7
		c-0.1,0.2-0.2,0.5-0.3,0.7c-0.2,0.5-0.5,0.9-0.8,1.4c-1.1,1.8-2.4,3.4-3.8,4.9c-1.5,1.4-3.1,2.6-4.9,3.4c-0.9,0.4-1.8,0.8-2.7,1.2
		C51,94.2,50,94.5,49,94.7c-2,0.6-4.1,1-6.2,1.5c-1.1,0.2-2.2,0.5-3.3,0.8c-1.1,0.3-2.2,0.6-3.3,0.9c-4.3,1.2-8.6,2.8-12.8,4.5
		c-0.5,0.2-1,0.4-1.6,0.7l-0.4,0.2l-0.4,0.2l-0.9,0.4c-0.6,0.3-1.1,0.6-1.7,0.9c-0.6,0.3-1.1,0.7-1.7,1c-2.2,1.4-4.3,3.1-6.2,5.2
		c-1.9,2.1-3.5,4.6-4.6,7.3c-1.1,2.8-1.7,5.8-1.7,8.9l0,1.1c0,0.2,0,0.4,0,0.6l0.1,0.6c0,0.4,0.1,0.8,0.1,1.1l0.2,1.1l0.1,0.6
		c0,0.2,0.1,0.4,0.1,0.5l0.3,1.1c0.1,0.4,0.2,0.7,0.3,1.1c0.1,0.3,0.2,0.7,0.4,1.1c1,2.8,2.4,5.3,4.1,7.6c1.6,2.3,3.5,4.3,5.5,6.1
		c0.2,0.2,0.5,0.4,0.8,0.7l0.8,0.6c0.3,0.2,0.5,0.4,0.8,0.6l0.8,0.6c0.3,0.2,0.5,0.4,0.8,0.6l0.8,0.5c0.5,0.4,1,0.7,1.6,1.1
		c4.3,2.8,9.1,5,14,6.5c2.5,0.8,5,1.3,7.5,1.7c2.5,0.4,5.1,0.7,7.6,0.8c2.5,0.1,5,0,7.5-0.1c2.5-0.2,5-0.4,7.4-0.9
		c2.4-0.4,4.8-0.9,7.2-1.5c2.4-0.6,4.7-1.3,7-2.1l0.9-0.3l0.9-0.3c0.6-0.2,1.1-0.4,1.7-0.6c0.6-0.2,1.1-0.4,1.7-0.7l1.7-0.7l0.8-0.4
		l0.8-0.4l1.7-0.8c0.6-0.3,1.1-0.5,1.6-0.8c0.5-0.3,1.1-0.5,1.6-0.8c1.1-0.6,2.2-1.1,3.2-1.8c0.5-0.3,1.1-0.6,1.6-0.9l1.6-1l0.8-0.5
		l0.8-0.5l1.5-1l1.5-1.1c0.5-0.4,1-0.7,1.5-1.1c3.9-2.9,7.6-6.1,11-9.6c0.4-0.4,0.8-0.9,1.3-1.3l1.2-1.3l0.6-0.7l0.6-0.7l1.2-1.4
		c1.5-1.8,3.1-3.7,4.5-5.6c1.4-1.9,2.8-3.9,4.1-5.9c0.6-1,1.3-2,1.9-3l0.9-1.5l0.4-0.7c1.3-0.9,2.8-1.4,4.6-1.4
		c4.2,0,7.6,3.2,7.6,7.2c0,1-0.2,2-0.7,2.9h0.1c-0.3,0.4-0.6,0.8-0.9,1.3c-0.4,0.7-0.9,1.3-1.3,2c-1.7,2.7-3.2,5.4-4.5,8.2
		c-0.2,0.3-0.3,0.7-0.5,1l-0.5,1.1c-0.3,0.7-0.6,1.4-0.9,2.1l-0.4,1.1l-0.4,1.1c-0.3,0.7-0.6,1.4-0.8,2.2c-0.3,0.7-0.5,1.4-0.8,2.2
		c-0.2,0.7-0.5,1.4-0.7,2.2c-0.2,0.7-0.4,1.5-0.6,2.2c-0.1,0.4-0.2,0.7-0.3,1.1c-0.1,0.4-0.2,0.8-0.3,1.2c-0.2,0.8-0.4,1.5-0.5,2.3
		c-0.2,0.8-0.3,1.5-0.5,2.2c-0.3,1.5-0.6,2.9-0.8,4.4c-0.5,2.9-0.9,5.7-1.3,8.5c-0.4,2.8-0.8,5.5-1.2,8.2c-0.4,2.7-0.8,5.3-1.3,7.9
		c-0.4,2.6-1,5.1-1.6,7.5c-0.3,1.2-0.6,2.3-0.9,3.4c-0.3,1.1-0.7,2.1-1.1,3c-0.2,0.5-0.4,0.9-0.6,1.3c-0.1,0.2-0.2,0.4-0.3,0.6
		c-0.1,0.1-0.2,0.1-0.3,0c-0.6-0.6-1.2-1.3-1.9-2.1c-0.7-0.9-1.5-1.9-2.3-3c-0.8-1.1-1.6-2.2-2.4-3.3c-0.8-1.1-1.7-2.3-2.6-3.6
		c-0.9-1.2-1.9-2.5-3-3.8c-0.6-0.7-1.2-1.3-1.9-2c-0.3-0.3-0.8-0.7-1.1-1c-0.4-0.3-0.7-0.6-1.1-0.9c-1.5-1.2-3.1-2.2-5-3.1
		c-1.9-0.9-4.1-1.5-6.4-1.7c-0.6-0.1-1.2,0-1.8,0c-0.3,0-0.6,0-0.9,0.1c-0.3,0-0.6,0.1-0.9,0.1c-0.3,0.1-0.6,0.1-0.9,0.2l-0.4,0.1
		c0,0,0,0,0,0l-0.4,0.1c-0.3,0.1-0.6,0.2-0.9,0.3c-0.3,0.1-0.6,0.2-0.8,0.3c-0.3,0.1-0.5,0.2-0.8,0.3c-0.3,0.1-0.5,0.3-0.8,0.4
		c-0.5,0.3-1,0.6-1.5,0.9c-0.9,0.6-1.7,1.3-2.4,2c-1.4,1.4-2.5,3-3.4,4.5c-1.8,3.1-2.8,6.4-3.3,9.7c-0.1,0.4-0.1,0.8-0.2,1.2
		c0,0.4-0.1,0.8-0.1,1.2l-0.1,1.2c0,0.2,0,0.4,0,0.6c0,0.2,0,0.4,0,0.6c0,1.7,0.2,3.3,0.5,4.9c0.2,0.8,0.3,1.6,0.6,2.4
		c0.2,0.8,0.5,1.5,0.8,2.3c0.3,0.8,0.6,1.5,1,2.2c0.4,0.7,0.8,1.4,1.3,2.1c0.5,0.7,1,1.4,1.7,2c0.6,0.6,1.4,1.2,2.3,1.7
		c0.4,0.2,0.9,0.4,1.5,0.5c0.1,0,0.3,0,0.4,0.1c0.1,0,0.3,0,0.4,0c0.3,0,0.5,0,0.8,0c0.6,0,1.1-0.2,1.6-0.4c0.5-0.2,0.9-0.5,1.2-0.8
		c0.7-0.6,1.2-1.3,1.6-2c0.4-0.7,0.7-1.5,0.8-2.2c0.2-0.8,0.2-1.5,0.2-2.3c0-0.4-0.1-0.7-0.1-1.1c0-0.2-0.4-0.2-0.4,0
		c-0.1,0.3-0.2,0.7-0.3,1c-0.2,0.6-0.5,1.2-0.9,1.8c-0.4,0.5-0.8,1-1.2,1.4c-0.4,0.4-0.9,0.7-1.4,0.9c-0.2,0.1-0.5,0.1-0.7,0.2
		c-0.2,0-0.4,0-0.5-0.1c0,0-0.1-0.1-0.2-0.1c0,0-0.1,0-0.1-0.1c0,0-0.1,0-0.1-0.1c-0.2-0.1-0.3-0.2-0.4-0.4
		c-0.3-0.3-0.6-0.7-0.8-1.1c-0.2-0.4-0.4-1-0.6-1.5c-0.4-1.1-0.6-2.3-0.7-3.4c-0.1-1.2-0.1-2.4-0.1-3.6c0-0.6,0.1-1.2,0.2-1.8
		c0.1-0.6,0.2-1.2,0.3-1.7c0.1-0.3,0.1-0.6,0.2-0.8l0.2-0.9c0.1-0.3,0.2-0.6,0.3-0.8c0.1-0.3,0.2-0.6,0.3-0.8
		c0.4-1.1,0.9-2.1,1.5-3.1c0.6-1,1.2-1.8,1.9-2.6c0.7-0.8,1.4-1.4,2.1-1.8c0.3-0.2,0.7-0.4,0.9-0.5c0.1,0,0.3-0.1,0.4-0.1
		c0.1,0,0.1,0,0.2,0c0.1,0,0.1,0,0.2,0c0.1,0,0.1,0,0.2,0c0.1,0,0.1,0,0.2,0l0.1,0l0.1,0c0.1,0,0.1,0,0.1,0c0,0,0.1,0,0.1,0
		c0,0,0,0,0.1,0l0,0l0,0c0.1,0,0.2,0,0.3,0.1c0.4,0.2,0.9,0.4,1.5,0.9c0.6,0.4,1.2,1,1.9,1.7c0.2,0.2,0.3,0.4,0.5,0.5
		c0.2,0.2,0.3,0.3,0.4,0.5c0.3,0.3,0.5,0.7,0.8,1.2c0.6,0.9,1.2,2,1.8,3.1c0.6,1.1,1.3,2.3,2,3.5c0.7,1.2,1.4,2.5,2.1,3.8
		c0.8,1.3,1.5,2.6,2.5,4c0.9,1.3,1.9,2.7,3.1,4.2c0.6,0.7,1.3,1.4,2.1,2.2c0.8,0.7,1.7,1.5,2.8,2.2c1.1,0.7,2.4,1.4,3.9,1.9
		c0.8,0.3,1.6,0.5,2.4,0.6c0.4,0.1,0.9,0.1,1.3,0.2c0.4,0,0.9,0.1,1.3,0c1.8,0,3.6-0.4,5.1-1c1.5-0.6,2.8-1.3,3.9-2
		c0.3-0.2,0.6-0.4,0.8-0.6l0.4-0.3l0.4-0.3c0.5-0.4,1-0.9,1.4-1.3c0.9-0.9,1.6-1.8,2.2-2.6c0.6-0.9,1.2-1.7,1.7-2.6
		c0.2-0.4,0.5-0.8,0.7-1.3l0.3-0.6l0.3-0.6c0.8-1.6,1.4-3.2,2-4.8c0.6-1.6,1-3.1,1.5-4.6c0.8-3,1.5-6,2-8.9c0.6-2.9,1-5.8,1.4-8.6
		c0.4-2.8,0.8-5.6,1.1-8.4c0.3-2.8,0.7-5.5,1.1-8.2c0.2-1.3,0.4-2.6,0.6-3.9c0.1-0.6,0.2-1.3,0.3-1.9c0.1-0.6,0.2-1.2,0.3-1.8
		c0.1-0.3,0.1-0.6,0.2-0.9c0.1-0.3,0.1-0.6,0.2-0.9c0.2-0.6,0.3-1.2,0.5-1.9c0.2-0.6,0.3-1.2,0.5-1.8c0.2-0.6,0.3-1.2,0.5-1.8
		c0.2-0.6,0.4-1.2,0.6-1.8l0.3-0.9l0.3-0.9c0.2-0.6,0.4-1.2,0.6-1.8l0.3-0.9c0.1-0.3,0.2-0.6,0.3-0.9c0.2-0.6,0.5-1.2,0.7-1.7
		c0.2-0.6,0.5-1.1,0.7-1.7l0.8-1.7l0-0.1l0.2,0.1c1-3.5,4.2-6,8-6c1.6,0,3.1,0.5,4.4,1.2l0.1-0.1c0.1,0.1,0.2,0.1,0.3,0.2l-0.4-0.1
		c0,0,9.8,5.5,10.4,11.7c0.7,7.5-2.3,10.3-2.3,10.3l0,0c-4.8,4.6-9.2,9.7-13.2,15.2c-4.7,6.6-8.6,14-11.4,21.7
		c-1.4,3.9-2.6,7.8-3.4,11.9c-0.2,1-0.4,2-0.6,3c-0.2,1-0.3,2-0.5,3c-0.1,0.5-0.1,1-0.2,1.5l-0.1,0.8l-0.1,0.8l-0.2,1.5l-0.1,1.5
		c-0.2,2.1-0.3,4.1-0.3,6.2c0,1,0,2.1,0,3.1l0.1,1.6c0,0.3,0,0.5,0,0.8l0.1,0.8c0.3,4.2,0.9,8.4,2,12.6c0.5,2.1,1.2,4.1,1.9,6.2
		c0.8,2,1.6,4,2.6,6c0.2,0.5,0.5,1,0.7,1.5c0.3,0.5,0.5,1,0.8,1.4l0.8,1.4l0.9,1.4c0.1,0.2,0.3,0.5,0.4,0.7l0.5,0.7
		c0.3,0.4,0.6,0.9,0.9,1.3l1,1.3l0.2,0.3l0.3,0.3l0.5,0.6c0.7,0.9,1.4,1.7,2.1,2.5c0.4,0.4,0.8,0.8,1.1,1.2c0.4,0.4,0.8,0.8,1.2,1.2
		l1.2,1.1c0.4,0.4,0.8,0.7,1.2,1.1l0.6,0.5c0.1,0.1,0.2,0.2,0.3,0.3l0.3,0.3c0.4,0.4,0.9,0.7,1.3,1c3.7,2.7,7.9,5,12.7,6.3
		c2.4,0.6,4.9,1,7.5,1c2.6,0,5.2-0.3,7.7-1.1c2.5-0.8,4.9-1.9,7.1-3.4c2.1-1.5,4-3.3,5.5-5.2c1.5-1.9,2.7-4,3.6-6.1
		c0.9-2.1,1.6-4.2,2.1-6.3l0.1-0.4c0-0.1,0.1-0.2,0.1-0.4l0.1-0.7c0.1-0.5,0.2-0.9,0.3-1.4l0.3-1.4l0.2-1.4c0.3-1.9,0.6-3.8,0.8-5.7
		c0.2-1.9,0.4-3.8,0.5-5.7c0.1-1,0.1-1.9,0.1-2.9c0-1,0-1.9,0-2.8l0-2.7c0-0.9,0-1.8,0-2.6c0.1-1.7,0.2-3.4,0.4-5
		c0.1-0.8,0.3-1.6,0.5-2.4c0.1-0.4,0.2-0.8,0.4-1.2l0.2-0.6l0.1-0.3c0-0.1,0.1-0.2,0.1-0.3c0.6-1.5,1.5-3,2.5-4.4
		c1-1.4,2.2-2.6,3.6-3.8l0.5-0.4c0,0,0,0,0,0l0.5-0.4c0.4-0.3,0.7-0.5,1.1-0.8l0.3-0.2c0,0,0,0,0,0l0.3-0.2l0.6-0.4
		c0.2-0.1,0.4-0.2,0.6-0.3l0.6-0.3c-0.5,0.1-0.9,0.1-1.4,0.2l-0.7,0.2l-0.3,0.1c0,0,0,0,0,0l-0.3,0.1c-0.5,0.1-0.9,0.3-1.3,0.4
		l-0.7,0.2c0,0,0,0,0,0l-0.7,0.3c-1.8,0.8-3.5,1.7-5,3c-1.5,1.2-3,2.7-4.2,4.3c-0.1,0.1-0.2,0.2-0.2,0.3l-0.2,0.3l-0.4,0.6
		c-0.3,0.4-0.5,0.9-0.8,1.3c-0.5,0.9-0.9,1.8-1.3,2.8c-0.8,1.9-1.4,3.8-1.8,5.7c-0.5,1.9-0.9,3.7-1.2,5.5c-0.2,0.9-0.4,1.8-0.6,2.6
		c-0.2,0.9-0.4,1.7-0.6,2.6c-0.4,1.7-0.9,3.4-1.4,5.1c-0.5,1.7-1,3.3-1.6,5c-0.3,0.8-0.6,1.6-0.9,2.5c-0.2,0.4-0.3,0.8-0.5,1.2
		l-0.2,0.6c0,0.1-0.1,0.2-0.1,0.3l-0.1,0.3l-0.4,1c0,0,0,0,0,0c-0.2,0.3-0.3,0.6-0.5,1c-0.1,0.2-0.2,0.3-0.3,0.5l-0.3,0.5
		c-0.2,0.3-0.4,0.6-0.6,0.9c-0.8,1.1-1.6,2.1-2.5,3c-0.9,0.8-1.8,1.5-2.8,1.9c-1,0.5-1.9,0.8-3,0.9c-1,0.1-2,0.1-3.1,0
		c-1.1-0.2-2.2-0.5-3.2-0.9c-1.1-0.4-2.2-1-3.3-1.8c-1.1-0.7-2.1-1.5-3.1-2.5c-0.3-0.2-0.5-0.5-0.7-0.7c-0.1-0.1-0.2-0.2-0.4-0.4
		l-0.4-0.4c-0.3-0.3-0.5-0.5-0.8-0.8l-0.7-0.8c-0.3-0.3-0.5-0.6-0.7-0.8c-0.2-0.3-0.5-0.6-0.7-0.9c-0.4-0.6-0.9-1.2-1.3-1.8
		c-1.7-2.4-3-5-4.2-7.7c-0.6-1.4-1-2.8-1.5-4.2c-0.4-1.4-0.8-2.9-1.1-4.4c-1.2-5.9-1.3-12.2-0.6-18.5c0.2-1.6,0.4-3.2,0.6-4.7
		c0.3-1.6,0.6-3.2,0.9-4.7c0.7-3.1,1.6-6.2,2.7-9.1c4.3-11.9,11.8-22.8,21.3-32.1c2.4-2.3,4.9-4.6,7.4-6.7c2.6-2.1,5.3-4.2,8.1-6.2
		l1-0.7l1.1-0.7l1.1-0.7l1.1-0.7c1.4-0.9,2.9-1.8,4.4-2.8c3-1.8,6.1-3.7,9.3-5.6c3.2-1.9,6.4-3.9,9.6-6.1c3.2-2.2,6.4-4.6,9.4-7.4
		c1.5-1.4,3-2.8,4.3-4.4c0.3-0.4,0.7-0.8,1-1.2c0.3-0.4,0.7-0.8,1-1.2l1-1.2l0.9-1.3c0.3-0.4,0.6-0.9,0.9-1.3
		c0.3-0.4,0.6-0.9,0.8-1.3l0.8-1.3c0.3-0.4,0.5-0.9,0.7-1.4c0.1-0.2,0.2-0.5,0.4-0.7l0.3-0.6c0,0,0,0,0,0
		c8.7-11.6,13.9-26.1,13.9-41.7C272.9,31.2,241.7,0,203.2,0z M123.4,201.5c-0.1,0-0.2-0.1-0.4-0.2c0.1,0,0.2,0.1,0.3,0.1
		C123.5,201.5,123.5,201.5,123.4,201.5z"/>
	<g>
		<path class="st2" d="M165.2,57.6c6.4,0.1,11.6-5,11.7-11.4c0.1-6.4-5-11.6-11.4-11.7s-11.6,5-11.7,11.4
			C153.8,52.2,158.8,57.5,165.2,57.6z M165.5,37.9c4.5,0.1,8,3.8,8,8.2c-0.1,4.5-3.8,8-8.2,8c-4.5-0.1-8-3.8-8-8.2
			C157.4,41.4,161.1,37.9,165.5,37.9z"/>
		<path class="st2" d="M163.8,75c0.1-6.4-5-11.6-11.4-11.7c-6.4-0.1-11.6,5-11.7,11.4c-0.1,6.4,5,11.6,11.4,11.7
			C158.5,86.4,163.7,81.3,163.8,75z M152.2,82.9c-4.5-0.1-8-3.8-8-8.2c0.1-4.5,3.8-8,8.2-8c4.5,0.1,8,3.8,8,8.2
			C160.3,79.4,156.6,82.9,152.2,82.9z"/>
		<path class="st2" d="M165.8,93.6c-6.4-0.1-11.6,5-11.7,11.4s5,11.6,11.4,11.7c6.4,0.1,11.6-5,11.7-11.4
			C177.2,98.9,172.1,93.7,165.8,93.6z M165.4,113.2c-4.5-0.1-8-3.8-8-8.2c0.1-4.5,3.8-8,8.2-8c4.5,0.1,8,3.8,8,8.2
			C173.6,109.7,169.9,113.3,165.4,113.2z"/>
		<path class="st2" d="M191.2,116.6c-6.4-0.1-11.6,5-11.7,11.4c-0.1,6.4,5,11.6,11.4,11.7c6.4,0.1,11.6-5,11.7-11.4
			S197.6,116.7,191.2,116.6z M190.9,136.2c-4.5-0.1-8-3.8-8-8.2c0.1-4.5,3.8-8,8.2-8c4.5,0.1,8,3.8,8,8.2
			C199.1,132.7,195.4,136.3,190.9,136.2z"/>
	</g>
</g>
</svg>
