<?xml version="1.0" encoding="utf-8"?>
<!-- Generator: Adobe Illustrator 25.0.0, SVG Export Plug-In . SVG Version: 6.00 Build 0)  -->
<svg version="1.1" id="Layer_1" xmlns="http://www.w3.org/2000/svg" xmlns:xlink="http://www.w3.org/1999/xlink" x="0px" y="0px"
	 viewBox="0 0 40.1 35" style="enable-background:new 0 0 40.1 35;" xml:space="preserve">
<style type="text/css">
	.st0{fill-rule:evenodd;clip-rule:evenodd;fill:#D60926;}
	.st1{fill-rule:evenodd;clip-rule:evenodd;fill:#ED7203;}
</style>
<g>
	<path class="st0" d="M20,9.9c4.2,0,7.6,3.4,7.6,7.6c0,4.2-3.4,7.6-7.6,7.6c-4.2,0-7.6-3.4-7.6-7.6C12.4,13.3,15.8,9.9,20,9.9"/>
	<path class="st1" d="M20,35c9.6,0,17.5-7.9,17.5-17.5c0-2.7-0.6-5.3-1.7-7.6h-11c2.6,1.6,4.3,4.4,4.3,7.6c0,4.9-4,9-9,9H0V35H20z
		 M20,0C10.4,0,2.5,7.9,2.5,17.5c0,2.7,0.6,5.3,1.7,7.6h11c-2.6-1.6-4.3-4.4-4.3-7.6c0-4.9,4-9,9-9l20,0V0H20z"/>
</g>
</svg>
