<?xml version="1.0" encoding="utf-8"?>
<!-- Generator: Adobe Illustrator 23.1.1, SVG Export Plug-In . SVG Version: 6.00 Build 0)  -->
<svg version="1.1" id="Layer_1" xmlns="http://www.w3.org/2000/svg" xmlns:xlink="http://www.w3.org/1999/xlink" x="0px" y="0px"
	 viewBox="0 0 6391 815" style="enable-background:new 0 0 6391 815;" xml:space="preserve">
<style type="text/css">
	.st0{fill-rule:evenodd;clip-rule:evenodd;fill:#D91A32;}
	.st1{fill-rule:evenodd;clip-rule:evenodd;fill:#F37920;}
	.st2{fill:#ffffff;}
	.st3{fill-rule:evenodd;clip-rule:evenodd;fill:#ffffff;}
</style>
<g>
	<path class="st0" d="M465.8,578c96.3,0,175.2-78.9,175.2-174.6c0-96.3-78.9-175.3-175.2-175.3s-175.3,79-175.3,175.3
		C290.5,499.1,369.5,578,465.8,578"/>
	<path class="st1" d="M465.7,0C244.2,0,62.6,181.4,62.6,403.1c0.2,60.5,13.9,120.2,40.2,174.7h254.4
		c-58.6-36.5-98.2-101.3-98.2-174.7c0-113.6,93.2-206.1,206.8-206.8h461.7V0H465.7z"/>
	<path class="st1" d="M828.6,228.4H574.9c58.7,36.4,97.6,101.3,97.6,174.7c0,113.5-93.2,206.1-206.7,206.8H4v196.2h461.7
		c222.1,0,403.6-181.5,403.6-403C869.3,342.5,855.3,282.8,828.6,228.4z"/>
	<path class="st2" d="M4877.9,149.6h-112.6v506.9h112.6V149.6z"/>
	<path class="st2" d="M1531.7,656.5h-416.3v-70l198.6-193.2L1124.5,225v-75.3h389.7v89h-229.1l164.4,156.1L1275.9,569h255.8V656.5z"
		/>
	<path class="st2" d="M2068.9,656.5h-136.2l-178.8-231.3l-57.8,53.2v178.1h-112.7V149.6H1696v209.3l213.1-209.3h140l-216.8,205.5
		L2068.9,656.5z"/>
	<path class="st2" d="M2445.6,656.5h123.3l-187.1-506.9h-109.6l-185.7,506.9h121l120.3-378.2L2445.6,656.5z"/>
	<path class="st3" d="M3122.2,656.5h-118l-36.5-104.3h-211.6l-37.2,104.3h-117.2l194.9-506.9h128.6L3122.2,656.5z M2938,467.8
		l-76-213.9l-0.8-2.3l-76.1,216.2H2938z"/>
	<path class="st3" d="M3559.8,619.1c39.5-26.6,59.3-66.9,59.4-118.6c0-27.4-7.8-51.8-22.1-72.3c-14.4-20.5-35-35-62.3-44.9
		c20.4-9.2,36.4-22.9,47.9-40.4c11.4-18.3,16.7-38.8,16.7-60.9c0-44.9-16.7-79.2-51.7-102c-29.7-19.8-69.2-30.5-119.5-30.5h-257.9
		v506.9h211.6v0h37.3C3477.6,656.5,3524.8,644.3,3559.8,619.1z M3381.7,565.1L3381.7,565.1l-104.3,0V432.8h104.3v0h28.2
		c27.4,0,50.3,6.1,67,17.5c16.7,11.4,25.1,28.9,25.1,51.7c0,22.1-9.1,38.8-28.9,50.2c-15.2,8.4-36.6,13-62.5,13H3381.7z M3406.8,346
		h-129.3V237.9h104.3v0h23.6c24.4,0,42.6,3,55.6,9.1c17.5,9.1,25.9,23.6,25.9,44.1c0,19.8-8.3,34.2-25.9,44.1
		C3447.1,342.2,3429.6,346,3406.8,346z"/>
	<path class="st2" d="M4107.8,656.5h-411.1V149.6h396.6v89h-285.4V346h261.7v86.8h-261.7v130.1h299.9V656.5z"/>
	<path class="st2" d="M4532.4,656.5h116.4V149.6h-110.3v348.6l-223-348.6h-116.4v506.9h111.1V308.7L4532.4,656.5z"/>
	<path class="st2" d="M5227.1,240.9h161.4v-91.3h-436.1v91.3h161.4v415.6h113.3V240.9z"/>
	<path class="st2" d="M5909.9,656.5h-112.6V431.2H5572v225.3h-111.9V149.6H5572v188.7h225.2V149.6h112.6V656.5z"/>
	<path class="st2" d="M5969.9,656.5H6387V569h-255.7l172.7-174.2l-163.6-156.1h229.1v-89h-389.6V225l188.7,168.2l-198.6,193.2V656.5
		z"/>
</g>
</svg>
