<?xml version="1.0" standalone="no"?>
<!DOCTYPE svg PUBLIC "-//W3C//DTD SVG 1.1//EN" "http://www.w3.org/Graphics/SVG/1.1/DTD/svg11.dtd" >
<svg xmlns="http://www.w3.org/2000/svg">
<metadata>Generated by IcoMoon</metadata>
<defs>
<font id="sklavenitis" horiz-adv-x="1024">
<font-face units-per-em="1024" ascent="960" descent="-64" />
<missing-glyph horiz-adv-x="1024" />
<glyph unicode="&#x20;" horiz-adv-x="512" d="" />
<glyph unicode="&#xe8fa;" glyph-name="plus" d="M1024 391.111h-455.111v-455.111h-113.778v455.111h-455.111v113.778h455.111v455.111h113.778v-455.111h455.111v-113.778z" />
<glyph unicode="&#xe900;" glyph-name="card" horiz-adv-x="1390" d="M1206.857 960h-1024c-102.4 0-182.857-80.457-182.857-182.857v-658.286c0-102.4 80.457-182.857 182.857-182.857h1024c102.4 0 182.857 80.457 182.857 182.857v658.286c0 102.4-80.457 182.857-182.857 182.857zM182.857 886.857h1024c62.171 0 109.714-47.543 109.714-109.714v-36.571h-1243.429v36.571c0 62.171 47.543 109.714 109.714 109.714zM1206.857 9.143h-1024c-62.171 0-109.714 47.543-109.714 109.714v548.571h1243.429v-548.571c0-62.171-47.543-109.714-109.714-109.714z" />
<glyph unicode="&#xe901;" glyph-name="tw" horiz-adv-x="1249" d="M1118.907 700.254c0-9.99 0-22.478 0-32.468 0-337.171-257.249-724.293-724.293-724.293-144.859 0-279.727 42.459-392.117 114.888 19.98-2.498 39.961-2.498 59.941-2.498 119.883 0 229.776 39.961 317.19 109.893-112.39 2.498-204.8 74.927-237.268 177.327 14.985-4.995 32.468-7.493 47.454-7.493 22.478 0 44.956 2.498 67.434 9.99-117.385 22.478-204.8 127.376-204.8 249.756 0 0 0 2.498 0 2.498 34.966-19.98 74.927-29.971 114.888-32.468-67.434 44.956-112.39 124.878-112.39 212.293 0 47.454 12.488 89.912 34.966 127.376 124.878-154.849 314.693-254.751 524.488-267.239-4.995 17.483-7.493 37.463-7.493 57.444 0 139.863 114.888 254.751 254.751 254.751 72.429 0 139.863-29.971 184.82-79.922 57.444 12.488 112.39 32.468 162.341 62.439-19.98-59.941-59.941-109.893-112.39-139.863 52.449 4.995 99.902 19.98 147.356 39.961-32.468-49.951-74.927-94.907-124.878-132.371z" />
<glyph unicode="&#xe902;" glyph-name="search" d="M1024-30.968l-235.945 235.945c70.783 80.221 117.972 188.756 117.972 302.009 0 250.101-202.912 453.014-453.014 453.014s-453.014-202.912-453.014-453.014c0-250.101 202.912-453.014 453.014-453.014 117.972 0 221.788 42.47 302.009 117.972l231.226-231.226 37.751 28.313zM453.014 101.161c-221.788 0-405.825 179.318-405.825 405.825s184.037 405.825 405.825 405.825 405.825-184.037 405.825-405.825-179.318-405.825-405.825-405.825z" />
<glyph unicode="&#xe903;" glyph-name="step1" horiz-adv-x="1181" d="M667.172 190.291c-94.334 0-207.808 1.367-269.33 69.725-25.976 28.71-43.749 68.358-56.053 120.31-13.672 58.788-90.232 414.248-90.232 415.615-15.039 71.092-77.928 123.044-150.387 123.044h-101.17v41.015h101.17c92.967 0 172.262-65.623 191.402-155.856 0-2.734 76.561-355.461 90.232-414.248 10.937-45.116 25.976-79.295 46.483-102.537 49.218-56.053 157.223-56.053 244.721-56.053h313.079c84.764 0 153.121 68.358 153.121 153.121v291.204c0 84.764-68.358 153.121-153.121 153.121h-537.292v41.015h537.292c106.638 0 194.136-87.498 194.136-194.136v-291.204c0-106.638-87.498-194.136-194.136-194.136h-313.079c-2.734 0-4.101 0-6.836 0zM600.182 35.802c0 54.686-45.116 99.802-99.802 99.802s-99.802-45.116-99.802-99.802c0-54.686 45.116-99.802 99.802-99.802 56.053 0 99.802 45.116 99.802 99.802zM559.167 35.802c0-32.812-25.976-58.788-58.788-58.788s-58.788 25.976-58.788 58.788c0 31.445 25.976 58.788 58.788 58.788 32.812-1.367 58.788-27.343 58.788-58.788zM1084.155 35.802c0 54.686-45.116 99.802-99.802 99.802s-99.802-45.116-99.802-99.802c0-54.686 45.116-99.802 99.802-99.802 56.053 0 99.802 45.116 99.802 99.802zM1043.14 35.802c0-32.812-25.976-58.788-58.788-58.788s-58.788 25.976-58.788 58.788c0 31.445 25.976 58.788 58.788 58.788 32.812-1.367 58.788-27.343 58.788-58.788z" />
<glyph unicode="&#xe904;" glyph-name="step2" horiz-adv-x="1085" d="M994.462 960h-904.205c-49.231 0-90.256-41.026-90.256-90.256v-843.487c0-49.231 41.026-90.256 90.256-90.256h904.205c49.231 0 90.256 41.026 90.256 90.256v843.487c0 49.231-39.385 90.256-90.256 90.256zM90.256 910.769h904.205c22.974 0 41.026-18.051 41.026-41.026v-154.256h-986.256v154.256c0 22.974 18.051 41.026 41.026 41.026zM994.462-14.769h-904.205c-22.974 0-41.026 18.051-41.026 41.026v640h986.256v-641.641c0-21.333-18.051-39.385-41.026-39.385zM313.436 594.051h-150.974c-22.974 0-41.026-18.051-41.026-41.026v-149.333c0-22.974 18.051-41.026 41.026-41.026h149.333c22.974 0 41.026 18.051 41.026 41.026v149.333c1.641 22.974-16.41 41.026-39.385 41.026zM305.231 411.897h-132.923v132.923h132.923v-132.923zM617.026 594.051h-149.333c-22.974 0-41.026-18.051-41.026-41.026v-149.333c0-22.974 18.051-41.026 41.026-41.026h149.333c22.974 0 41.026 18.051 41.026 41.026v149.333c0 22.974-18.051 41.026-41.026 41.026zM608.821 411.897h-132.923v132.923h132.923v-132.923zM922.256 594.051h-149.333c-22.974 0-41.026-18.051-41.026-41.026v-149.333c0-22.974 18.051-41.026 41.026-41.026h149.333c22.974 0 41.026 18.051 41.026 41.026v149.333c0 22.974-18.051 41.026-41.026 41.026zM914.051 411.897h-132.923v132.923h132.923v-132.923zM313.436 288.821h-150.974c-22.974 0-41.026-18.051-41.026-41.026v-149.333c0-22.974 18.051-41.026 41.026-41.026h149.333c22.974 0 41.026 18.051 41.026 41.026v149.333c1.641 22.974-16.41 41.026-39.385 41.026zM305.231 106.667h-132.923v132.923h132.923v-132.923zM617.026 288.821h-149.333c-22.974 0-41.026-18.051-41.026-41.026v-149.333c0-22.974 18.051-41.026 41.026-41.026h149.333c22.974 0 41.026 18.051 41.026 41.026v149.333c0 22.974-18.051 41.026-41.026 41.026zM608.821 106.667h-132.923v132.923h132.923v-132.923zM922.256 288.821h-149.333c-22.974 0-41.026-18.051-41.026-41.026v-149.333c0-22.974 18.051-41.026 41.026-41.026h149.333c22.974 0 41.026 18.051 41.026 41.026v149.333c0 22.974-18.051 41.026-41.026 41.026zM914.051 106.667h-132.923v132.923h132.923v-132.923z" />
<glyph unicode="&#xe905;" glyph-name="step3" d="M512.75-64c-283.362 0-512.75 229.388-512.75 511.25 0 283.362 229.388 512.75 512.75 512.75s512.75-229.388 512.75-512.75c-1.499-281.862-230.887-511.25-512.75-511.25zM512.75 915.022c-257.874 0-467.772-209.898-467.772-467.772s209.898-467.772 467.772-467.772 467.772 209.898 467.772 467.772c-1.499 257.874-209.898 467.772-467.772 467.772zM470.77 288.328l287.859 287.859-31.485 31.485-272.867-272.867-127.438 127.438-31.485-31.485 143.93-143.93c4.498-4.498 10.495-5.997 16.492-5.997s10.495 2.999 14.993 7.496z" />
<glyph unicode="&#xe906;" glyph-name="step4" d="M512.796 960c-283.471 0-512.796-229.325-512.796-512.796 0-281.879 229.325-512.796 512.796-512.796 281.879 0 512.796 229.325 512.796 512.796-1.593 283.471-230.918 512.796-512.796 512.796zM541.462-16.224v87.589h-47.776v-87.589c-234.103 9.555-423.614 191.104-444.317 422.022h90.774v47.776h-92.367c3.185 246.843 200.659 449.095 445.91 458.65v-103.515h47.776v101.922c240.473-15.925 431.577-213.4 434.762-457.058h-81.219v-47.776h78.034c-19.11-226.14-202.252-406.096-431.577-422.022zM536.684 459.944l184.734-122.625-27.073-39.813-195.882 130.588c-6.37 4.778-11.148 11.148-11.148 19.11v293.026h47.776v-280.286z" />
<glyph unicode="&#xe907;" glyph-name="user" horiz-adv-x="982" d="M982.161 162.216c-4.255-4.964-8.51-9.219-12.055-14.183-4.255-4.255-7.801-8.51-12.055-13.474-116.299-122.681-280.82-198.56-462.36-198.56-186.504 0-354.571 80.133-470.87 207.778-4.255 4.255-7.801 8.51-11.346 13.474-4.255 4.964-7.801 9.219-12.055 14.183 75.878 72.332 217.706 154.593 470.161 156.011 327.623 2.127 458.105-91.479 510.582-165.23zM748.144 677.053c0-156.268-117.155-282.947-261.673-282.947s-261.673 126.68-261.673 282.947c0 156.268 117.155 282.947 261.673 282.947s261.673-126.68 261.673-282.947z" />
<glyph unicode="&#xe908;" glyph-name="support" horiz-adv-x="1181" d="M554.252 470.369c0 7.456-4.971 17.398-12.427 19.883-24.854 14.913-42.252 37.282-49.709 62.136 24.854 42.252 39.767 89.476 39.767 139.184 0 149.126-119.301 268.427-265.942 268.427s-265.942-119.301-265.942-265.942 119.301-265.942 265.942-265.942c42.252 0 84.505 9.942 121.786 29.825 22.369-19.883 52.194-29.825 82.019-29.825 24.854 0 49.709 7.456 69.592 19.883 9.942 4.971 14.913 14.913 14.913 22.369zM479.689 477.825c-24.854-2.485-52.194 7.456-67.107 27.34-4.971 4.971-12.427 7.456-19.883 7.456-4.971 0-9.942 0-12.427-2.485-34.796-19.883-72.078-32.311-114.33-32.311-119.301 0-216.233 96.932-216.233 216.233s96.932 216.233 216.233 216.233c119.301 0 216.233-96.932 216.233-216.233 0-42.252-12.427-84.505-37.282-119.301-2.485-4.971-4.971-12.427-4.971-17.398 7.456-29.825 19.883-57.165 39.767-79.534zM1081.165 134.835c-22.369 22.369-47.223 39.767-74.563 57.165 34.796 47.223 57.165 106.874 57.165 173.981 0 146.641-106.874 265.942-236.117 265.942s-236.117-119.301-236.117-265.942c0-67.107 22.369-126.757 57.165-173.981-91.961-52.194-154.097-141.67-171.495-246.058l49.709-7.456c14.913 94.447 74.563 173.981 159.068 218.718 39.767-34.796 89.476-54.68 141.67-54.68 54.68 0 101.903 19.883 141.67 54.68 27.34-14.913 52.194-32.311 74.563-54.68 44.738-44.738 74.563-101.903 84.505-164.039l49.709 7.456c-9.942 69.592-44.738 136.699-96.932 188.893zM830.136 147.262c-101.903 0-186.408 96.932-186.408 216.233s84.505 216.233 186.408 216.233 186.408-96.932 186.408-216.233c0-119.301-84.505-216.233-186.408-216.233z" />
<glyph unicode="&#xe909;" glyph-name="goBtn" horiz-adv-x="1110" d="M0 464h768v-64h-768v64zM566.4 140.8l-44.8 44.8 249.6 249.6-249.6 249.6 44.8 44.8 249.6-249.6c25.6-25.6 25.6-64 0-89.6l-249.6-249.6zM598.4-64c-166.4 0-326.4 83.2-419.2 220.8l51.2 35.2c83.2-121.6 220.8-192 368-192 246.4 0 448 201.6 448 448s-201.6 448-448 448c-147.2 0-284.8-73.6-368-192l-54.4 35.2c96 137.6 252.8 220.8 422.4 220.8 281.6 0 512-230.4 512-512s-230.4-512-512-512z" />
<glyph unicode="&#xe90a;" glyph-name="grigores" horiz-adv-x="866" d="M785.989 683.243l38.746-38.746 38.746 38.746-116.238 119.005-38.746-38.746 38.746-41.514-60.886-60.886c-66.422 58.119-152.216 94.097-246.314 102.4v30.443h27.676c30.443 0 55.351 24.908 55.351 55.351v55.351c0 30.443-24.908 55.351-55.351 55.351h-110.703c-30.443 0-55.351-24.908-55.351-55.351v-55.351c0-30.443 24.908-55.351 55.351-55.351h27.676v-30.443c-213.103-13.838-384.692-193.73-384.692-412.368 0-229.708 185.427-415.135 415.135-415.135s415.135 185.427 415.135 415.135c0 105.168-38.746 199.265-102.4 273.989l58.119 58.119zM359.784 904.649v0h110.703v-55.351h-110.703v55.351zM415.135-8.649c-199.265 0-359.784 160.519-359.784 359.784s160.519 359.784 359.784 359.784c199.265 0 359.784-160.519 359.784-359.784s-160.519-359.784-359.784-359.784zM470.486 351.135c0-30.443-24.908-55.351-55.351-55.351s-55.351 24.908-55.351 55.351c0 19.373 11.070 38.746 27.676 47.049v202.032h55.351v-202.032c16.605-8.303 27.676-27.676 27.676-47.049z" />
<glyph unicode="&#xe90b;" glyph-name="heart" horiz-adv-x="1071" d="M533.333-64l-21.333 16c-567.467 400-524.8 720-499.2 807.467 30.915 112.657 129.926 195.018 249.003 200.511l0.597 0.022c118.325-1.438 220.353-69.787 270.131-168.904l0.802-1.762c50.828 101.902 154.317 170.67 273.867 170.67 0.469 0 0.937-0.001 1.406-0.003h-0.072c119.366-5.637 218.033-88.014 248.096-198.642l0.438-1.891c26.667-87.467 69.333-407.467-499.2-807.467zM270.933 880h-6.4c-84.214-4.876-153.528-63.342-174.625-141.59l-0.308-1.344c-22.4-74.667-54.4-341.333 443.733-702.933 502.4 361.6 469.333 628.267 446.933 702.933-21.103 79.777-90.588 138.404-174.452 142.913l-0.481 0.021c-114.124-8.318-207.030-89.999-232.191-197.729l-0.342-1.738-39.467-100.267-37.333 100.267c-25.876 106.601-114.588 186.673-223.851 199.352l-1.216 0.115z" />
<glyph unicode="&#xe90c;" glyph-name="heartF" horiz-adv-x="1071" d="M1057.067 759.467c-30.5 112.52-129.167 194.897-247.927 200.51l-0.607 0.023c-0.396 0.002-0.864 0.003-1.333 0.003-119.55 0-223.039-68.767-273.068-168.904l-0.799-1.766c-50.766 100.718-152.683 168.97-270.707 170.664l-0.227 0.003c-119.674-5.515-218.685-87.876-249.154-198.631l-0.446-1.902c-25.6-87.467-68.267-406.4 499.2-807.467l21.333-16 22.4 16c570.667 401.067 528 720 501.333 807.467z" />
<glyph unicode="&#xe90d;" glyph-name="info" d="M512 960c-284.444 0-512-227.556-512-512s227.556-512 512-512 512 227.556 512 512c0 284.444-227.556 512-512 512zM512 908.8c256 0 460.8-204.8 460.8-460.8s-204.8-460.8-460.8-460.8-460.8 204.8-460.8 460.8 204.8 460.8 460.8 460.8zM540.444 425.244c0-11.378 0-17.067 0-28.444v-210.489h-56.889v210.489c0 11.378 0 22.756 0 28.444v28.444c0 11.378 0 17.067 0 28.444s0 22.756 0 34.133v11.378h51.2v-45.511c0-11.378 0-22.756 0-28.444l5.689-28.444zM557.511 658.489c0-5.689 0-11.378-5.689-17.067 0-5.689-5.689-11.378-11.378-17.067 0 0-5.689-5.689-11.378-5.689-5.689-5.689-11.378-5.689-17.067-5.689s-11.378 0-17.067 5.689c-5.689 0-11.378 5.689-11.378 5.689-5.689 5.689-11.378 11.378-11.378 17.067s-5.689 11.378-5.689 17.067c0 5.689 0 11.378 5.689 17.067 0 5.689 5.689 11.378 11.378 11.378 5.689 5.689 11.378 5.689 17.067 11.378 11.378 11.378 34.133 5.689 45.511-5.689 5.689-11.378 11.378-22.756 11.378-34.133z" />
<glyph unicode="&#xe90e;" glyph-name="gplus" d="M468.992 706.048c14.336-104.448-32.768-172.032-112.64-169.984s-155.648 75.776-169.984 180.224c-12.288 104.448 40.96 184.32 120.832 182.272s147.456-88.064 161.792-192.512zM1011.712 796.16h-137.216v135.168h-67.584v-135.168h-137.216v-67.584h137.216v-137.216h67.584v135.168h137.216v69.632zM528.384 372.224c-26.624 20.48-88.064 63.488-88.064 90.112 0 32.768 10.24 49.152 59.392 88.064 51.2 40.96 88.064 92.16 88.064 157.696 0 71.68-28.672 135.168-83.968 165.888h77.824l65.536 69.632c0 0-217.088 0-294.912 0-149.504 2.048-274.432-108.544-274.432-229.376 0-124.928 81.92-223.232 223.232-223.232 10.24 0 18.432 0 28.672 0-10.24-16.384-16.384-36.864-16.384-57.344 0-34.816 18.432-53.248 43.008-77.824-18.432 0-34.816 0-53.248 0-172.032 0-292.864-118.784-292.864-231.424s145.408-182.272 317.44-182.272c196.608 0 315.392 110.592 315.392 223.232 0 90.112-20.48 135.168-114.688 206.848zM325.632-6.656c-118.784 0-204.8 75.776-204.8 165.888 0 88.064 100.352 163.84 219.136 163.84 26.624 0 53.248-4.096 77.824-12.288 63.488-45.056 116.736-73.728 129.024-122.88 2.048-10.24 4.096-20.48 4.096-32.768 0-92.16-57.344-161.792-225.28-161.792z" />
<glyph unicode="&#xe90f;" glyph-name="fb" horiz-adv-x="471" d="M452.608 448h-141.312c0-227.328 0-505.856 0-505.856h-210.944c0 0 0 276.48 0 505.856h-100.352v178.176h100.352v114.688c0 81.92 38.912 212.992 212.992 212.992h155.648v-174.080c0 0-94.208 0-112.64 0s-45.056-8.192-45.056-49.152v-104.448h159.744l-18.432-178.176z" />
<glyph unicode="&#xe910;" glyph-name="fruit" d="M986.5 475.6c-7.6 4.4-17.9 1.8-25 8.1 7.2 10.5 18.1 6.2 29.1 1.8 5.3 26.2-7.3 56.5-31.3 73.3-30.4 21.3-67.7 26.3-94.2 13.8 0.3-5.6 0.7-11.2-4.2-18.4-4.6 16.9-7.1 30.3-23.4 41.7-48.6 33.9-93.2 6.3-126.6-18.9 21.4 51.5 119.1 62.9 150.5 6.2 30.7 12.1 70.9 7.3 107.1-17.2 50.9 61.6-8.8 137.9-71.5 134.2-9-0.5-18.4-5.5-25.8-1.8 11.3 14.9 27.1 11.5 41.8 12.2 5.4 26.7 15.3 57-7 72.5-15.7 10.9-40.6 8.5-56.7-0.9-6.4-3.7-9.7-12.4-18-11.1-1.9 13.2 9.1 26.1-1 34.9-13.3 11.6-35.6 2.8-49.1-4.9 0.6-13.7 7.1-31.2-3.1-44.8-0.4 13.9-6.2 27.7-8.3 42.2-5.8 40.2-2.4 97.5-48.6 116.9-40.2 16.8-95.2 11.6-130.3-8.3-2.5-5.8-2.4-15.2-9.5-19-4.3 11-0.8 20.1-4.1 29.7-18.3 54.4-97 50.7-133.1 20.7-6.1-5.6 2.8-11.9-5.2-14.5-16.8 3.6-1.7 23-13.9 29.7-8.2 4.5-37.8-8.4-48.5-20.7-5-5.8-4.4-15.1-11.3-16.4-7.3 4.7 1.3 18 7.3 23.7-21.6 19.6-59.3 14.5-87.8-3.3-36-22.6-72.1-63.9-86.1-107.4 10.1-3.8 19.7-5.7 30.5-12.7 18.3 10.6 47.9 21 65 6.8-21.1 1.1-41.1-1.8-59.5-11.4 7.2-5.2 13.7-10.6 10.2-19.2-39.6 35.5-92.6 35.4-122.5-17.6-12.1-21.5-8.9-38.4-4.5-52.7-9.8 13.6-32.6 22.3-42.2-1.7-0.3-6.1 10.9-13.2 4.4-17.8-23.9 16.4-43.3-7.2-53.4-31.9 0.1-12.4 25.6-16.8 33.9-26.6-2.9-4.5-8.6 2.5-11.4-2.6-35.1-32.4-42.9-77.9-8.1-95.4 47.7-24.1 112 4.1 151.7-3-22.1-6-18.4-32.2-2.6-38.2 29-11 58.2 37.2 77.1 55.5 2.5-7-5.5-17.4-10.8-26.9 29.8-23.7 59.8 19.5 72.2 52.8-34.2 7.5-39.8 33.7-45.8 65.5-6.7 35.7-15.5 87.2 29.4 97.9-34.2-31.5-26.5-60-21-92.1 4.4-25.7 9.9-51.5 37.4-62.8 5 0.6 8 8.8 14.2 4.5 8.7-9.9 1.3-25.5 9.3-37.6 7.9-11.9 23.2-17.6 40.8-23.3 5 2 0.1 14.3 8.5 14.4 7.7-7.8 3-16.3 9.9-22.5 25-22.3 66.6 3.8 86.7-1.3-18.9-20.7-40.4-8.6-53.9-38.5-20.1-44.6 37.1-81.6 88.7-102-17.4-1.5 0.9-29 8.3-33.6 17.4-11 53.1 2.7 63.9 16 5.6 6.9 1.4 10.7 11.3 16.4 9.2-3.8-0.5-13.7-4.5-21.7 35.2-0.9 68.8 4.9 93.9 44.8-1.8-11.3-4-18.7-8.8-26.3-14.6-23.2-43-18.2-53.9-29.9-20.5-22.2 1.6-66.4 28.5-75.3 5-1.7 11.3 6.1 13.6-2.1-24.7-55.9 75.3-118.1 106.7-37.6-2.4-10-1.7-22.3-7.8-30.2 23.6-36.2 59.4-11.7 84.3 8.6 16.9 13.8 39 21.4 53.7 43.8 10.2 15.5 3.6 24.2 2.8 32.9 28.5 20.2 31 54.5 20.8 74.9-3 4-11.6 6.3-7.5 12.6 11.1 3.3 16-9.4 21.1-14.6 43.9 12.3 62.9 87.2 27.2 107.7zM666.6 698.4c-3.2-5.8-8.8-14.1-16.3-13.7 19.2 33 8.8 65.7-15.3 83.7-33.6 25.3-73.5 9.6-96-14.5-5.1 11.9 12.1 23 21.5 28.2 12.2 6.7 29 8.9 39 10.3-10.6 30.7-62.7 49.1-89.3 33.5-2-6.7 1.6-11.6-5-19.7-5.1 9.9-0.3 18.8-9.7 25.8-13.8 10.3-33.9 2.1-47.1-4.3-3.6-8.3 0.9-14-5.2-23-1.8 72.3-107 17.7-110-32.8-14.7 7.6-1.4 24.4 4.1 32.2 22.9 32.6 83.7 67.7 106.5 29.6 18 7.2 40.1 20.5 61.2 0.2 31.1 18.9 97.6 0.3 102.3-42.2 45.5-6.7 78.8-57.9 59.3-93.3zM427.4 228.5c25.4 49.4 63.9 83.4 95.8 121.2-9.7 11.5-13.6 24.9-13.1 39.6-6.7 0.6-14.1 3.9-21.7 8.1-20.4-20.3-39.8-40.6-60.4-60.8-19.6-19.3-44.2-36.7-60.9-58.9-5.1-6.8-8.1-21-18.4-22.9-9.9 7.4 6.3 24 10.6 32.2 23.5 44.2 59.1 97.3 86.4 141.7-17.1 22.3-23.3 48.1-2.9 82.3-11.3 0.1-22.5-0.5-36.1 8.8-32.6-65.8-52.7-142.6-98.7-202.2-7.7 17-0.3 36.6 1.9 54 2.3 18 1.9 36.2 1.9 54 0 35.5-4.8 70.3-8.3 104.1-14.7-16.2-35.8-13.4-53.6-4.2-8.5-6.5-5.9-17.5-4.8-25 14.7-94-10.1-195.2-42.9-304-17.8-58.8-42.9-116.9-82.4-179.9 21.5-38.3 81.1-81.2 132.6-80.6 91.2 132.8 191.8 224.2 296.7 295 16.3 11 34.7 16.8 51.5 26 13 7.1 26.1 17.4 38.1 22.8 2.8 1.3 9.8-0.6 9.7 5.2-13.1 14.3-21 30.3-22.9 48.2-69.2-21.2-137.3-48.2-198.1-104.7z" />
<glyph unicode="&#xe911;" glyph-name="close" d="M589.075 448l434.925-434.925-77.075-77.075-434.925 434.925-434.925-434.925-77.075 77.075 434.925 434.925-434.925 434.925 77.075 77.075 434.925-434.925 434.925 434.925 77.075-77.075-434.925-434.925z" />
<glyph unicode="&#xe912;" glyph-name="arrowL" horiz-adv-x="545" d="M467.478 960l77.913-77.913-434.087-434.087 434.087-434.087-77.913-77.913-434.087 434.087c-44.522 44.522-44.522 111.304 0 155.826l434.087 434.087z" />
<glyph unicode="&#xe913;" glyph-name="in" d="M569.344 523.776c0 0 2.048 2.048 2.048 2.048l-2.048-2.048zM233.472 617.984h-217.088v-653.312h217.088v653.312zM247.808 820.736c-2.048 63.488-47.104 112.64-122.88 112.64-73.728 0-122.88-49.152-122.88-112.64s47.104-112.64 120.832-112.64h2.048c75.776 0 122.88 49.152 122.88 112.64zM1015.808 339.456c0 200.704-106.496 294.912-249.856 294.912-114.688 0-165.888-63.488-196.608-108.544v92.16h-217.088c2.048-61.44 0-653.312 0-653.312h217.088v364.544c0 20.48 2.048 38.912 8.192 53.248 16.384 38.912 51.2 79.872 110.592 79.872 77.824 0 110.592-59.392 110.592-147.456v-350.208h217.088v374.784z" />
<glyph unicode="&#xe914;" glyph-name="youtube" d="M1024 166.4c0-40.96-35.84-76.8-76.8-76.8h-870.4c-40.96 0-76.8 35.84-76.8 76.8v522.24c0 40.96 35.84 76.8 76.8 76.8h865.28c40.96 0 76.8-35.84 76.8-76.8 0 0 0-522.24 5.12-522.24zM368.64 325.12c0-15.36 10.24-20.48 20.48-15.36l250.88 128c10.24 5.12 10.24 15.36 0 20.48l-245.76 133.12c-10.24 5.12-20.48 0-20.48-15.36-5.12 0-5.12-250.88-5.12-250.88z" />
<glyph unicode="&#xe915;" glyph-name="insta" d="M512 867.84c138.24 0 153.6 0 204.8-5.12 51.2 0 76.8-10.24 97.28-15.36 25.6-10.24 40.96-20.48 56.32-40.96 15.36-15.36 30.72-35.84 40.96-56.32s15.36-46.080 20.48-97.28c0-56.32 5.12-71.68 5.12-204.8s0-153.6-5.12-204.8c0-51.2-10.24-76.8-15.36-97.28-10.24-25.6-20.48-40.96-40.96-56.32-15.36-15.36-35.84-30.72-56.32-40.96-15.36-5.12-46.080-15.36-97.28-15.36-56.32 0-71.68-5.12-204.8-5.12s-153.6 0-204.8 5.12c-51.2 0-76.8 10.24-97.28 15.36-25.6 10.24-40.96 20.48-56.32 40.96-15.36 15.36-30.72 35.84-40.96 56.32-5.12 15.36-15.36 46.080-15.36 97.28 0 56.32-5.12 71.68-5.12 204.8s0 153.6 5.12 204.8c0 51.2 10.24 76.8 15.36 97.28 5.12 25.6 15.36 40.96 35.84 56.32s35.84 30.72 56.32 40.96c15.36 5.12 46.080 15.36 97.28 15.36 51.2 5.12 66.56 5.12 204.8 5.12zM512 960c-138.24 0-158.72 0-209.92-5.12-56.32 0-92.16-10.24-122.88-20.48-35.84-15.36-66.56-30.72-92.16-61.44-30.72-25.6-46.080-56.32-61.44-87.040-10.24-30.72-20.48-71.68-20.48-122.88-5.12-56.32-5.12-76.8-5.12-215.040s0-158.72 5.12-215.040c0-56.32 10.24-92.16 20.48-122.88 10.24-35.84 30.72-61.44 56.32-92.16 30.72-30.72 56.32-46.080 92.16-56.32 30.72-10.24 71.68-20.48 122.88-20.48 56.32-5.12 76.8-5.12 215.040-5.12s158.72 0 215.040 5.12c56.32 0 92.16 10.24 122.88 20.48 35.84 10.24 61.44 30.72 92.16 56.32 30.72 30.72 46.080 56.32 56.32 92.16 10.24 30.72 20.48 71.68 20.48 122.88 0 56.32 5.12 71.68 5.12 215.040s0 158.72-5.12 215.040c0 56.32-10.24 92.16-20.48 122.88-10.24 35.84-30.72 61.44-56.32 92.16-30.72 30.72-56.32 46.080-92.16 56.32-30.72 10.24-71.68 20.48-122.88 20.48-56.32 5.12-76.8 5.12-215.040 5.12v0zM512 709.12c-143.36 0-266.24-117.76-266.24-266.24s117.76-266.24 266.24-266.24 266.24 117.76 266.24 266.24-117.76 266.24-266.24 266.24zM512 273.92c-92.16 0-174.080 76.8-174.080 174.080 0 92.16 76.8 174.080 174.080 174.080 92.16 0 174.080-76.8 174.080-174.080s-76.8-174.080-174.080-174.080zM788.48 780.8c-35.84 0-61.44-30.72-61.44-61.44s30.72-61.44 61.44-61.44 61.44 30.72 61.44 61.44-30.72 61.44-61.44 61.44z" />
<glyph unicode="&#xe916;" glyph-name="tick" horiz-adv-x="1272" d="M341.333-64l-341.333 341.333 93.699 93.699 247.634-247.634 836.601 836.601 93.699-93.699z" />
<glyph unicode="&#xe917;" glyph-name="home" horiz-adv-x="1115" d="M558.957 960l-558.957-551.414h142.568l16.972-472.586h276.084l-3.394 294.188h230.070l3.394-294.188h279.856v479.375h168.969l-555.562 544.625z" />
<glyph unicode="&#xe918;" glyph-name="plus_addAddress" d="M510.204 960c-280.253 0-510.204-229.951-510.204-510.204s229.951-510.204 510.204-510.204 510.204 229.951 510.204 510.204c3.593 280.253-226.358 510.204-510.204 510.204zM510.204 7.86c-240.73 0-438.344 197.614-438.344 441.937 0 240.73 197.614 438.344 438.344 438.344s438.344-197.614 438.344-438.344c3.593-244.323-194.021-441.937-438.344-441.937zM754.526 449.796c0-21.558-14.372-35.93-35.93-35.93h-172.463v-172.463c0-21.558-14.372-35.93-35.93-35.93s-35.93 14.372-35.93 35.93v172.463h-168.87c-21.558 0-35.93 14.372-35.93 35.93s14.372 35.93 35.93 35.93h172.463v168.87c0 21.558 14.372 35.93 35.93 35.93s35.93-14.372 35.93-35.93v-172.463h168.87c17.965 3.593 35.93-14.372 35.93-32.337z" />
<glyph unicode="&#xe919;" glyph-name="success" d="M510.204 960c-280.253 0-510.204-229.951-510.204-510.204s229.951-510.204 510.204-510.204 510.204 229.951 510.204 510.204c3.593 280.253-226.358 510.204-510.204 510.204zM510.204 7.86c-240.73 0-438.344 197.614-438.344 441.937 0 240.73 197.614 438.344 438.344 438.344s438.344-197.614 438.344-438.344c3.593-244.323-194.021-441.937-438.344-441.937zM790.456 683.34c14.372-14.372 17.965-35.93 3.593-50.302l-348.519-413.193c-7.186-7.186-14.372-14.372-25.151-14.372 0 0 0 0 0 0-10.779 0-17.965 3.593-25.151 10.779l-161.684 161.684c-14.372 14.372-14.372 35.93 0 50.302s35.93 14.372 50.302 0l132.94-132.94 323.368 384.449c10.779 14.372 35.93 14.372 50.302 3.593z" />
<glyph unicode="&#xe91a;" glyph-name="notification_check" d="M510.204-64c-280.253 0-510.204 229.951-510.204 513.796 0 280.253 229.951 510.204 510.204 510.204s510.204-229.951 510.204-510.204c3.593-283.846-226.358-513.796-510.204-513.796zM510.204 888.14c-240.73 0-438.344-197.614-438.344-438.344 0-244.323 197.614-441.937 438.344-441.937s438.344 197.614 438.344 438.344c3.593 244.323-194.021 441.937-438.344 441.937zM420.379 216.253c-10.779 0-17.965 3.593-25.151 10.779l-179.649 197.614 50.302 57.488 154.498-168.87 334.147 366.484 50.302-57.488-359.298-395.228c-3.593-3.593-14.372-10.779-25.151-10.779z" />
<glyph unicode="&#xe91b;" glyph-name="list_search" d="M1028.655 755.2h-642.327v46.545h642.327v-46.545zM1028.655 457.309h-642.327v-46.545h642.327v46.545zM828.509 117.527h-442.182v-46.545h442.182v46.545zM107.055 708.655l148.945 148.945-37.236 32.582-130.327-130.327-55.855 55.855-32.582-32.582 74.473-74.473c4.655-4.655 9.309-4.655 13.964-4.655s13.964 0 18.618 4.655zM107.055 364.218l148.945 148.945-37.236 32.582-130.327-130.327-55.855 55.855-32.582-32.582 74.473-74.473c4.655-4.655 9.309-4.655 18.618-4.655s9.309 0 13.964 4.655zM107.055 19.782l148.945 148.945-32.582 32.582-130.327-130.327-55.855 55.855-37.236-32.582 74.473-74.473c4.655-4.655 9.309-4.655 18.618-4.655v0c4.655 0 9.309 0 13.964 4.655z" />
<glyph unicode="&#xe91c;" glyph-name="zugaria" d="M97.28 724.48l-97.28 209.92h122.88l66.56-112.64h665.6l71.68 112.64h112.64l-97.28-209.92h-844.8zM988.16 84.48c0-56.32-15.36-97.28-15.36-97.28h-906.24c0 0-10.24 46.080-10.24 97.28 0 235.52 174.080 430.080 399.36 460.8v97.28h133.12v-97.28c225.28-30.72 399.36-225.28 399.36-460.8zM890.88 84.48c0 204.8-163.84 368.64-368.64 368.64s-368.64-163.84-368.64-368.64h302.080l56.32 327.68 76.8-327.68h302.080z" />
<glyph unicode="&#xe91d;" glyph-name="notification" d="M559.543 261.486h-73.143v347.429h73.143v-347.429zM1024 411.429c0 281.6-230.4 512-512 512s-512-230.4-512-512c0-168.229 80.457-325.486 219.429-420.571l40.229 58.514c-117.029 84.114-186.514 219.429-186.514 362.057 0 241.371 197.486 438.857 438.857 438.857s438.857-197.486 438.857-438.857c0-142.629-69.486-277.943-190.171-358.4l40.229-58.514c138.971 91.429 223.086 248.686 223.086 416.914zM522.971 173.714c-25.6 0-47.543-21.943-47.543-47.543s21.943-47.543 47.543-47.543c25.6 0 47.543 21.943 47.543 47.543s-21.943 47.543-47.543 47.543z" />
<glyph unicode="&#xe91e;" glyph-name="share" d="M824.589 334.821c-70.063 0-129.347-32.337-161.684-86.232l-274.863 140.126c5.389 21.558 10.779 43.116 10.779 64.674s-5.389 37.726-16.168 59.284l274.863 140.126c37.726-53.895 97.011-86.232 161.684-86.232 107.789 0 199.411 86.232 199.411 199.411s-80.842 194.021-194.021 194.021-199.411-86.232-199.411-199.411c0-21.558 5.389-43.116 10.779-64.674l-274.863-134.737c-37.726 53.895-97.011 86.232-161.684 86.232-113.179 0-199.411-91.621-199.411-199.411s86.232-199.411 199.411-199.411c70.063 0 129.347 32.337 161.684 86.232l274.863-140.126c-5.389-21.558-10.779-43.116-10.779-64.674 0-107.789 86.232-199.411 199.411-199.411s199.411 86.232 199.411 199.411-86.232 204.8-199.411 204.8zM824.589 906.105c80.842 0 145.516-64.674 145.516-145.516s-64.674-145.516-145.516-145.516c-80.842 0-145.516 64.674-145.516 145.516s64.674 145.516 145.516 145.516zM199.411 302.484c-80.842 0-145.516 64.674-145.516 145.516s64.674 145.516 145.516 145.516c80.842 0 145.516-64.674 145.516-145.516s-64.674-145.516-145.516-145.516zM824.589-10.105c-80.842 0-145.516 64.674-145.516 145.516s64.674 145.516 145.516 145.516c80.842 0 145.516-64.674 145.516-145.516s-64.674-145.516-145.516-145.516z" />
<glyph unicode="&#xe91f;" glyph-name="zoom" d="M1024-21.155l-222.795 222.795c68.552 81.406 111.397 184.234 111.397 299.916 0 252.787-205.657 458.444-454.159 458.444-252.787 0-458.444-205.657-458.444-458.444s205.657-458.444 458.444-458.444c115.682 0 218.51 42.845 299.916 111.397l222.795-222.795 42.845 47.13zM458.444 111.665c-218.51 0-394.176 175.665-394.176 394.176s175.665 394.176 394.176 394.176c218.51 0 394.176-175.665 394.176-394.176-4.285-218.51-179.95-394.176-394.176-394.176zM488.435 535.833h239.933v-64.268h-239.933v-239.933h-64.268v239.933h-239.933v64.268h239.933v239.933h64.268v-239.933z" />
<glyph unicode="&#xe920;" glyph-name="yoda_bonus" horiz-adv-x="840" d="M426.147 363.564c108.379 0 198.765 90.386 198.765 198.765s-90.386 192.815-198.765 192.815-192.815-84.294-192.815-192.815 84.436-198.765 192.815-198.765zM426.147 694.933c78.344 0 138.555-60.21 138.555-138.555s-60.21-138.555-138.555-138.555-138.555 60.21-138.555 138.555 66.302 138.555 138.555 138.555zM835.719 140.715l-84.294 180.773c0 6.092-6.092 6.092-12.042 12.042 0 6.092 6.092 6.092 6.092 12.042 6.092 12.042 12.042 24.084 18.134 30.176 6.092 12.042 12.042 18.134 18.134 30.176 18.134 30.176 42.218 66.302 48.168 108.379 6.092 42.218-12.042 84.294-24.084 120.421-6.092 12.042-6.092 24.084-12.042 36.126-6.092 12.042-6.092 24.084-12.042 36.126-6.092 36.126-18.134 78.344-42.218 108.379-24.084 30.176-60.21 48.168-96.336 66.302-12.042 6.092-24.084 12.042-30.176 18.134-12.042 0-24.084 6.092-36.126 12.042-30.176 18.134-66.302 42.218-108.379 48.168-6.092 0-12.042 0-12.042 0-36.126 0-72.252-12.042-102.428-24.084-12.042-6.092-24.084-6.092-36.126-12.042-6.092 0-18.134-6.092-36.126-6.092-36.126-12.042-72.252-18.134-108.379-48.168-30.176-24.084-48.168-60.21-66.302-96.336 0-12.042-6.092-18.134-12.042-30.176-6.092-12.042-12.042-24.084-18.134-30.176-18.134-30.176-42.218-66.302-48.168-108.379s12.042-84.294 24.084-114.47c6.092-18.134 6.092-24.084 12.042-36.126 0-12.042 6.092-24.084 6.092-36.126 6.092-30.176 12.042-60.21 30.176-90.386l-6.092-6.092-90.528-198.765c-6.092-18.134-6.092-42.218 0-60.21 12.042-18.134 30.176-30.176 48.168-30.176l108.379-6.092 72.252-78.344c12.042-6.092 30.176-12.042 42.218-12.042h6.092c18.134 0 36.126 18.134 48.168 36.126l90.245 187.006 84.294-174.681c6.092-18.134 24.084-30.176 48.168-36.126h12.042c18.134 0 30.176 6.092 42.218 18.134l72.252 78.344 108.379 6.092c18.134 0 36.126 12.042 48.168 30.176 6.234 17.709 6.234 41.793 0.142 59.927zM263.509 104.589l-24.084 30.176c-12.042 12.042-24.084 18.134-42.218 18.134h-42.218l42.218 96.336c6.092 0 12.042-6.092 18.134-6.092 12.042-6.092 24.084-12.042 30.176-18.134 12.042-6.092 18.134-12.042 30.176-18.134 6.092-6.092 18.134-12.042 24.084-18.134l-36.268-84.153zM655.088 231.101l30.176-66.302h-42.218c-18.134 0-30.176-6.092-42.218-18.134l-24.084-30.176-36.126 78.344c12.042 0 18.134 6.092 30.176 6.092 30.034 12.042 60.21 18.134 84.294 30.176zM161.080 664.757c6.092 12.042 12.042 18.134 18.134 30.176s12.042 24.084 18.134 30.176c12.042 30.176 24.084 54.26 42.218 66.302 18.134 18.134 48.168 24.084 72.252 30.176 12.042 0 24.084 6.092 36.126 6.092 12.042 6.092 24.084 12.042 36.126 12.042 24.084 6.092 48.168 18.134 66.302 18.134h6.092c24.084 0 48.168-18.134 72.252-30.176 12.042-6.092 24.084-12.042 36.126-18.134s24.084-12.042 30.176-18.134c24.084-12.042 48.168-24.084 66.302-42.218s24.084-48.168 30.176-72.252c0-12.042 6.092-24.084 6.092-36.126 6.092-12.042 6.092-24.084 12.042-30.176 12.042-30.176 18.134-54.26 18.134-78.344s-18.134-48.168-30.176-72.252c-6.092-12.042-12.042-18.134-18.134-30.176-12.042-12.042-18.134-24.084-18.134-36.126-12.042-24.084-24.084-54.26-42.218-66.302-24.084-12.042-48.168-18.134-78.344-30.176-12.042 0-24.084-6.092-36.126-6.092-12.042-6.092-24.084-6.092-30.176-12.042-24.084-6.092-48.168-18.134-72.252-18.134h-6.092c-24.084 0-48.168 18.134-72.252 30.176-12.042 6.092-18.134 12.042-30.176 18.134s-24.084 12.042-30.176 18.134c-24.084 12.042-54.26 24.084-66.302 42.218-18.134 24.084-24.084 48.168-30.176 78.344 0 12.042-6.092 24.084-6.092 36.126-6.092 6.092-12.042 18.134-12.042 30.176-12.042 24.084-18.134 54.26-18.134 78.344 0.142 23.942 18.276 48.027 30.318 72.111z" />
<glyph unicode="&#xe921;" glyph-name="icon_account" d="M510.754 960c-281.538 0-510.754-229.217-510.754-510.754s229.217-510.754 510.754-510.754c281.538 0 510.754 229.217 510.754 510.754s-226.725 510.754-510.754 510.754zM211.776 70.54c17.44 92.185 79.727 169.421 161.946 211.776 37.372-34.881 84.71-54.813 137.032-54.813s99.659 19.932 137.032 54.813c29.898-14.949 57.304-34.881 79.727-57.304 42.355-42.355 72.253-97.168 82.219-154.472-82.219-64.779-186.861-104.642-298.978-104.642s-216.759 39.864-298.978 104.642zM510.754 257.401c-104.642 0-189.353 97.168-189.353 219.251s84.71 219.251 189.353 219.251c104.642 0 189.353-97.168 189.353-219.251s-84.71-219.251-189.353-219.251zM837.139 92.964c-14.949 57.304-44.847 109.625-87.202 154.472-22.423 22.423-49.83 42.355-79.727 57.304 37.372 44.847 59.796 104.642 59.796 171.912 0 137.032-99.659 249.148-219.251 249.148s-219.251-112.117-219.251-249.148c0-67.27 22.423-127.066 59.796-171.912-82.219-44.847-144.506-122.083-166.929-211.776-97.168 87.202-156.964 214.268-156.964 353.791 2.491 266.589 219.251 483.348 483.348 483.348s480.856-216.759 480.856-480.856c2.491-142.015-57.304-266.589-154.472-356.282z" />
<glyph unicode="&#xe922;" glyph-name="icon_exclamation" horiz-adv-x="181" d="M181.202 32.922c0-12.642-4.214-25.284-8.428-37.926s-12.642-21.070-21.070-29.498c-4.214-8.428-12.642-16.856-25.284-21.070s-25.284-8.428-37.926-8.428c-25.284 0-46.354 8.428-63.21 29.498-16.856 16.856-25.284 42.14-25.284 67.424 0 12.642 4.214 25.284 8.428 37.926s12.642 21.070 21.070 29.498c4.214 8.428 12.642 16.856 25.284 21.070 21.070 8.428 50.568 12.642 71.638 0 12.642-4.214 21.070-12.642 29.498-21.070s12.642-16.856 21.070-29.498c4.214-12.642 4.214-25.284 4.214-37.926zM46.354 593.383v-4.214c0-8.428 0-37.926 0-71.638 0-54.782 0-117.992 4.214-134.848 0-29.498 4.214-58.996 4.214-92.708v-8.428h75.852v8.428c0 33.712 4.214 67.424 4.214 92.708 0 16.856 0 80.066 4.214 134.848 0 33.712 0 63.21 0 75.852 0 25.284 0 50.568 4.214 75.852 0 25.284 0 50.568 0 80.066v210.7h-101.136v-219.128c0-25.284 0-50.568 0-75.852 4.214-25.284 4.214-46.354 4.214-71.638z" />
<glyph unicode="&#xe923;" glyph-name="filters" horiz-adv-x="1012" d="M236.308 341.964c12.118-36.355 54.533-48.473 84.828-36.355 36.355 12.118 48.473 54.533 36.355 84.828l-187.834 436.26h678.627l-187.834-436.26c-6.059-12.118-6.059-24.237-6.059-36.355l12.118-290.84h-266.604c-36.355 0-66.651-30.296-66.651-66.651s30.296-66.651 66.651-66.651h339.314c18.178 0 36.355 6.059 48.473 24.237 12.118 12.118 18.178 30.296 18.178 54.533l-18.178 345.373 224.189 508.97c12.118 18.178 6.059 42.414-6.059 60.592-12.118 24.237-36.355 36.355-60.592 36.355h-878.58c-24.237 0-42.414-12.118-54.533-30.296s-12.118-42.414-6.059-60.592l230.249-527.148z" />
<glyph unicode="&#xe924;" glyph-name="cart2" horiz-adv-x="1042" d="M850.365 960l-178.087-641.113h-485.287l-106.852 480.835-80.139-17.809 124.661-543.165h529.809l-40.070-146.922h-431.861v-80.139h84.591c0-4.452-4.452-8.904-4.452-17.809 0-31.165 26.713-57.878 57.878-57.878s57.878 26.713 57.878 57.878c0 4.452 0 8.904-4.452 17.809h115.757c0-4.452-4.452-8.904-4.452-17.809 0-31.165 26.713-57.878 57.878-57.878s57.878 26.713 57.878 57.878c0 4.452 0 8.904-4.452 17.809h84.591l71.235 253.774 169.183 614.4h129.113v80.139h-200.348z" />
<glyph unicode="&#xe925;" glyph-name="recipes" d="M722.944 85.504c-8.192 36.864-30.72 202.752-32.768 256-4.096 53.248-4.096 86.016-4.096 135.168s8.192 126.976 8.192 176.128-6.144 251.904-10.24 280.576c0 0 0 18.432-4.096 22.528-2.048 4.096-10.24 4.096-14.336 4.096s-14.336-4.096-30.72-22.528c-20.48-36.864-36.864-77.824-43.008-120.832-14.336-49.152-22.528-98.304-22.528-143.36 0-32.768-10.24-165.888-8.192-180.224 8.192-22.528 30.72-36.864 40.96-55.296 10.24-36.864 14.336-75.776 14.336-116.736 4.096-18.432 0-36.864-4.096-55.296 0-49.152-8.192-131.072-10.24-167.936-4.096-40.96-4.096-86.016 0-126.976 8.192-22.528 30.72-36.864 67.584-30.72 26.624 4.096 49.152 22.528 55.296 45.056 4.096 32.768 4.096 65.536-2.048 100.352zM434.176 949.76h-10.24c0 0 0-172.032 0-176.128s0-10.24-8.192-10.24-10.24 0-10.24 8.192c0 8.192-8.192 180.224-8.192 180.224h-8.192c0 0 0-172.032 0-176.128s0-10.24-8.192-10.24-12.288 0-12.288 4.096-8.192 180.224-8.192 180.224h-8.192c0 0 0-172.032 0-176.128s-4.096-14.336-10.24-14.336c-8.192 0-8.192 8.192-8.192 14.336 0 8.192-10.24 176.128-10.24 176.128h-10.24c0 0-10.24-172.032-14.336-188.416-8.192-32.768-4.096-71.68 18.432-98.304 18.432-22.528 30.72-49.152 40.96-75.776 0-14.336 0-77.824-4.096-120.832s-22.528-339.968-26.624-372.736c-4.096-32.768-8.192-71.68-8.192-104.448 8.192-26.624 30.72-49.152 55.296-49.152 30.72 0 55.296 18.432 63.488 49.152 0 22.528-8.192 77.824-8.192 104.448s-30.72 337.92-30.72 374.784 0 104.448 0 120.832c10.24 26.624 22.528 53.248 40.96 75.776 18.432 26.624 26.624 59.392 14.336 94.208 2.048 16.384-20.48 190.464-20.48 190.464z" />
<glyph unicode="&#xe926;" glyph-name="recipes_circle" d="M467.329 733.208v-168.376c0-3.436 0-6.872-3.436-10.309l-61.852-75.597v-343.624c0-10.309-6.872-17.181-17.181-17.181s-17.181 6.872-17.181 17.181v343.624l-58.416 75.597c-3.436 3.436-3.436 6.872-3.436 10.309v168.376c0 10.309 6.872 17.181 17.181 17.181s17.181-6.872 17.181-17.181v-161.503l48.107-58.416 48.107 58.416v161.503c0 10.309 6.872 17.181 17.181 17.181s13.745-10.309 13.745-17.181zM384.859 575.141c10.309 0 17.181 6.872 17.181 17.181v140.886c0 10.309-6.872 17.181-17.181 17.181s-17.181-6.872-17.181-17.181v-140.886c0-10.309 10.309-17.181 17.181-17.181zM673.503 750.389c-27.49 0-44.671-13.745-48.107-13.745-37.799-27.49-58.416-61.852-58.416-106.523v-230.228c0-10.309 6.872-17.181 17.181-17.181h30.926c10.309 0 17.181 6.872 17.181 17.181s-6.872 17.181-17.181 17.181h-13.745v209.611c0 34.362 13.745 58.416 44.671 79.034 0 0 3.436 3.436 10.309 6.872v-577.289c0-10.309 6.872-17.181 17.181-17.181s17.181 6.872 17.181 17.181v597.906c0 6.872-6.872 17.181-17.181 17.181zM1024 448c0 281.772-230.228 512-512 512s-512-230.228-512-512 230.228-512 512-512 512 230.228 512 512zM989.638 448c0-264.591-213.047-477.638-477.638-477.638s-477.638 213.047-477.638 477.638 213.047 477.638 477.638 477.638 477.638-213.047 477.638-477.638z" />
<glyph unicode="&#xe927;" glyph-name="skoufos" horiz-adv-x="1303" d="M1302.894 510.439c0-124.878-99.902-224.78-224.78-224.78-49.951 0-95.74 16.65-137.366 45.789-8.325 4.163-12.488 12.488-12.488 20.813s0 16.65 4.163 24.976c12.488 12.488 33.301 16.65 45.789 8.325 29.138-20.813 62.439-33.301 95.74-33.301 87.415 0 162.341 70.764 162.341 162.341s-70.764 154.016-162.341 154.016c-29.138 0-58.276-8.325-87.415-24.976-8.325-4.163-20.813-8.325-29.138-4.163s-16.65 12.488-20.813 20.813c-41.626 137.366-166.504 228.943-308.033 228.943-133.203 0-253.919-83.252-299.707-208.13 0-4.163-8.325-12.488-16.65-16.65s-16.65-4.163-24.976 0c-16.65 8.325-37.463 12.488-62.439 12.488-87.415 0-162.341-70.764-162.341-162.341s70.764-162.341 162.341-162.341c29.138 0 58.276 8.325 83.252 24.976 16.65 8.325 37.463 4.163 45.789-12.488 4.163-8.325 4.163-16.65 4.163-24.976-4.163-8.325-8.325-16.65-16.65-20.813-33.301-20.813-74.927-33.301-116.553-33.301-124.878 0-224.78 99.902-224.78 224.78s99.902 224.78 224.78 224.78c20.813 0 37.463-4.163 54.114-8.325 66.602 145.691 203.967 233.106 353.821 233.106 83.252 0 166.504-29.138 233.106-79.089 54.114-41.626 99.902-95.74 124.878-162.341 24.976 12.488 54.114 16.65 83.252 16.65 124.878 0 228.943-99.902 228.943-224.78zM974.049 256.52c-16.65 0-37.463-12.488-37.463-33.301v-224.78h-645.203c0 0 0 0 0 0v224.78c0 20.813-12.488 33.301-29.138 33.301s-29.138-12.488-29.138-33.301v-237.268c0-16.65 33.301-49.951 49.951-49.951h628.553c4.163 0 8.325 0 12.488 0s8.325 0 12.488 0c16.65 0 37.463 4.163 49.951 16.65 8.325 8.325 16.65 24.976 16.65 37.463v237.268c-4.163 24.976-20.813 29.138-29.138 29.138zM620.228 398.049c8.325 0 12.488 0 20.813 0 91.577 8.325 178.992 58.276 212.293 129.041 4.163 8.325 4.163 16.65 0 24.976s-8.325 16.65-16.65 16.65c-16.65 8.325-37.463 0-41.626-16.65-20.813-45.789-91.577-87.415-158.179-91.577-4.163 0-8.325 0-12.488 0-49.951 0-116.553 16.65-166.504 95.74-8.325 16.65-29.138 20.813-45.789 8.325-16.65 0-20.813-4.163-20.813-12.488s0-16.65 4.163-24.976c54.114-83.252 133.203-129.041 224.78-129.041z" />
<glyph unicode="&#xe928;" glyph-name="zoom2" d="M437.073 554.146c6.244-6.244 6.244-18.732 0-31.22-6.244 0-12.488-6.244-18.732-6.244s-12.488 6.244-12.488 6.244l-362.146 362.146v-262.244c0-12.488-12.488-24.976-24.976-24.976-6.244 0-18.732 6.244-18.732 18.732v318.439c0 0 0 0 0 0s0 6.244 0 6.244 6.244 12.488 12.488 12.488c0 0 6.244 0 6.244 0s0 0 0 0h318.439c12.488 0 24.976-12.488 24.976-24.976s-12.488-24.976-24.976-24.976h-262.244l362.146-349.659zM605.659 516.683c6.244 0 12.488 6.244 18.732 6.244l355.902 355.902v-262.244c0-12.488 12.488-24.976 24.976-24.976s24.976 12.488 24.976 24.976v318.439c0 0 0 6.244 0 6.244s0 6.244-6.244 6.244c0 0 0 0 0 0s0 0 0 0-6.244 6.244-6.244 6.244c0 0-6.244 0-6.244 0s0 0 0 0h-324.683c-12.488 0-24.976-12.488-24.976-24.976s12.488-24.976 24.976-24.976h262.244l-355.902-349.659c-12.488-6.244-12.488-18.732 0-31.22 0 0 6.244-6.244 12.488-6.244zM405.854 366.829l-355.902-355.902v262.244c0 12.488-12.488 24.976-24.976 24.976s-24.976-12.488-24.976-24.976v-318.439c0 0 0-6.244 0-6.244 0-6.244 6.244-12.488 12.488-12.488 0 0 6.244 0 6.244 0h318.439c12.488 0 24.976 12.488 24.976 24.976s-12.488 24.976-24.976 24.976h-262.244l362.146 349.659c6.244 6.244 6.244 24.976 0 31.22-12.488 12.488-24.976 12.488-31.22 0zM1024-45.268v318.439c0 12.488-12.488 24.976-24.976 24.976s-24.976-12.488-24.976-24.976v-262.244l-349.659 355.902c-6.244 6.244-24.976 6.244-31.22 0s-6.244-24.976 0-31.22l355.902-355.902h-262.244c-12.488 0-24.976-12.488-24.976-24.976s12.488-24.976 24.976-24.976h318.439c0 0 6.244 0 6.244 0s6.244 0 6.244 6.244c0 0 0 0 0 0s0 0 0 0 6.244 6.244 6.244 6.244c0 6.244 0 12.488 0 12.488z" />
<glyph unicode="&#xe929;" glyph-name="print" horiz-adv-x="1213" d="M1002.442-64h-792.253c-16.168 0-26.947 10.779-26.947 26.947v614.4c0 16.168 10.779 26.947 26.947 26.947h786.863c16.168 0 26.947-10.779 26.947-26.947v-614.4c5.389-10.779-5.389-26.947-21.558-26.947v0zM237.137-10.105h732.968v560.505h-732.968v-560.505zM1212.632 404.884v555.116h-1212.632v-555.116h140.126v53.895h-86.232v447.326h1104.842v-447.326h-86.232v-53.895h140.126zM921.6 744.421c5.389 0 10.779-5.389 10.779-10.779s-5.389-10.779-10.779-10.779-5.389 5.389-5.389 10.779c0 5.389 0 10.779 5.389 10.779zM921.6 798.316c-32.337 0-59.284-26.947-59.284-64.674s26.947-64.674 64.674-64.674c37.726 0 64.674 26.947 64.674 64.674-5.389 37.726-32.337 64.674-70.063 64.674v0zM770.695 722.863c16.168 0 26.947 10.779 26.947 26.947s-10.779 26.947-26.947 26.947h-334.147c-16.168 0-26.947-10.779-26.947-26.947s10.779-26.947 26.947-26.947h334.147z" />
<glyph unicode="&#xe92a;" glyph-name="40-google-plus" d="M355.228 494.239c-0.135-32.394 0-64.787 0.137-97.179 54.307-1.77 108.748-0.952 163.055-1.77-23.954-120.454-187.826-159.515-274.525-80.848-89.151 69.006-84.931 220.355 7.758 284.461 64.787 51.721 156.93 38.927 221.715-5.852 25.453 23.546 49.27 48.726 72.272 74.858-53.897 43.009-120.044 73.634-190.412 70.366-146.857 4.9-281.875-123.72-284.324-270.579-9.392-120.044 69.55-237.776 181.022-280.242 111.062-42.737 253.429-13.61 324.341 86.156 46.82 63.017 56.892 144.135 51.448 220.355-90.921 0.681-181.703 0.545-272.486 0.273zM886.313 494.647c-0.273 27.086-0.408 54.307-0.544 81.391-27.086 0-54.034 0-80.983 0-0.273-27.086-0.544-54.17-0.681-81.391-27.221-0.135-54.307-0.273-81.391-0.545 0-27.084 0-54.033 0-80.983 27.084-0.273 54.305-0.545 81.391-0.816 0.273-27.086 0.273-54.17 0.545-81.256 27.086 0 54.034 0 81.119 0 0.135 27.086 0.271 54.17 0.544 81.391 27.221 0.273 54.307 0.408 81.391 0.681 0 26.95 0 54.034 0 80.983-27.084 0.273-54.305 0.273-81.391 0.545z" />
<glyph unicode="&#xe92b;" glyph-name="kalokairi" horiz-adv-x="1028" d="M929.414 746.153c0 61.687-53.462 115.149-115.149 115.149s-115.149-53.462-115.149-115.149 49.349-115.149 115.149-115.149 115.149 49.349 115.149 115.149zM892.402 746.153c0-41.124-32.9-78.137-78.137-78.137s-78.137 32.9-78.137 78.137 32.9 78.137 78.137 78.137 78.137-37.012 78.137-78.137zM793.703 881.863v57.574c0 12.337 8.225 20.562 20.562 20.562s20.562-8.225 20.562-20.562v-61.687c0-12.337-8.225-20.562-20.562-20.562-12.337 4.112-20.562 12.337-20.562 24.675zM896.514 828.402c-4.112 4.112-4.112 8.225-4.112 12.337s0 8.225 4.112 12.337l41.124 41.124c4.112 4.112 8.225 4.112 12.337 4.112 0 0 0 0 0 0 4.112 0 8.225 0 12.337-4.112 8.225-8.225 8.225-20.562 0-28.787l-41.124-41.124c-4.112-4.112-8.225-4.112-12.337-4.112s-8.225 4.112-12.337 8.225zM1028.112 746.153c0-12.337-8.225-20.562-20.562-20.562h-61.687c-12.337 0-20.562 8.225-20.562 20.562s8.225 20.562 20.562 20.562h61.687c12.337-4.112 20.562-12.337 20.562-20.562zM966.426 618.667c4.112-4.112 4.112-8.225 4.112-12.337s0-8.225-4.112-12.337c-4.112-4.112-8.225-4.112-12.337-4.112s-8.225 0-12.337 4.112l-41.124 41.124c-4.112 4.112-4.112 8.225-4.112 12.337s0 8.225 4.112 12.337c8.225 8.225 20.562 8.225 28.787 0l37.012-41.124zM814.265 626.892c12.337 0 20.562-8.225 20.562-20.562v-57.574c0-12.337-8.225-20.562-20.562-20.562s-20.562 8.225-20.562 20.562v61.687c0 8.225 8.225 16.45 20.562 16.45zM732.016 663.904c8.225-8.225 8.225-20.562 0-28.787l-41.124-41.124c-4.112-4.112-8.225-4.112-12.337-4.112s-8.225 0-12.337 4.112c-8.225 8.225-8.225 20.562 0 28.787l41.124 41.124c4.112 4.112 16.45 4.112 24.675 0zM600.418 746.153c0 12.337 8.225 20.562 20.562 20.562h61.687c12.337 0 20.562-8.225 20.562-20.562s-8.225-20.562-20.562-20.562h-61.687c-12.337 0-20.562 8.225-20.562 20.562zM662.104 869.526c-4.112 4.112-4.112 8.225-4.112 12.337s0 8.225 4.112 12.337c8.225 8.225 20.562 8.225 28.787 0l41.124-41.124c8.225-4.112 8.225-16.45 0-24.675-4.112-4.112-8.225-4.112-12.337-4.112s-8.225 0-12.337 4.112l-45.237 41.124zM542.843 540.53c4.112 4.112 4.112 8.225 4.112 16.45-24.675 94.586-119.261 156.273-242.635 156.273-24.675 0-53.462 0-78.137-8.225-148.048-32.9-250.859-156.273-222.072-275.534 0-4.112 4.112-8.225 8.225-12.337 4.112 0 8.225-4.112 8.225-4.112s4.112 0 4.112 0l505.831 115.149c8.225 4.112 12.337 8.225 12.337 12.337zM501.719 565.205l-464.707-106.924c-4.112 90.474 78.137 180.948 197.398 209.735 24.675 4.112 49.349 8.225 69.912 8.225 94.586 0 172.723-45.237 197.398-111.036zM522.281 129.285c-45.237 0-86.361-4.112-127.486-8.225l-61.687 267.309c0 4.112-4.112 8.225-8.225 12.337s-8.225 4.112-16.45 4.112c-4.112 0-8.225-4.112-12.337-8.225s-4.112-12.337-4.112-16.45l61.687-267.309c-143.936-24.675-246.747-86.361-246.747-160.386 0-12.337 8.225-20.562 20.562-20.562h781.365c12.337 0 20.562 8.225 20.562 20.562 0 102.811-180.948 176.835-407.133 176.835zM378.345 79.936c4.112 0 4.112 0 0 0 4.112 0 4.112 0 4.112 0 41.124 4.112 86.361 8.225 135.711 8.225 201.51 0 341.333-57.574 366.008-115.149h-732.016c20.562 45.237 102.811 90.474 226.185 106.924z" />
<glyph unicode="&#xe92c;" glyph-name="bio" d="M230.945 567.83c13.072 4.357 39.217 4.357 65.362 4.357 34.86 0 56.647-4.357 74.077-21.787 13.072-8.715 21.787-21.787 21.787-43.574 0-26.145-17.43-47.932-43.574-61.004v0c26.145-4.357 56.647-26.145 56.647-65.362 0-21.787-8.715-39.217-21.787-52.289-17.43-17.43-47.932-26.145-91.506-26.145-26.145 0-43.574 0-52.289 4.357v261.447zM265.804 454.536h30.502c34.86 0 56.647 21.787 56.647 43.574 0 30.502-21.787 43.574-56.647 43.574-17.43 0-26.145 0-30.502-4.357v-82.791zM265.804 328.17c8.715 0 17.43 0 30.502 0 34.86 0 69.719 13.072 69.719 52.289 0 34.86-30.502 52.289-69.719 52.289h-30.502v-104.579zM518.536 572.187v-270.162h-39.217v270.162h39.217zM840.987 437.106c0-91.506-56.647-143.796-126.366-143.796s-122.009 56.647-122.009 135.081c0 87.149 52.289 143.796 126.366 143.796 74.077 4.357 122.009-52.289 122.009-135.081zM631.83 432.749c0-56.647 30.502-108.936 87.149-108.936s87.149 52.289 87.149 113.294c0 52.289-26.145 108.936-87.149 108.936s-87.149-52.289-87.149-113.294zM479.319-24.783c13.072 17.43 26.145 26.145 43.574 30.502 17.43 0 26.145-8.715 39.217-21.787 17.43-21.787 43.574-47.932 95.864-39.217 0 0 4.357 0 4.357 0 43.574 17.43 47.932 52.289 56.647 78.434 4.357 21.787 8.715 34.86 21.787 47.932 13.072 8.715 26.145 4.357 47.932 0 26.145-8.715 61.004-17.43 100.221 13.072 0 0 4.357 4.357 4.357 4.357 26.145 39.217 17.43 69.719 8.715 95.864-8.715 21.787-13.072 34.86-4.357 52.289 8.715 13.072 17.43 17.43 39.217 21.787 26.145 8.715 61.004 17.43 82.791 61.004 0 0 0 4.357 0 4.357 4.357 43.574-21.787 69.719-39.217 87.149-17.43 13.072-26.145 26.145-30.502 43.574 0 17.43 8.715 26.145 21.787 39.217 21.787 17.43 47.932 43.574 39.217 95.864 0 0 0 4.357 0 4.357-17.43 43.574-52.289 47.932-78.434 56.647-21.787 4.357-34.86 8.715-47.932 21.787-8.715 13.072-4.357 26.145 0 47.932 8.715 26.145 17.43 61.004-13.072 100.221-8.715 8.715-21.787 8.715-30.502 4.357-8.715-8.715-8.715-21.787-4.357-30.502 17.43-21.787 13.072-34.86 4.357-61.004-8.715-21.787-13.072-52.289 4.357-82.791 21.787-30.502 52.289-34.86 74.077-43.574 21.787-4.357 39.217-8.715 47.932-26.145 4.357-26.145-8.715-34.86-26.145-52.289s-39.217-39.217-34.86-74.077c4.357-39.217 26.145-56.647 43.574-74.077s26.145-26.145 26.145-47.932c-8.715-21.787-26.145-26.145-47.932-34.86-21.787-4.357-52.289-13.072-69.719-47.932s-8.715-61.004 0-82.791c8.715-21.787 13.072-34.86 0-52.289-17.43-13.072-34.86-13.072-61.004-4.357-21.787 8.715-52.289 13.072-82.791-4.357-30.502-21.787-34.86-52.289-43.574-74.077-4.357-21.787-8.715-39.217-26.145-47.932-26.145-4.357-34.86 8.715-52.289 26.145s-39.217 39.217-74.077 34.86c-39.217-4.357-56.647-26.145-74.077-43.574s-26.145-26.145-47.932-26.145c-21.787 8.715-26.145 26.145-34.86 47.932-4.357 21.787-13.072 52.289-47.932 69.719s-61.004 8.715-82.791 0c-21.787-8.715-34.86-13.072-52.289 0-13.072 26.145-8.715 39.217-4.357 65.362 8.715 21.787 13.072 52.289-4.357 82.791-21.787 30.502-52.289 34.86-74.077 43.574-21.787 4.357-39.217 8.715-47.932 26.145-4.357 26.145 8.715 34.86 26.145 52.289s39.217 39.217 34.86 74.077c-4.357 39.217-26.145 56.647-43.574 74.077-13.072 17.43-21.787 30.502-21.787 47.932 8.715 21.787 26.145 26.145 47.932 34.86 21.787 4.357 52.289 13.072 69.719 47.932s8.715 61.004 0 82.791c-8.715 21.787-13.072 34.86 0 52.289 21.787 17.43 34.86 13.072 61.004 8.715 26.145-8.715 52.289-17.43 82.791 4.357s34.86 52.289 43.574 74.077c4.357 21.787 8.715 39.217 26.145 47.932 26.145 4.357 34.86-8.715 52.289-26.145s39.217-39.217 74.077-34.86c39.217 4.357 56.647 26.145 74.077 43.574 17.43 13.072 26.145 21.787 47.932 21.787 21.787-8.715 26.145-26.145 34.86-47.932 4.357-21.787 13.072-52.289 47.932-69.719 8.715-4.357 21.787 0 30.502 8.715 4.357 8.715 0 21.787-8.715 30.502-13.072 8.715-17.43 17.43-21.787 39.217-8.715 26.145-17.43 61.004-61.004 82.791 0 0-4.357 0-4.357 0-47.932 4.357-69.719-21.787-87.149-39.217-13.072-17.43-26.145-26.145-43.574-30.502-17.43 0-26.145 8.715-39.217 21.787-17.43 17.43-43.574 47.932-95.864 39.217 0 0-4.357 0-4.357 0-52.289-17.43-56.647-52.289-65.362-78.434-4.357-21.787-8.715-34.86-21.787-47.932-13.072-8.715-26.145-4.357-47.932 0-26.145 8.715-61.004 17.43-100.221-13.072-4.357 0-4.357-4.357-4.357-4.357-30.502-34.86-17.43-69.719-8.715-95.864 4.357-21.787 8.715-34.86 0-52.289-4.357-13.072-17.43-17.43-39.217-21.787-26.145-8.715-61.004-17.43-82.791-65.362 0 0 0-4.357 0-4.357-4.357-43.574 21.787-69.719 39.217-87.149 17.43-13.072 26.145-26.145 30.502-43.574 0-17.43-8.715-26.145-21.787-39.217-21.787-17.43-47.932-43.574-39.217-95.864 0 0 0-4.357 0-4.357 17.43-43.574 52.289-47.932 78.434-56.647 21.787-4.357 34.86-8.715 47.932-21.787 8.715-13.072 4.357-26.145 0-47.932-8.715-26.145-17.43-61.004 13.072-100.221 0 0 4.357-4.357 4.357-4.357 39.217-26.145 69.719-17.43 95.864-8.715 21.787 8.715 34.86 13.072 52.289 4.357 13.072-8.715 17.43-17.43 21.787-39.217 8.715-26.145 17.43-61.004 61.004-82.791 0 0 4.357 0 4.357 0 4.357 0 8.715 0 13.072 0 39.217-4.357 61.004 17.43 78.434 34.86z" />
<glyph unicode="&#xe92d;" glyph-name="easter" horiz-adv-x="1287" d="M1207.795 807.713c-131.282 131.282-367.59 84.021-540.882-15.754-73.518 99.774-162.79 168.041-267.815 168.041-15.754 0-89.272 0-126.031-36.759-10.503-10.503-10.503-26.256 0-36.759s26.256-10.503 36.759 0c15.754 15.754 63.015 21.005 89.272 21.005 89.272 0 168.041-63.015 231.056-152.287-26.256-15.754-57.764-15.754-78.769 5.251-15.754 15.754-31.508 21.005-52.513 21.005 0 0 0 0 0 0-21.005 0-42.010-10.503-52.513-21.005-26.256-26.256-68.267-26.256-89.272 0-15.754 15.754-31.508 21.005-52.513 21.005 0 0 0 0 0 0-21.005 0-42.010-10.503-52.513-21.005-26.256-21.005-57.764-21.005-84.021-5.251 10.503 15.754 21.005 31.508 31.508 42.010s10.503 26.256 0 36.759c-10.503 10.503-31.508 10.503-36.759 0-15.754-21.005-36.759-47.262-52.513-73.518-47.262-73.518-84.021-168.041-99.774-262.564-5.251-42.010-10.503-84.021-10.503-126.031 0-262.564 157.538-435.856 399.097-435.856 84.021 0 157.538 21.005 215.303 57.764 0 0 0 0 0 0 47.262-21.005 94.523-31.508 141.785-31.508 110.277 0 220.554 52.513 315.077 147.036 194.297 194.297 294.072 540.882 136.533 698.421zM1171.036 770.954c63.015-63.015 73.518-162.79 52.513-273.067-10.503 0-26.256 5.251-31.508 15.754-10.503 10.503-21.005 26.256-21.005 42.010 0 21.005-10.503 36.759-21.005 52.513-15.754 15.754-31.508 21.005-52.513 21.005-31.508 0-63.015 31.508-63.015 63.015 0 21.005-10.503 36.759-21.005 52.513-15.754 15.754-31.508 21.005-52.513 21.005-31.508 0-52.513 21.005-63.015 52.513 105.026 31.508 204.8 21.005 273.067-47.262zM141.785 707.938c42.010-26.256 105.026-21.005 147.036 15.754 5.251 5.251 10.503 5.251 15.754 5.251s10.503 0 15.754-5.251c42.010-42.010 120.779-42.010 162.79 0 5.251 5.251 10.503 5.251 15.754 5.251 0 0 0 0 0 0 5.251 0 10.503 0 15.754-5.251 21.005-21.005 52.513-31.508 84.021-31.508 21.005 0 42.010 5.251 63.015 21.005 31.508-68.267 57.764-147.036 73.518-220.554-36.759-36.759-99.774-36.759-136.533 0-15.754 15.754-42.010 26.256-68.267 26.256 0 0 0 0 0 0-26.256 0-47.262-10.503-68.267-26.256-31.508-36.759-94.523-36.759-131.282 0-15.754 15.754-42.010 26.256-63.015 26.256v0c-26.256 0-47.262-10.503-68.267-26.256-36.759-36.759-99.774-36.759-136.533 0 0 0 0 0 0 0 15.754 78.769 42.010 152.287 78.769 215.303zM52.513 371.856c0 21.005 0 42.010 5.251 63.015 57.764-31.508 131.282-26.256 178.544 21.005 5.251 5.251 15.754 10.503 31.508 10.503s21.005-5.251 31.508-10.503c57.764-57.764 152.287-57.764 210.051 0 5.251 5.251 15.754 10.503 31.508 10.503 0 0 0 0 0 0 10.503 0 21.005-5.251 31.508-10.503 26.256-26.256 63.015-42.010 105.026-42.010 26.256 0 52.513 5.251 73.518 21.005 0-21.005 5.251-42.010 5.251-63.015 0-42.010-5.251-84.021-15.754-120.779-5.251-5.251-5.251-10.503-10.503-15.754-36.759-26.256-89.272-26.256-126.031 10.503-15.754 15.754-42.010 26.256-68.267 26.256 0 0 0 0 0 0-26.256 0-47.262-10.503-68.267-26.256-36.759-36.759-99.774-36.759-136.533 0-15.754 15.754-42.010 26.256-68.267 26.256 0 0 0 0 0 0-26.256 0-47.262-10.503-68.267-26.256-36.759-36.759-94.523-36.759-131.282-5.251-5.251 42.010-10.503 84.021-10.503 131.282zM94.523 172.308c47.262-10.503 105.026 0 141.785 36.759 5.251 5.251 15.754 10.503 31.508 10.503 0 0 0 0 0 0 10.503 0 21.005-5.251 31.508-10.503 57.764-57.764 152.287-57.764 210.051 0 5.251 5.251 15.754 10.503 31.508 10.503 0 0 0 0 0 0 10.503 0 21.005-5.251 31.508-10.503 26.256-26.256 63.015-42.010 105.026-42.010 10.503 0 26.256 0 36.759 5.251-57.764-115.528-162.79-178.544-304.574-178.544-152.287-5.251-257.313 63.015-315.077 178.544zM666.913 35.774c47.262 42.010 84.021 99.774 105.026 162.79 0 0 5.251 0 5.251-5.251 10.503-10.503 10.503-21.005 10.503-31.508 0-42.010 15.754-78.769 42.010-105.026 10.503-10.503 21.005-15.754 26.256-21.005-57.764-21.005-126.031-21.005-189.046 0zM1034.503 151.303c-31.508-31.508-68.267-57.764-105.026-78.769-21.005 0-47.262 10.503-63.015 26.256s-26.256 42.010-26.256 68.267c0 26.256-10.503 47.262-26.256 68.267-10.503 10.503-21.005 15.754-31.508 21.005 10.503 36.759 10.503 78.769 10.503 126.031 0 131.282-42.010 267.815-105.026 378.092 47.262 26.256 99.774 47.262 152.287 63.015 10.503-52.513 57.764-94.523 115.528-94.523 5.251 0 10.503 0 15.754-5.251s5.251-10.503 5.251-15.754c0-63.015 52.513-115.528 115.528-115.528 5.251 0 10.503 0 15.754-5.251s5.251-10.503 5.251-15.754c0-31.508 10.503-57.764 31.508-84.021 15.754-15.754 36.759-26.256 57.764-31.508-26.256-115.528-89.272-225.805-168.041-304.574z" />
<glyph unicode="&#xe92e;" glyph-name="christmas" horiz-adv-x="680" d="M282.914 73.842h131.786v-137.842h-131.786v137.842zM679.736 73.842h-679.736l194.113 312.71h-90.169l235.924 380.117 235.924-380.117h-90.169l194.113-312.71zM342.31 960l30.87-62.62 69.165-10.062-50.018-48.65 11.821-68.872-61.839 32.531-61.741-32.531 11.821 68.872-50.018 48.65 69.068 10.062 30.87 62.62z" />
<glyph unicode="&#xe92f;" glyph-name="sumferei" horiz-adv-x="1078" d="M79.15 504.889c-49.469-59.362-79.15-138.512-79.15-222.609 0-192.928 153.353-346.28 346.28-346.28 64.309 0 123.671 19.787 173.14 49.469l49.469 34.628c29.681 24.734 59.362 59.362 79.15 93.99 24.734-4.947 54.415-4.947 84.097-4.947 123.671 0 232.502 34.628 291.865 84.097v-69.256c0-59.362-118.725-128.618-291.865-128.618-24.734 0-39.575 0-59.362 4.947l-29.681-49.469c29.681-4.947 59.362-4.947 89.043-4.947 192.928 0 346.28 79.15 346.28 178.087v148.406c0 4.947 0 9.894 0 14.841s0 9.894 0 14.841v133.565c0 4.947 0 9.894 0 14.841s0 9.894 0 14.841v133.565c0 4.947 0 9.894 0 14.841s0 9.894 0 14.841v138.512c0 4.947 0 9.894 0 14.841 0 98.937-153.353 178.087-346.28 178.087s-346.28-79.15-346.28-178.087c0-4.947 0-9.894 0-14.841v-138.512c0 0 0-4.947 0-4.947-14.841 0-24.734 0-39.575 0-64.309 0-153.353-24.734-202.821-64.309l34.628-39.575c49.469 34.628 108.831 54.415 173.14 54.415 14.841 0 29.681 0 39.575-4.947 4.947 0 4.947 0 9.894 0 0 0 0 0 4.947 0s9.894 0 14.841-4.947c-4.947 4.947 4.947 0 9.894 0 0 0 4.947 0 4.947 0s4.947 0 4.947 0 9.894-4.947 14.841-4.947 19.787-9.894 24.734-9.894c9.894-4.947 19.787-9.894 24.734-14.841 19.787-9.894 34.628-24.734 49.469-39.575 0 0 0 0 0 0 9.894-9.894 14.841-19.787 24.734-24.734 0 0 4.947-4.947 4.947-4.947s0 0 0 0 0 0 0 0c4.947-4.947 4.947-9.894 9.894-14.841 0 0 4.947-4.947 4.947-4.947 4.947-4.947 4.947-14.841 9.894-19.787 0 0 0-4.947 0-4.947 9.894-24.734 19.787-49.469 24.734-74.203 0 0 0-4.947 0-4.947 0-4.947 0-14.841 4.947-19.787 0 0 0-4.947 0-4.947s0-4.947 0-4.947 0-9.894 0-14.841c0 0 0 0 0 0s0-4.947 0-4.947c0 0 0 0 0-4.947 0-9.894 0-14.841 0-24.734-4.947-24.734-9.894-49.469-19.787-74.203 0 0 0-4.947 0-4.947-4.947-4.947-4.947-14.841-9.894-19.787 0 0 0-4.947 0-4.947-4.947-4.947-4.947-14.841-9.894-19.787 0 0 0 0 0-4.947-19.787-34.628-49.469-59.362-79.15-84.097-9.894-4.947-14.841-9.894-24.734-14.841s-19.787-9.894-24.734-14.841c-34.628-14.841-79.15-24.734-118.725-24.734-163.246 0-296.812 133.565-296.812 296.812-4.947 59.362 19.787 123.671 64.309 173.14zM1024 351.536v-59.362c0-4.947 0-9.894-4.947-14.841 0 0 0-4.947 0-4.947-4.947-4.947-4.947-14.841-9.894-19.787-39.575-49.469-143.459-89.043-277.024-89.043-19.787 0-39.575 0-59.362 4.947 0 0 0 4.947 0 4.947 9.894 24.734 14.841 54.415 19.787 79.15 0 9.894 0 14.841 0 24.734 14.841 0 24.734 0 39.575 0 19.787 0 39.575 0 54.415 0 49.469 4.947 89.043 14.841 128.618 24.734 34.628 9.894 59.362 24.734 84.097 39.575 9.894 0 14.841 4.947 24.734 9.894 0 4.947 0 4.947 0 4.947v-4.947zM1024 514.783v-59.362c0-4.947 0-9.894-4.947-14.841 0 0 0-4.947 0-4.947-4.947-4.947-4.947-14.841-9.894-19.787 0-4.947-4.947-4.947-4.947-9.894-4.947-4.947-14.841-9.894-19.787-14.841-9.894-4.947-14.841-9.894-24.734-14.841-54.415-29.681-128.618-49.469-222.609-49.469-14.841 0-29.681 0-39.575 0 0 0 0 4.947 0 4.947-4.947 29.681-9.894 54.415-19.787 84.097 0 0 0 0 0 4.947-4.947 9.894-4.947 14.841-9.894 19.787 0 0 0 0 0 0s0 4.947 0 4.947c9.894 0 14.841 0 24.734 0 19.787 0 34.628 0 54.415 0s34.628 0 54.415 0c29.681 0 59.362 4.947 84.097 14.841 9.894 0 19.787 4.947 34.628 9.894 34.628 9.894 69.256 24.734 93.99 39.575-9.894-4.947 0 4.947 9.894 4.947-4.947 4.947 0 4.947 0 9.894v-9.894zM1024 678.029v-54.415c0-4.947 0-14.841-4.947-19.787-4.947-9.894-9.894-14.841-14.841-24.734 0 0-4.947-4.947-4.947-4.947-4.947-4.947-14.841-9.894-19.787-14.841-9.894-4.947-14.841-9.894-24.734-14.841-54.415-24.734-128.618-44.522-217.662-44.522-44.522 0-84.097 4.947-118.725 9.894-14.841 19.787-34.628 39.575-54.415 54.415-14.841-4.947-19.787 0-29.681 9.894 0 0 0 0 0 0-9.894 4.947-14.841 9.894-24.734 14.841-4.947 4.947-14.841 4.947-19.787 9.894-19.787 4.947-34.628 9.894-49.469 14.841 0 0 0 4.947 0 4.947v69.256c0 0 4.947-4.947 4.947-4.947 4.947-4.947 14.841-9.894 19.787-14.841 29.681-19.787 69.256-34.628 113.778-44.522 9.894 0 14.841-4.947 24.734-4.947 39.575-9.894 84.097-9.894 128.618-9.894s89.043 4.947 128.618 9.894c9.894 0 14.841 4.947 24.734 4.947 44.522 9.894 84.097 24.734 113.778 44.522 9.894 4.947 14.841 9.894 19.787 14.841 4.947 0 4.947 4.947 4.947 4.947v-9.894zM1024 767.072c-4.947-9.894-9.894-14.841-14.841-24.734-4.947-4.947-4.947-4.947-9.894-9.894-9.894-9.894-19.787-14.841-24.734-19.787-9.894-4.947-14.841-9.894-24.734-14.841-54.415-24.734-128.618-44.522-217.662-44.522s-163.246 19.787-217.662 44.522c-9.894 4.947-19.787 9.894-24.734 14.841-9.894 4.947-14.841 9.894-24.734 19.787-4.947 0-4.947 4.947-9.894 9.894s-9.894 14.841-14.841 24.734c0 4.947-4.947 9.894-4.947 14.841s0 4.947 0 9.894c14.841 59.362 128.618 118.725 296.812 118.725 163.246 0 281.971-59.362 291.865-118.725 0-4.947 0-4.947 0-9.894s0-9.894 0-14.841zM445.217 445.527c14.841-4.947 24.734-9.894 34.628-9.894v-4.947l-4.947-24.734v-4.947l-4.947-9.894c-4.947 0-4.947 4.947-9.894 4.947s-9.894 4.947-14.841 4.947c-4.947 0-4.947 0-9.894 0 0 0 0 0 0 0-4.947 0-9.894 0-14.841 4.947-4.947 0-9.894 0-14.841 0 0 0 0 0 0 0-4.947 0-4.947 0-9.894 0 0 0 0 0 0 0-49.469 0-84.097-24.734-103.884-64.309h98.937c0 0 0 0 0 0 4.947 0 4.947 0 9.894-4.947 9.894-4.947 14.841-9.894 14.841-19.787 0-4.947-4.947-9.894-4.947-14.841-4.947-4.947-9.894-9.894-14.841-9.894 0 0 0 0 0 0v0h-113.778c0-4.947 0-9.894 0-9.894 0-9.894 0-14.841 0-24.734h113.778c0 0 0 0 0 0 4.947 0 4.947 0 9.894 0v0c9.894-4.947 14.841-9.894 14.841-24.734 0 0 0 0 0-4.947 0 0 0 0 0 0 0-9.894-9.894-19.787-24.734-19.787 0 0 0 0 0 0h-93.99c19.787-29.681 54.415-49.469 93.99-49.469 0 0 0 0 0 0 9.894 0 14.841 0 24.734 0s14.841 4.947 24.734 4.947c9.894 4.947 14.841 4.947 24.734 9.894l9.894-44.522c-9.894-4.947-19.787-4.947-34.628-9.894-4.947 0-14.841-4.947-24.734-4.947s-14.841 0-24.734-4.947c-4.947 0-9.894 0-14.841 0-74.203 0-128.618 34.628-148.406 93.99h-59.362c-9.894 4.947-24.734 14.841-24.734 29.681s9.894 24.734 24.734 24.734h49.469c0 4.947 0 14.841 0 24.734 0 4.947 0 9.894 0 14.841h-49.469c-9.894-4.947-24.734 4.947-24.734 19.787s9.894 24.734 24.734 24.734h54.415c24.734 64.309 84.097 108.831 163.246 108.831 0 0 0 0 0 0s0 0 0 0c9.894 0 14.841 0 19.787 0 0 0 0 0 0 0 14.841 0 24.734 0 34.628-4.947 0 0 0 0 0 0z" />
<glyph unicode="&#xe930;" glyph-name="grafeio" horiz-adv-x="1199" d="M1146.182 418.909c-5.818 0-5.818 5.818-11.636 5.818h-436.364v40.727c0 17.455-11.636 29.091-29.091 29.091h-145.455c-11.636 0-23.273-11.636-23.273-29.091v-52.364c-5.818 5.818-11.636 5.818-17.455 5.818h-430.545v261.818c0 17.455 11.636 29.091 29.091 29.091h1029.818c17.455 0 29.091-11.636 29.091-29.091h52.364c0 46.545-40.727 87.273-87.273 87.273h-279.273v104.727c0 46.545-40.727 87.273-87.273 87.273h-290.909c-46.545 0-87.273-40.727-87.273-87.273v-110.545h-273.455c-46.545 5.818-87.273-34.909-87.273-81.455v-657.455c0-46.545 40.727-87.273 87.273-87.273h1029.818c46.545 0 87.273 40.727 87.273 87.273v541.091h-52.364v-145.455zM413.091 872.727c0 17.455 11.636 29.091 29.091 29.091h308.364c17.455 0 29.091-11.636 29.091-29.091v-110.545h-366.545v110.545zM552.727 442.182h93.091v-162.909h-93.091v162.909zM1111.273-11.636h-1024c-17.455 0-29.091 11.636-29.091 29.091v349.091h430.545c5.818 0 11.636 0 17.455 5.818v-122.182c0-17.455 11.636-29.091 29.091-29.091h145.455c17.455 0 29.091 11.636 29.091 29.091v116.364h430.545c5.818 0 11.636 0 11.636 5.818v-349.091c-5.818-17.455-23.273-34.909-40.727-34.909z" />
<glyph unicode="&#xe931;" glyph-name="arrow-in" horiz-adv-x="1788" d="M1787.646 680.727l-140.838-744.727-711.695 272.967 306.299 165.462c-198.794 273.267-496.685 438.728-819.2 430.621-149.246 0-298.191-41.44-422.212-115.913 281.375 281.375 728.211 355.848 1100.575 165.462 157.354-82.881 289.783-206.902 372.364-355.848l314.707 181.978z" />
<glyph unicode="&#xe932;" glyph-name="arrow-out" horiz-adv-x="860" d="M465.505 960l394.647-254.047-322.301-344.991-23.619 214.248c-202.903-50.4-367.308-182.817-437.794-369.912-34.778-85.55-45.565-180.586-31.802-269.112-95.965 227.080-34.592 500.841 161.43 670.268 84.062 71.044 186.165 118.097 290.871 130.929l-31.43 222.617z" />
<glyph unicode="&#xe933;" glyph-name="lightMeals" horiz-adv-x="353" d="M330.152 705.766c-10.593 10.593-24.717 19.421-38.841 26.483l22.952 132.414c1.766 10.593 0 19.421-7.062 28.248-5.297 8.828-14.124 14.124-24.717 15.89l-40.607 7.062c-7.062 1.766-12.359 0-19.421-1.766v8.828c0 21.186-17.655 38.841-38.841 38.841h-37.076c-21.186-1.766-38.841-19.421-38.841-40.607v-40.607c-7.062 3.531-14.124 5.297-21.186 3.531l-40.607-8.828c-8.828-1.766-17.655-8.828-22.952-15.89-5.297-8.828-8.828-19.421-5.297-30.014l14.124-70.621c1.766-7.062 7.062-10.593 14.124-10.593 1.766 0 1.766 0 3.531 0 7.062 1.766 12.359 8.828 10.593 15.89l-15.89 72.386c-1.766 5.297 1.766 10.593 8.828 12.359l40.607 8.828c3.531 0 5.297 0 7.062-1.766s3.531-5.297 3.531-7.062l12.359-58.262c1.766-7.062 8.828-12.359 15.89-10.593 8.828 1.766 14.124 8.828 12.359 15.89l-10.593 44.138c0 1.766 0 1.766 0 3.531v77.683c0 5.297 5.297 10.593 10.593 10.593h40.607c5.297 0 10.593-5.297 10.593-8.828l-7.062-88.276-12.359-77.683h-10.593c-10.593 0-98.869-3.531-143.007-49.434-17.655-17.655-24.717-38.841-24.717-63.559 0 0 0-10.593 1.766-28.248l5.297-54.731c1.766-15.89 3.531-33.545 7.062-52.966l7.062-51.2c3.531-19.421 7.062-40.607 10.593-63.559l8.828-52.966c8.828-47.669 19.421-93.572 28.248-137.71l17.655-54.731c19.421-72.386 42.372-137.71 67.090-195.972 1.766-3.531 10.593-14.124 22.952-15.89 0 0 1.766 0 1.766 0s1.766 0 1.766 0c7.062 1.766 12.359 3.531 17.655 8.828 1.766 1.766 3.531 5.297 7.062 8.828 35.31 82.979 67.090 187.145 93.572 307.2l10.593 54.731c0 0 0 0 0 0 7.062 40.607 14.124 79.448 19.421 116.524l8.828 51.2c14.124 95.338 17.655 160.662 17.655 160.662 1.766 24.717-7.062 44.138-22.952 61.793zM225.986 880.552c0 3.531 1.766 5.297 3.531 7.062s5.297 1.766 7.062 1.766l40.607-7.062c3.531 0 5.297-1.766 7.062-3.531s1.766-5.297 1.766-7.062l-21.186-128.883c-22.952 7.062-45.903 10.593-60.028 12.359l21.186 125.352zM307.2 488.607l-7.062-51.2c-14.124-3.531-35.31-5.297-63.559-5.297-5.297 0-10.593 0-17.655 0 0 0-1.766 0-1.766 0-12.359 0-21.186-5.297-22.952-10.593-1.766-7.062 8.828-12.359 21.186-12.359 7.062 0 14.124 0 21.186 0 22.952 0 42.372 1.766 58.262 3.531-3.531-24.717-8.828-51.2-14.124-77.683-8.828-1.766-21.186-3.531-37.076-3.531-3.531 0-7.062 0-10.593 0 0 0-1.766 0-1.766 0-12.359 0-21.186-5.297-22.952-10.593 0-7.062 8.828-14.124 21.186-14.124 5.297 0 8.828 0 14.124 0 12.359 0 22.952 0 33.545 1.766l-8.828-40.607c-24.717-118.29-56.497-218.924-93.572-301.903-22.952 54.731-44.138 118.29-63.559 190.676l-14.124 54.731c-1.766 8.828-3.531 15.89-5.297 24.717 8.828-1.766 19.421-1.766 30.014-1.766 5.297 0 8.828 0 14.124 0s10.593 1.766 14.124 3.531c5.297 1.766 7.062 5.297 7.062 8.828-1.766 5.297-10.593 10.593-22.952 10.593 0 0-1.766 0-1.766 0-3.531 0-7.062 0-10.593 0-15.89 0-28.248 1.766-37.076 3.531-5.297 28.248-12.359 56.497-17.655 84.745l-3.531 17.655c17.655-3.531 40.607-5.297 68.855-5.297 7.062 0 14.124 0 21.186 0 5.297 0 10.593 1.766 14.124 3.531 5.297 1.766 7.062 5.297 7.062 8.828-1.766 5.297-10.593 10.593-22.952 10.593 0 0-1.766 0-1.766 0-7.062 0-12.359 0-17.655 0-33.545 0-56.497 3.531-72.386 7.062l-1.766 10.593c-3.531 21.186-7.062 42.372-10.593 61.793l-3.531 24.717c12.359-1.766 22.952-1.766 35.31-1.766 5.297 0 8.828 0 14.124 0s10.593 1.766 14.124 3.531c5.297 1.766 7.062 5.297 7.062 8.828-1.766 5.297-10.593 10.593-22.952 10.593 0 0-1.766 0-1.766 0-3.531 0-7.062 0-10.593 0-15.89 0-26.483 1.766-35.31 3.531v1.766c-1.766 19.421-5.297 37.076-7.062 52.966v7.062c19.421-3.531 45.903-7.062 79.448-7.062 7.062 0 14.124 0 22.952 0 5.297 0 10.593 1.766 14.124 3.531 1.766 0 5.297 3.531 3.531 7.062-1.766 5.297-10.593 10.593-22.952 10.593 0 0-1.766 0-1.766 0-7.062 0-12.359 0-17.655 0-40.607 0-68.855 5.297-81.214 10.593l-1.766 22.952c-1.766 17.655-1.766 26.483-1.766 28.248 0 17.655 3.531 31.779 15.89 42.372 30.014 30.014 93.572 38.841 123.586 40.607h17.655c1.766 0 88.276-1.766 125.352-42.372 10.593-10.593 15.89-24.717 14.124-40.607-1.766-1.766-7.062-65.324-19.421-158.897z" />
<glyph unicode="&#xe934;" glyph-name="plus1" horiz-adv-x="1170" d="M239.377-24.104c0-10.639-2.66-21.278-10.639-29.257s-15.958-10.639-29.257-10.639c-10.639 0-21.278 2.66-29.257 10.639s-10.639 15.958-10.639 29.257v885.694l-103.73-31.917c-5.319-2.66-10.639-2.66-15.958-2.66-10.639 0-21.278 2.66-29.257 10.639s-10.639 15.958-10.639 29.257c0 10.639 2.66 21.278 10.639 29.257 2.66 2.66 7.979 5.319 13.299 7.979l159.584 53.195c5.319 2.66 10.639 2.66 15.958 2.66 10.639 0 21.278-2.66 29.257-10.639s10.639-15.958 10.639-29.257v-944.208zM611.74 709.984c0 10.639 2.66 21.278 10.639 29.257s15.958 10.639 29.257 10.639c10.639 0 21.278-2.66 29.257-10.639s10.639-15.958 10.639-29.257v-226.078h223.418c10.639 0 21.278-2.66 29.257-10.639s10.639-15.958 10.639-29.257c0-10.639-2.66-21.278-10.639-29.257s-15.958-10.639-29.257-10.639h-223.418v-226.078c0-10.639-2.66-21.278-10.639-29.257s-18.618-10.639-29.257-10.639c-10.639 0-21.278 2.66-29.257 10.639s-10.639 15.958-10.639 29.257v226.078h-223.418c-10.639 0-21.278 2.66-29.257 10.639s-10.639 15.958-10.639 29.257c0 10.639 2.66 21.278 10.639 29.257s18.618 10.639 29.257 10.639h223.418v226.078zM1170.286-24.104c0-10.639-2.66-21.278-10.639-29.257s-15.958-10.639-29.257-10.639-21.278 2.66-29.257 10.639-10.639 15.958-10.639 29.257v885.694l-103.73-31.917c-5.319-2.66-10.639-2.66-15.958-2.66-10.639 0-21.278 2.66-29.257 10.639s-10.639 15.958-10.639 29.257c0 10.639 2.66 21.278 10.639 29.257 2.66 2.66 7.979 5.319 13.299 7.979l159.584 53.195c5.319 2.66 10.639 2.66 15.958 2.66 10.639 0 21.278-2.66 29.257-10.639s10.639-15.958 10.639-29.257v-944.208z" />
<glyph unicode="&#xe935;" glyph-name="retailPackages" horiz-adv-x="991" d="M491.679 900.148l-396.515-158.606c-2.974-1.983-5.948-5.948-5.948-9.913v-535.295c0-3.965 2.974-7.93 5.948-8.922l396.515-158.606c1.983-0.991 4.956-0.991 7.93 0l396.515 158.606c3.965 0.991 5.948 4.956 5.948 8.922v535.295c0 3.965-2.974 7.93-5.948 8.922l-396.515 158.606c-3.965 1.983-6.939 0.991-7.93 0.991zM495.644 880.322l369.75-147.702-171.493-69.39-369.75 147.702 171.493 69.39zM297.386 801.019l369.75-147.702-171.493-69.39-369.75 147.702 171.493 69.39zM109.042 717.751l376.689-150.676v-513.487l-376.689 150.676v513.487zM882.246 717.751v-513.487l-178.432-71.373v143.737c0 5.948-5.948 10.904-10.904 9.913s-8.922-4.956-8.922-9.913v-148.693c0-0.991 0-1.983 0-2.974l-178.432-71.373v513.487l178.432 71.373v-143.737c0-4.956 4.956-9.913 9.913-9.913s9.913 4.956 9.913 9.913v148.693c0 0.991 0 1.983 0 2.974l178.432 71.373z" />
<glyph unicode="&#xe936;" glyph-name="apple" horiz-adv-x="894" d="M754.281 578.189c-30.358 45.537-78.23 75.895-131.941 86.404-11.676 2.335-24.52 3.503-37.364 2.335-29.19 0-58.381-5.838-84.068-17.514-4.67-2.335-7.006-8.173-4.67-12.844s8.173-7.006 12.844-4.67c24.52 10.509 50.208 16.347 77.063 16.347 11.676 0 22.185 0 32.693-2.335 49.040-9.341 92.242-37.364 120.265-78.23s39.699-91.074 29.19-140.114c-16.347-91.074-110.924-277.893-198.495-339.777-21.017-15.179-39.699-19.849-56.046-17.514-2.335 0-4.67 0-5.838 1.168-38.531 12.844-80.566 12.844-119.097 1.168-1.168 0-3.503 0-4.67-1.168l-3.503-1.168c-40.867-5.838-98.080 40.867-154.125 128.438-54.878 84.068-93.409 179.813-102.75 231.188-8.173 49.040 2.335 99.247 31.526 138.946 28.023 40.867 71.225 70.057 120.265 79.398 37.364 7.006 75.895 2.335 110.924-14.011 17.514-9.341 37.364-14.011 56.046-14.011 3.503 0 5.838 1.168 8.173 3.503 1.168 1.168 1.168 2.335 2.335 4.67-1.168 39.699-9.341 78.23-25.688 114.426 18.682-7.006 38.531-10.509 59.548-9.341 29.19 0 57.213 7.006 84.068 19.849s46.705 36.196 56.046 64.219c1.168 3.503 0 5.838-2.335 8.173-19.849 12.844-38.531 16.347-65.387 17.514-30.358-1.168-58.381-9.341-84.068-25.688-22.185-11.676-40.867-28.023-56.046-47.872-11.676 24.52-24.52 47.872-38.531 70.057-2.335 1.168-4.67 2.335-8.173 2.335s-7.006-2.335-7.006-7.006c0 0 0-1.168 0-1.168 0-1.168 1.168-2.335 2.335-3.503 39.699-59.548 64.219-112.091 70.057-189.154-14.011 1.168-28.023 4.67-40.867 10.509-38.531 17.514-80.566 23.352-122.6 15.179-53.71-10.509-101.583-40.867-131.941-86.404-31.526-44.369-44.369-99.247-33.861-152.958 10.509-52.543 50.208-151.79 106.253-238.194 60.716-93.409 121.432-142.449 170.472-134.276 2.335 0 3.503 0 5.838 1.168l5.838 1.168c33.861 11.676 71.225 11.676 106.253 0 3.503-1.168 8.173-2.335 11.676-2.335 3.503-1.168 7.006-1.168 10.509-1.168 21.017 1.168 42.034 9.341 58.381 22.185 91.074 63.051 189.154 258.043 206.668 351.453 5.838 53.71-5.838 107.421-36.196 150.623zM478.723 801.204c23.352 14.011 49.040 21.017 75.895 22.185 17.514 1.168 36.196-3.503 52.543-11.676-8.173-21.017-24.52-38.531-44.369-47.872-23.352-11.676-50.208-17.514-75.895-17.514-19.849 0-38.531 4.67-56.046 10.509 11.676 18.682 28.023 33.861 47.872 44.369v0z" />
<glyph unicode="&#xe937;" glyph-name="bin" horiz-adv-x="789" d="M728.759 851.62h-171.912v44.847c0 33.635-29.898 63.533-63.533 63.533h-201.81c-33.635 0-59.796-29.898-59.796-63.533v-44.847h-171.912c-33.635 0-59.796-26.161-59.796-59.796v-85.956h788.555v85.956c0 33.635-26.161 59.796-59.796 59.796zM497.051 851.62h-205.547v44.847c0 0 0 0 0 0h201.81c0 0 0 0 0 0v-44.847zM85.956-4.204c0-33.635 26.161-59.796 59.796-59.796h497.051c33.635 0 59.796 26.161 59.796 59.796l37.372 668.964h-691.387l37.372-668.964zM545.635 560.117c0 14.949 11.212 26.161 26.161 26.161s26.161-11.212 26.161-26.161l-22.423-489.577c0-14.949-11.212-26.161-26.161-26.161 0 0 0 0 0 0-14.949 0-26.161 11.212-26.161 26.161l22.423 489.577zM366.248 556.38c0 14.949 11.212 26.161 26.161 26.161s26.161-11.212 26.161-26.161v-489.577c0-14.949-11.212-26.161-26.161-26.161s-26.161 11.212-26.161 26.161v489.577zM213.022 582.54c14.949 0 26.161-11.212 26.161-26.161l22.423-485.839c0-14.949-11.212-26.161-26.161-26.161 0 0 0 0 0 0-14.949 0-26.161 11.212-26.161 26.161l-22.423 485.839c0 14.949 11.212 26.161 26.161 26.161z" />
<glyph unicode="&#xe938;" glyph-name="glutenfree" horiz-adv-x="991" d="M507.539 909.444c-251.787 0-456.984-205.197-456.984-456.984s205.197-456.984 456.984-456.984 456.984 205.197 456.984 456.984-205.197 456.984-456.984 456.984zM507.539 13.32c-241.874 0-439.14 197.266-439.14 439.14s197.266 439.14 439.14 439.14c241.874 0 439.14-197.266 439.14-439.14s-197.266-439.14-439.14-439.14zM753.379 785.533l-66.416-78.312c-38.66 0.991-72.364-6.939-99.129-20.817 7.93 17.843 11.895 36.678 11.895 55.512-1.983 81.286-82.277 137.789-85.251 139.772s-7.93 1.983-10.904 0c-49.564-38.66-74.347-82.277-75.338-129.859-0.991-26.765 6.939-51.547 16.852-73.355-63.442 37.669-144.728 23.791-148.693 22.8s-6.939-3.965-7.93-7.93c-2.974-57.495 11.895-103.094 44.608-135.806 6.939-6.939 13.878-12.887 21.808-17.843-31.721 1.983-56.503-1.983-58.486-1.983-3.965-0.991-6.939-3.965-7.93-7.93-2.974-57.495 11.895-103.094 44.608-135.806 6.939-6.939 14.869-12.887 22.8-18.834-32.712 1.983-57.495-1.983-59.477-1.983-3.965-0.991-6.939-3.965-7.93-7.93-1.983-40.643 4.956-76.329 20.817-105.076l-91.198-108.050c-2.974-3.965-2.974-9.913 0.991-12.887s9.913-2.974 12.887 0.991l88.225 104.085c3.965-4.956 8.922-9.913 12.887-14.869 52.538-52.538 134.815-55.512 163.562-55.512v-136.798c0-4.956 3.965-8.922 8.922-8.922s8.922 3.965 8.922 8.922v137.789c71.373-7.93 125.894 4.956 162.571 40.643 58.486 55.512 49.564 144.728 49.564 147.702 0 3.965-3.965 7.93-7.93 7.93-16.852 1.983-32.712 2.974-48.573 2.974 1.983 1.983 4.956 3.965 6.939 5.948 58.486 55.512 49.564 144.728 49.564 147.702 0 3.965-3.965 7.93-7.93 7.93-18.834 2.974-37.669 2.974-54.521 1.983 3.965 2.974 6.939 6.939 9.913 9.913 54.521 59.477 39.652 146.711 38.66 150.676 0 2.974-1.983 4.956-3.965 5.948l57.495 68.399c2.974 3.965 2.974 9.913-0.991 12.887s-8.922 3.965-11.895 0zM672.093 688.387l-147.702-173.475c-2.974 0-6.939 0-9.913 0 0 5.948 0.991 11.895 0.991 16.852 2.974 29.739 12.887 78.312 47.582 113.998 26.765 26.765 63.442 40.643 109.042 42.625zM533.313 497.069c9.913 0 18.834 0 27.756 0.991-21.808-19.826-36.678-42.625-46.591-65.425v42.625l18.834 21.808zM345.959 406.862c-27.756 27.756-41.634 66.416-39.652 113.998 23.791 2.974 100.12 6.939 148.693-36.678 8.922-7.93 15.861-16.852 21.808-26.765l-31.721-37.669-20.817 20.817c-3.965 3.965-8.922 3.965-12.887 0s-3.965-8.922 0-12.887l21.808-21.808-29.739-34.695c-20.817 7.93-40.643 18.834-57.495 35.686zM446.079 392.984l36.678-36.678c-15.861 0.991-36.678 2.974-59.477 8.922l22.8 27.756zM306.308 356.306c13.878 1.983 46.591 3.965 81.286-3.965l-65.425-77.32c-11.895 22.8-16.852 49.564-15.861 81.286zM496.635 202.656l-72.364 72.364c-3.965 3.965-8.922 3.965-12.887 0s-3.965-8.922 0-12.887l70.381-70.381c-33.704 1.983-95.164 9.913-135.806 50.556-4.956 4.956-9.913 10.904-13.878 16.852l74.347 88.225c16.852-5.948 33.704-14.869 47.582-27.756 24.782-22.8 38.66-54.521 41.634-95.164v-21.808zM496.635 293.855c-7.93 14.869-17.843 27.756-29.739 39.652-2.974 2.974-5.948 4.956-8.922 6.939 16.852-1.983 29.739-1.983 38.66-1.983v-44.608zM496.635 367.21l-38.66 39.652 27.756 32.712c5.948-14.869 9.913-31.721 11.895-50.556v-21.808zM496.635 481.208l-7.93-9.913c-5.948 8.922-13.878 17.843-21.808 25.773-2.974 2.974-5.948 4.956-8.922 6.939 15.861-1.983 29.739-1.983 38.66-1.983v-20.817zM496.635 531.764l-72.364 72.364c-3.965 3.965-8.922 3.965-12.887 0s-3.965-8.922 0-12.887l70.381-70.381c-33.704 0.991-95.164 9.913-135.806 49.564-27.756 27.756-41.634 65.425-39.652 113.998 23.791 2.974 100.12 6.939 148.693-36.678 24.782-21.808 38.66-53.53 41.634-94.172v-21.808zM505.557 735.969c-4.956 0-8.922-3.965-8.922-8.922v-94.172c-20.817 23.791-52.538 67.408-51.547 117.963 0.991 39.652 21.808 77.32 63.442 111.024 16.852-13.878 71.373-60.469 72.364-120.937 0.991-40.643-21.808-79.303-66.416-115.981v102.103c0 4.956-3.965 8.922-8.922 8.922zM514.478 339.454c17.843-1.983 34.695-2.974 50.556-1.983-0.991-0.991-2.974-1.983-3.965-2.974-22.8-19.826-36.678-43.617-46.591-66.416v71.373zM708.771 354.323c0.991-20.817-0.991-84.259-44.608-125.894-32.712-31.721-83.268-43.617-149.684-35.686 0 0.991 0 0.991 0 1.983 1.983 23.791 12.887 86.242 58.486 125.894 11.895 9.913 24.782 17.843 39.652 23.791 5.948 1.983 10.904 2.974 15.861 4.956 23.791 5.948 50.556 7.93 80.294 4.956zM708.771 518.877c0.991-20.817-0.991-84.259-44.608-125.894-11.895-10.904-25.773-19.826-41.634-25.773-5.948-1.983-10.904-2.974-15.861-4.956-25.773-6.939-56.503-8.922-92.19-3.965 0 0.991 0 0.991 0 1.983 1.983 23.791 12.887 86.242 57.495 125.894 10.904 9.913 23.791 16.852 37.669 22.8 3.965 0.991 7.93 2.974 11.895 3.965 25.773 6.939 54.521 8.922 87.233 5.948zM661.189 560.511c-11.895-13.878-27.756-23.791-45.599-31.721-3.965-0.991-7.93-2.974-11.895-3.965-16.852-4.956-34.695-8.922-55.512-8.922l146.711 173.475c0 0 0.991 0 0.991 0 2.974-21.808 4.956-85.251-34.695-128.867z" />
<glyph unicode="&#xe939;" glyph-name="Seat" d="M493.568 806.4c75.776-71.68 4.096-155.648 0-159.744l26.624-22.528c57.344 53.248 57.344 147.456 4.096 200.704 0 0 0 0-4.096 4.096-18.432 14.336-30.72 34.816-30.72 57.344 4.096 18.432 14.336 34.816 26.624 45.056l-18.432 26.624c-22.528-18.432-40.96-40.96-45.056-67.584 2.048-34.816 14.336-65.536 40.96-83.968zM364.544 726.528c30.72-30.72 30.72-79.872 0-110.592l26.624-22.528c45.056 45.056 45.056 116.736 4.096 159.744 0 0 0 0-4.096 4.096-12.288 4.096-22.528 18.432-22.528 34.816 4.096 14.336 8.192 22.528 18.432 30.72l-18.432 28.672c-18.432-14.336-30.72-34.816-34.816-57.344 0-28.672 8.192-55.296 30.72-67.584zM905.216 480.768c-18.432 0-34.816 0-49.152 0 0-8.192 0-22.528-4.096-34.816 18.432 0 34.816 4.096 49.152 0 40.96 0 71.68-26.624 75.776-67.584 0-22.528-53.248-67.584-174.080-106.496-4.096-14.336-14.336-30.72-22.528-45.056 139.264 40.96 235.52 102.4 235.52 151.552-4.096 57.344-53.248 102.4-110.592 102.4zM247.808 110.080h382.976c40.96 26.624 71.68 63.488 98.304 102.4 8.192 14.336 18.432 30.72 26.624 45.056 26.624 57.344 49.152 120.832 57.344 182.272 0 14.336 4.096 22.528 4.096 34.816 0 22.528 4.096 40.96 4.096 49.152l-763.904 6.144c12.288-272.384 129.024-378.88 190.464-419.84zM8.192 75.264c0-4.096 83.968-139.264 178.176-139.264h530.432c94.208 0 178.176 129.024 178.176 133.12l-290.816 4.096h-595.968z" />
<glyph unicode="&#xe93a;" glyph-name="Seeds" d="M129.024 837.12c8.192-98.304 16.384-235.52 16.384-389.12s-8.192-290.816-16.384-389.12h772.096c-8.192 102.4-16.384 239.616-16.384 389.12s2.048 290.816 16.384 389.12c0 0-772.096 0-772.096 0zM362.496 290.304c-8.192 0-8.192 0-8.192 4.096-16.384 16.384-30.72 34.816-43.008 51.2-30.72 47.104-47.104 102.4-47.104 157.696s12.288 110.592 38.912 157.696c12.288 20.48 30.72 38.912 47.104 51.2h8.192c16.384-12.288 34.816-30.72 47.104-51.2 30.72-47.104 47.104-102.4 47.104-161.792 0-55.296-12.288-114.688-47.104-161.792-12.288-16.384-26.624-34.816-43.008-47.104zM768 511.488c0-20.48-4.096-47.104-16.384-67.584-20.48-51.2-59.392-98.304-106.496-133.12s-102.4-55.296-157.696-55.296h-8.192c-12.288 0-24.576 0-38.912 4.096h-4.096c-4.096 0-8.192 4.096-12.288 4.096h-4.096c0 0-4.096 0-4.096 4.096v4.096c4.096 20.48 8.192 47.104 20.48 67.584 43.008 106.496 145.408 174.080 260.096 184.32 20.48 0 47.104 0 67.584-4.096h4.096c0-4.096 0-4.096 0-8.192zM835.584 912.896l-79.872 47.104-81.92-47.104-79.872 47.104-81.92-47.104-81.92 47.104-79.872-47.104-81.92 47.104-79.872-47.104-65.536 38.912v-98.304h778.24v98.304zM122.88-55.808l65.536 38.912 79.872-47.104 81.92 47.104 79.872-47.104 81.92 47.104 81.92-47.104 79.872 47.104 81.92-47.104 79.872 47.104 65.536-38.912v98.304h-778.24zM393.216 652.8c-8.192 16.384-20.48 30.72-34.816 43.008-30.72-51.2-43.008-106.496-47.104-165.888 0-4.096-4.096-8.192-8.192-8.192s-8.192 4.096-8.192 8.192c0 38.912 12.288 75.776 20.48 118.784-51.2-86.016-51.2-200.704 0-286.72-8.192 30.72-16.384 55.296-20.48 86.016v4.096l4.096 4.096c4.096 0 8.192-4.096 8.192-8.192 4.096-51.2 20.48-98.304 43.008-145.408 12.288 12.288 26.624 26.624 34.816 43.008 30.72 47.104 43.008 98.304 43.008 153.6 2.048 55.296-10.24 106.496-34.816 153.6zM354.304 392.704l-4.096-4.096c-4.096 0-8.192 4.096-8.192 8.192-16.384 71.68-16.384 145.408-4.096 217.088 0 0 4.096 4.096 8.192 4.096s8.192-4.096 4.096-8.192c-4.096-16.384-4.096-38.912-4.096-55.296 0-51.2 0-106.496 8.192-161.792v0zM319.488 353.792c0 4.096-4.096 4.096-4.096 8.192 0-4.096 4.096-8.192 4.096-8.192v0zM319.488 656.896c0-4.096 0-8.192-4.096-8.192 0 0 0 4.096 4.096 4.096v4.096zM579.584 443.904c-4.096 0-4.096 0-8.192 4.096s0 8.192 4.096 12.288c38.912 24.576 77.824 43.008 118.784 51.2h-4.096c-106.496-8.192-200.704-71.68-243.712-174.080v-4.096c20.48 30.72 43.008 55.296 67.584 75.776 4.096 4.096 8.192 4.096 12.288 0s4.096-8.192 0-12.288c-38.912-34.816-71.68-75.776-94.208-118.784 12.288-4.096 30.72-4.096 43.008-4.096h8.192c55.296 4.096 106.496 20.48 149.504 55.296 43.008 30.72 81.92 71.68 102.4 118.784 8.192 16.384 12.288 34.816 12.288 51.2-59.392-4.096-114.688-24.576-165.888-55.296h-2.048zM686.080 468.48c-4.096-4.096-4.096-8.192-4.096-8.192 0-4.096-4.096-4.096-4.096-4.096-16.384-8.192-30.72-16.384-47.104-26.624-43.008-30.72-86.016-59.392-122.88-98.304l-4.096-4.096c-4.096 0-4.096 0-4.096 4.096-4.096 4.096-4.096 8.192 0 12.288 51.2 55.296 110.592 98.304 174.080 126.976 4.096 4.096 8.192 4.096 12.288-2.048z" />
<glyph unicode="&#xe93b;" glyph-name="label" horiz-adv-x="782" d="M782.224 50.001v-112.063l-75.516 42.015-78.977-43.953-78.908 43.953-78.908-43.953-78.908 43.953-78.908-43.953-78.908 43.953-78.908-43.953-78.838 43.953-75.447-42.015v112.063h782.224zM782.224 958.062v-111.994h-782.224v111.994l75.447-41.946 78.838 43.884 78.908-43.884 78.908 43.884 78.908-43.884 78.908 43.884 78.908-43.884 78.908 43.884 78.977-43.884 75.516 41.946zM779.802 839.147h-777.379c9.898-98.911 16.612-237.554 18.827-391.354-2.215-153.662-8.929-292.304-18.827-391.147h777.379c-9.898 98.842-16.612 237.484-18.827 391.008 2.215 153.939 8.929 292.581 18.827 391.493zM391.077 290.877h-178.788v74.685h178.788c44.777 0.085 81.043 36.403 81.043 81.192 0 28.012-14.186 52.711-35.765 67.304l-0.287 0.183h95.727c9.696-19.732 15.367-42.947 15.367-67.487 0-86.089-69.789-155.877-155.877-155.877-0.073 0-0.146 0-0.219 0h0.011zM323.729 447.308c0 0.021 0 0.045 0 0.069 0 37.234 30.184 67.418 67.418 67.418s67.418-30.184 67.418-67.418c0-37.234-30.184-67.418-67.418-67.418-0.024 0-0.049 0-0.073 0h0.004c-37.18 0.039-67.309 30.169-67.348 67.345v0.004zM569.935 528.292h-178.788c-44.807-0.045-81.112-36.379-81.112-81.192 0-28.012 14.186-52.711 35.765-67.304l0.287-0.183h-95.658c-9.696 19.732-15.367 42.947-15.367 67.487 0 86.089 69.789 155.877 155.877 155.877 0.073 0 0.146 0 0.219 0h178.777z" />
<glyph unicode="&#xe93c;" glyph-name="allantika" d="M100.352 656.896c-36.864-14.336-65.536-43.008-83.968-75.776-14.336-22.528-18.432-47.104-14.336-73.728 8.192-18.432 18.432-32.768 36.864-40.96 10.24-8.192 22.528-8.192 32.768-8.192 18.432 0 32.768 4.096 47.104 10.24l65.536 106.496c0 28.672-10.24 55.296-28.672 73.728-16.384 10.24-36.864 14.336-55.296 8.192zM681.984 505.344c-55.296-24.576-112.64-36.864-172.032-36.864s-116.736 10.24-172.032 36.864c-36.864 22.528-83.968 8.192-106.496-28.672-28.672-59.392-10.24-126.976 40.96-163.84 69.632-51.2 149.504-75.776 237.568-75.776 83.968-4.096 167.936 24.576 237.568 75.776 55.296 36.864 69.632 106.496 40.96 163.84-22.528 36.864-67.584 51.2-106.496 28.672zM1005.568 579.072c-18.432 36.864-47.104 65.536-88.064 79.872-18.432 4.096-40.96 0-55.296-10.24-22.528-18.432-32.768-43.008-28.672-73.728l65.536-106.496c14.336-8.192 32.768-10.24 47.104-10.24 10.24 0 22.528 0 36.864 8.192 18.432 8.192 28.672 22.528 36.864 40.96 8.192 24.576 2.048 49.152-14.336 71.68z" />
<glyph unicode="&#xe93d;" glyph-name="bakery" d="M747.52 424.107c-61.44 0-112.64 51.2-112.64 112.64 0 6.827-6.827 13.653-13.653 13.653s-13.653-6.827-13.653-13.653c0 0 0 0 0 0 0-61.44-51.2-112.64-112.64-112.64s-112.64 51.2-112.64 112.64c0 6.827-6.827 13.653-13.653 13.653s-13.653-6.827-13.653-13.653v0c0-61.44-51.2-112.64-112.64-112.64-58.027 0-105.813 51.2-105.813 109.227 0 0 0 3.413 0 3.413 0 139.947 160.427 252.587 361.813 252.587s361.813-112.64 361.813-252.587c-3.413-61.44-51.2-109.227-112.64-112.64zM621.227 581.12c27.307 0 47.787-20.48 47.787-44.373 0 0 0 0 0-3.413 0-44.373 34.133-78.507 78.507-78.507s78.507 34.133 78.507 78.507c0 119.467-146.773 218.453-327.68 218.453s-327.68-95.573-327.68-215.040c0-40.96 34.133-78.507 75.093-78.507 0 0 3.413 0 3.413 0 40.96 0 78.507 34.133 78.507 75.093 0 0 0 3.413 0 3.413 0 27.307 20.48 47.787 47.787 47.787s47.787-20.48 47.787-47.787v0c0-44.373 34.133-78.507 78.507-78.507s78.507 34.133 78.507 78.507c-3.413 20.48 13.653 40.96 37.547 44.373 0 0 3.413 0 3.413 0zM242.347 342.187v0c-6.827 0-13.653-3.413-13.653-10.24 0 0 0 0 0-3.413l37.547-191.147c0-6.827 6.827-10.24 13.653-10.24 0 0 0 0 0 0h430.080c6.827 0 10.24 3.413 13.653 10.24l37.547 191.147c0 6.827-3.413 13.653-10.24 13.653 0 0 0 0 0 0-3.413 0-6.827 0-10.24-3.413l-6.827-6.827-37.547-180.907h-81.92l23.893 177.493c0 3.413 0 6.827-3.413 10.24 0 3.413-3.413 3.413-6.827 3.413s-6.827 0-10.24-3.413c-3.413 0-3.413-3.413-3.413-6.827l-23.893-180.907h-81.92v174.080c0 6.827-6.827 13.653-13.653 13.653s-13.653-6.827-13.653-13.653v-174.080h-81.92l-23.893 180.907c0 3.413 0 3.413-3.413 6.827s-6.827 3.413-10.24 3.413c-3.413 0-3.413 0-6.827-3.413s-3.413-6.827-3.413-10.24l23.893-180.907h-81.92l-37.547 180.907c0 6.827-6.827 13.653-13.653 13.653z" />
<glyph unicode="&#xe93e;" glyph-name="baby" horiz-adv-x="475" d="M468.649 320.779l5.667 66.302c0.485 4.374 0.762 9.445 0.762 14.581 0 36.342-13.851 69.45-36.561 94.332l0.098-0.109c-9.434 10.565-20.478 19.441-32.795 26.307l-0.639 0.327 4.533 3.967c8.567 9.873 13.788 22.851 13.788 37.048 0 29.568-22.645 53.846-51.537 56.439l-0.218 0.016h-17.001c-1.010-0.393-2.178-0.62-3.4-0.62s-2.39 0.227-3.466 0.642l0.066-0.022c-3.4 0 0 0 6.8 0 4.43 4.536 7.91 10.022 10.102 16.122l0.098 0.312c6.454 15.625 10.201 33.768 10.201 52.786 0 0.17 0 0.339-0.001 0.509v-0.026c0.005 0.448 0.008 0.977 0.008 1.507 0 52.112-28.479 97.573-70.722 121.669l-0.688 0.362c3.245 15.531 5.102 33.378 5.102 51.66 0 0.366-0.001 0.733-0.002 1.099v-0.056c0.353 3.291 0.555 7.108 0.555 10.973 0 24.477-8.082 47.066-21.724 65.244l0.202-0.281c-12.359 11.356-28.914 18.316-47.095 18.316-1.774 0-3.532-0.066-5.272-0.196l0.232 0.014c-51.002 0-73.669-28.901-73.669-94.070 0.98-19.182 3.816-37.217 8.347-54.566l-0.414 1.865c-44.71-23.475-74.809-69.36-75.368-122.328l-0.001-0.076c-0.005-0.456-0.009-0.995-0.009-1.535 0-25.533 6.949-49.443 19.060-69.942l-0.35 0.641h-15.3c-28.572-3.172-50.592-27.185-50.592-56.342 0-16.473 7.029-31.305 18.252-41.659l0.039-0.035c-9.625-5.957-17.976-12.506-25.533-19.865l0.032 0.031c-24.988-25.44-40.413-60.345-40.413-98.852 0-5.102 0.271-10.14 0.799-15.102l-0.053 0.617 20.967-201.74-18.134-113.337c-1.1-5.808-1.729-12.489-1.729-19.318 0-27.361 10.099-52.363 26.773-71.481l-0.111 0.129c26.301-28.642 63.922-46.53 105.722-46.53 1.482 0 2.959 0.022 4.431 0.067l-0.216-0.005h193.806c1.363-0.046 2.966-0.072 4.575-0.072 39.395 0 75.15 15.581 101.44 40.916l-0.045-0.043c20.723 20.545 33.552 49.022 33.552 80.497 0 4.383-0.249 8.707-0.733 12.96l0.048-0.52c-4.291 41.379-6.738 89.407-6.738 138.008 0 39.585 1.623 78.79 4.808 117.554l-0.336-5.087zM234.608 228.41c-1.925-2.538-4.674-4.364-7.842-5.083l-0.091-0.017h-82.169v-75.369h42.501c8.326-0.302 14.999-6.974 15.3-15.272l0.001-0.028c0.001-0.068 0.002-0.147 0.002-0.227 0-4.325-1.731-8.247-4.538-11.109l0.003 0.003c-2.931-2.361-6.665-3.835-10.738-3.966l-0.029-0.001h-42.501v-80.469h72.536c8.45 0 15.3-6.85 15.3-15.3v0c0-8.45-6.85-15.3-15.3-15.3h-88.403c-0.012 0-0.027 0-0.042 0-8.45 0-15.3 6.85-15.3 15.3 0 0.399 0.015 0.794 0.045 1.185l-0.003-0.052v433.514c0 8.45 6.85 15.3 15.3 15.3h89.536c8.326-0.302 14.999-6.974 15.3-15.272l0.001-0.028c0-8.45-6.85-15.3-15.3-15.3h-73.102v-79.336h42.501c8.45 0 15.3-6.85 15.3-15.3v0c0-8.45-6.85-15.3-15.3-15.3h-42.501v-76.502h81.603c8.326-0.302 14.999-6.974 15.3-15.272l0.001-0.028c-1.031-4.512-3.687-8.277-7.305-10.728l-0.062-0.039z" />
<glyph unicode="&#xe93f;" glyph-name="cheese" d="M1005.568 372.224l-14.336 4.096c-53.248 8.192-290.816 53.248-520.192 98.304h-8.192v-8.192c0-26.624-4.096-49.152-14.336-71.68-26.624-67.584-90.112-112.64-161.792-116.736h-14.336c-90.112 4.096-161.792 86.016-157.696 174.080v4.096c0 26.624 4.096 49.152 14.336 75.776l4.096 8.192h-6.144c-40.96 8.192-71.68 14.336-86.016 18.432-18.432 0-30.72 8.192-45.056 22.528v-71.68c8.192 0 18.432-8.192 18.432-14.336v-251.904l385.024-90.112 4.096 8.192c14.336 45.056 45.056 79.872 86.016 98.304 36.864 18.432 79.872 18.432 116.736 0s67.584-45.056 86.016-86.016c8.192-26.624 14.336-53.248 8.192-79.872v-8.192l305.152-63.488v311.296c0 8.192 8.192 18.432 18.432 18.432v26.624c-4.096-6.144-8.192-6.144-18.432-6.144zM827.392 171.52c-53.248 0-94.208 45.056-94.208 98.304s45.056 94.208 98.304 94.208c53.248 0 94.208-45.056 94.208-94.208 0-53.248-45.056-98.304-98.304-98.304zM593.92 235.008c-26.624 14.336-63.488 14.336-90.112 0-30.72-18.432-57.344-45.056-67.584-79.872l-8.192-18.432 237.568-49.152 4.096 18.432c0 22.528 0 40.96-8.192 63.488-14.336 28.672-36.864 51.2-67.584 65.536zM831.488 333.312c-36.864 0-63.488-26.624-63.488-63.488s26.624-63.488 63.488-63.488 63.488 26.624 63.488 63.488c0 36.864-32.768 63.488-63.488 63.488zM47.104 597.504c4.096 0 8.192-4.096 14.336-4.096l86.016-18.432 24.576-4.096c4.096 0 8.192-4.096 8.192-8.192s0-8.192 0-14.336l-14.336-26.624c-14.336-22.528-14.336-40.96-14.336-63.488-4.096-75.776 49.152-139.264 124.928-143.36 0 0 0 0 4.096 0h8.192c57.344 0 112.64 40.96 129.024 94.208 4.096 18.432 8.192 36.864 8.192 57.344v26.624c0 4.096 4.096 8.192 4.096 14.336 4.096 4.096 8.192 4.096 14.336 4.096l26.624-4.096c229.376-45.056 466.944-90.112 520.192-98.304h12.288l-518.144 448.512c-14.336 8.192-30.72 14.336-53.248 14.336-133.12-2.048-393.216-157.696-411.648-235.52 4.096-14.336 14.336-30.72 18.432-36.864 4.096 2.048 4.096-2.048 8.192-2.048zM552.96 736.768l14.336 22.528c4.096 8.192 14.336 8.192 22.528 4.096s8.192-14.336 4.096-22.528l-14.336-22.528c-8.192-14.336-8.192-22.528-8.192-40.96 0-40.96 36.864-75.776 75.776-71.68 18.432 0 30.72 4.096 45.056 18.432l22.528 18.432c8.192 4.096 18.432 4.096 22.528-4.096 8.192-8.192 8.192-18.432 0-22.528l-22.528-18.432c-45.056-40.96-112.64-36.864-151.552 8.192-32.768 36.864-36.864 90.112-10.24 131.072zM178.176 775.68c8.192 4.096 18.432 4.096 22.528-4.096l14.336-22.528c4.096-4.096 8.192-8.192 14.336-8.192 18.432-8.192 36.864 0 45.056 14.336 4.096 8.192 4.096 18.432 0 26.624l-8.192 22.528c-4.096 8.192 0 18.432 8.192 22.528 8.192 0 18.432 0 22.528-8.192l8.192-22.528c14.336-30.72 0-71.68-36.864-86.016-8.192-4.096-18.432-8.192-26.624-8.192s-22.528 4.096-30.72 8.192c-8.192 4.096-18.432 14.336-22.528 22.528l-14.336 22.528c-10.24 8.192-10.24 16.384 4.096 20.48z" />
<glyph unicode="&#xe940;" glyph-name="cleaning" d="M454.656 501.248c0 4.096 16.384 94.208 28.672 169.984l-4.096 4.096-53.248 264.192c0 8.192-4.096 12.288-12.288 16.384s-16.384 4.096-24.576 4.096c-8.192 0-12.288-4.096-16.384-12.288s-4.096-16.384-4.096-20.48v-4.096l53.248-260.096c0-8.192-4.096-16.384-12.288-16.384s-12.288 4.096-16.384 12.288l-55.296 260.096c-4.096 16.384-20.48 24.576-36.864 20.48s-24.576-16.384-20.48-32.768v-4.096l53.248-260.096c4.096-4.096 0-12.288-8.192-16.384-8.192 0-16.384 4.096-16.384 12.288l-57.344 264.192c-4.096 4.096-8.192 12.288-12.288 16.384-8.192 4.096-16.384 4.096-24.576 4.096-12.288-4.096-24.576-16.384-20.48-32.768l49.152-313.344-32.768 40.96c-36.864 40.96-81.92 90.112-81.92 90.112-8.192 4.096-20.48 28.672-40.96 16.384-4.096-4.096-8.192-8.192-8.192-12.288 0-8.192 0-16.384 8.192-24.576 34.816-81.92 94.208-210.944 98.304-219.136 16.384-16.384 36.864-28.672 61.44-28.672h12.288l36.864-296.96c20.48-4.096 40.96-4.096 61.44-4.096l133.12 284.672c-20.48 20.48-32.768 45.056-36.864 77.824zM942.080 781.824c-4.096 8.192-8.192 12.288-16.384 12.288-8.192 4.096-16.384 4.096-20.48 0-8.192-4.096-12.288-8.192-16.384-16.384l-100.352-247.808c-4.096-4.096-8.192-8.192-16.384-8.192h-4.096c-8.192 4.096-12.288 12.288-8.192 20.48l98.304 247.808c4.096 16.384 0 32.768-16.384 36.864s-32.768 0-36.864-16.384l-4.096-4.096-94.208-243.712c-4.096-8.192-12.288-12.288-20.48-8.192s-12.288 12.288-8.192 20.48l98.304 247.808c4.096 8.192 4.096 16.384 0 20.48-4.096 16.384-20.48 20.48-36.864 16.384 0 0-4.096 0-4.096-4.096-8.192-4.096-12.288-8.192-16.384-16.384l-133.12-288.768-4.096 53.248c-8.192 53.248-16.384 118.784-16.384 118.784v12.288c0 4.096 0 28.672-20.48 32.768-4.096 0-8.192 0-12.288-4.096-4.096-8.192-8.192-16.384-8.192-24.576-16.384-90.112-36.864-227.328-36.864-239.616 4.096-24.576 16.384-45.056 36.864-57.344l12.288-8.192-141.312-305.152c0-4.096 0-8.192-4.096-8.192l-24.576-49.152c53.248-45.056 110.592-77.824 178.176-102.4 36.864-20.48 81.92-28.672 122.88-32.768l278.528 821.248c0 8.192 0 16.384-4.096 24.576z" />
<glyph unicode="&#xe941;" glyph-name="fruits" horiz-adv-x="1340" d="M1290.039 744.157c-10.039 10.039-15.059 20.078-15.059 20.078s0 0 0 0c0 15.059-15.059 25.098-25.098 25.098-15.059 0-25.098-10.039-25.098-25.098 0-10.039 5.020-25.098 25.098-50.196 35.137-35.137 45.176-135.529 30.118-225.882s-70.275-266.039-286.118-386.51c-130.51-75.294-261.020-110.431-386.51-110.431-165.647 0-261.020 65.255-286.118 85.333-35.137 30.118-65.255 60.235-70.275 60.235 0 0 0 5.020 0 10.039v40.157c0 5.020 0 10.039 5.020 15.059 0 0 25.098 20.078 65.255 40.157 15.059 5.020 30.118 10.039 60.235 15.059 70.275 15.059 195.765 35.137 391.529 130.51 175.686 80.314 205.804 170.667 230.902 235.922 10.039 35.137 25.098 65.255 50.196 90.353 5.020 5.020 5.020 5.020 5.020 10.039 10.039 25.098 5.020 95.373-5.020 150.588 0 5.020 0 10.039 5.020 15.059s10.039 5.020 15.059 5.020l145.569 15.059c15.059 0 25.098 15.059 25.098 25.098s-15.059 25.098-30.118 25.098l-145.569-10.039c-20.078 0-35.137-10.039-50.196-25.098-10.039-15.059-15.059-35.137-15.059-50.196 10.039-55.216 10.039-105.412 5.020-125.49-30.118-30.118-45.176-70.275-55.216-105.412-25.098-65.255-50.196-135.529-205.804-210.824-190.745-90.353-311.216-115.451-376.471-125.49-35.137-5.020-55.216-10.039-75.294-20.078-45.176-20.078-70.275-45.176-75.294-45.176-5.020-5.020-5.020-5.020-10.039-10.039 0 10.039-10.039 20.078-25.098 20.078-5.020 0-5.020 0-10.039 5.020-50.196 35.137-90.353 110.431-110.431 145.569l-5.020 5.020c0 5.020-5.020 10.039 0 10.039l5.020 40.157c0 5.020 5.020 10.039 10.039 15.059 0 0 30.118 15.059 70.275 25.098 15.059 5.020 35.137 5.020 65.255 0 70.275-5.020 195.765-10.039 411.608 40.157 190.745 45.176 240.941 115.451 276.078 175.686 20.078 30.118 35.137 60.235 70.275 80.314 10.039 5.020 15.059 20.078 10.039 35.137-5.020 10.039-20.078 15.059-35.137 10.039-45.176-30.118-70.275-70.275-90.353-100.392-35.137-55.216-70.275-115.451-240.941-155.608-205.804-45.176-331.294-40.157-396.549-40.157-20.078 0-35.137 0-50.196 0-10.039 10.039-15.059 15.059-25.098 15.059-5.020 0-10.039 0-15.059 5.020-50.196 45.176-65.255 110.431-75.294 150.588 0 5.020 0 10.039 0 15.059s0 10.039 0 10.039l15.059 35.137c0 5.020 5.020 10.039 15.059 10.039 0 0 30.118 5.020 75.294 5.020 15.059 0 35.137-5.020 60.235-15.059 70.275-20.078 190.745-55.216 406.588-65.255 65.255 0 120.471 5.020 165.647 15.059 15.059 5.020 25.098 20.078 20.078 35.137s-15.059 20.078-30.118 20.078c-40.157-10.039-95.373-15.059-150.588-15.059-210.824 5.020-331.294 40.157-396.549 60.235-30.118 10.039-50.196 15.059-75.294 15.059-50.196 0-85.333-5.020-85.333-5.020-20.078-5.020-40.157-20.078-50.196-40.157l-15.059-35.137c-5.020-15.059-5.020-30.118-5.020-45.176l5.020-15.059c10.039-40.157 25.098-115.451 85.333-170.667-20.078-5.020-35.137-15.059-35.137-15.059-20.078-10.039-35.137-30.118-35.137-50.196l-5.020-40.157c-5.020-15.059 0-30.118 5.020-45.176l5.020-10.039c20.078-35.137 60.235-115.451 125.49-160.627 10.039-10.039 25.098-10.039 40.157-10.039 5.020 0 10.039 0 10.039 5.020 0-5.020-5.020-15.059 0-20.078v-40.157c0-15.059 10.039-30.118 20.078-45.176 5.020-5.020 35.137-35.137 75.294-65.255 75.294-60.235 195.765-95.373 316.235-95.373 135.529 0 276.078 40.157 411.608 115.451 230.902 130.51 296.157 321.255 311.216 421.647 15.059 110.431 0 220.863-45.176 271.059z" />
<glyph unicode="&#xe942;" glyph-name="healt" d="M378.88 492.373h-6.827v85.333c0 6.827-6.827 13.653-13.653 13.653h-20.48v303.787c0 3.413 0 6.827-3.413 10.24s-10.24 3.413-13.653 0l-160.427-122.88c-3.413 0-6.827-3.413-3.413-10.24v-184.32h-20.48c-6.827 0-13.653-6.827-13.653-13.653v-81.92h-6.827c-20.48 0-37.547-17.067-37.547-37.547v-440.32c0-20.48 17.067-37.547 37.547-37.547h259.413c20.48 0 37.547 17.067 37.547 37.547v440.32c3.413 17.067-10.24 34.133-30.72 37.547 0 0 0 0-3.413 0zM177.493 587.947v177.493l136.533 102.4v-279.893h-136.533c0 0 0 0 0 0zM146.773 564.053h201.387v-71.68h-201.387v71.68zM389.12 14.507c0-6.827-6.827-13.653-13.653-13.653h-259.413c-6.827 0-13.653 6.827-13.653 13.653v440.32c0 6.827 6.827 13.653 13.653 13.653h259.413c6.827 0 13.653-6.827 13.653-13.653 0 0 0-440.32 0-440.32zM918.187 304.64h-395.947c-20.48 0-37.547-17.067-37.547-37.547v-262.827c0-20.48 17.067-37.547 37.547-37.547h395.947c20.48 0 37.547 17.067 37.547 37.547v262.827c-3.413 20.48-17.067 34.133-37.547 37.547zM512 7.68v262.827c0 6.827 3.413 10.24 10.24 13.653h30.72v-286.72h-30.72c-6.827-3.413-10.24 3.413-10.24 10.24zM928.427 7.68c0-6.827-3.413-10.24-10.24-13.653h-341.333v286.72h341.333c6.827 0 10.24-6.827 10.24-13.653 0 0 0 0 0 0v-259.413zM341.333 420.693v-378.88c0-6.827-6.827-13.653-13.653-13.653s-10.24 6.827-10.24 13.653c0 0 0 0 0 0v378.88c0 6.827 3.413 13.653 10.24 13.653 0 0 0 0 0 0 10.24 3.413 13.653-3.413 13.653-13.653 0 3.413 0 3.413 0 0z" />
<glyph unicode="&#xe943;" glyph-name="frozen" d="M675.84 38.4h-351.573c-47.787 0-85.333 37.547-85.333 85.333v634.88c0 47.787 37.547 85.333 85.333 85.333h354.987c47.787 0 85.333-37.547 85.333-85.333v-634.88c-3.413-47.787-40.96-85.333-88.747-85.333zM324.267 809.813c-27.307 0-47.787-20.48-51.2-47.787 0 0 0 0 0-3.413v-634.88c0-27.307 20.48-47.787 47.787-47.787 0 0 0 0 3.413 0h354.987c27.307 0 47.787 20.48 47.787 47.787 0 0 0 0 0 3.413v631.467c0 27.307-20.48 47.787-47.787 47.787 0 0 0 0-3.413 0h-351.573zM706.56 639.147c0 10.24-6.827 17.067-17.067 17.067 0 0 0 0-3.413 0h-375.467c-10.24 0-17.067-6.827-17.067-17.067s6.827-17.067 17.067-17.067h378.88c10.24 3.413 17.067 10.24 17.067 17.067zM675.84 301.227v126.293c0 10.24-6.827 17.067-17.067 17.067s-17.067-6.827-17.067-17.067v-126.293c0-10.24 6.827-17.067 17.067-17.067 10.24-3.413 17.067 6.827 17.067 17.067z" />
</font>
</defs>
</svg>
