<svg xmlns="http://www.w3.org/2000/svg" viewBox="0 0 100 100"><defs><style>.cls-1{fill:#f04c23;}.cls-2{fill:#ecb31f;}.cls-3{fill:#057784;}.cls-4{fill:#009299;}.cls-5{fill:#a7dbd2;}.cls-6{fill:#d7962b;}.cls-7{fill:#c73127;}.cls-8{fill:#832019;}</style></defs><title>ANTILIAKA ICON</title><g id="Layer_2" data-name="Layer 2"><g id="Layer_1-2" data-name="Layer 1"><path class="cls-1" d="M51.54,2.41l-8.43,78V95.65A4.35,4.35,0,0,1,38.76,100H12.92a4.35,4.35,0,0,1-4.35-4.35V80.43L.14,2.41A2.17,2.17,0,0,1,2.3,0H49.38A2.17,2.17,0,0,1,51.54,2.41Z"/><path class="cls-2" d="M43.58,76.09l-.47,4.34v4.35H8.57V80.43L8.1,76.09Z"/><path class="cls-3" d="M51.67,2.41l-8.44,78H8.45L0,2.41A2.17,2.17,0,0,1,2.17,0H49.5A2.18,2.18,0,0,1,51.67,2.41Z"/><path class="cls-4" d="M25.84,60.87h0a13.52,13.52,0,0,1-13.51-13L10.62,0H41.06L39.35,47.83A13.52,13.52,0,0,1,25.84,60.87Z"/><path class="cls-5" d="M33.45,15.22a2.18,2.18,0,0,1-2.18,2.17H20.4a2.18,2.18,0,0,1,0-4.35H31.27A2.19,2.19,0,0,1,33.45,15.22Zm-4.6,6.52h-6a2.18,2.18,0,1,0,0,4.35h6a2.18,2.18,0,1,0,0-4.35Z"/><path class="cls-6" d="M100,28.26V93.48A6.52,6.52,0,0,1,93.48,100H45.65a6.52,6.52,0,0,1-6.52-6.52V28.26a6.52,6.52,0,0,1,6.52-6.52H60.87V6.52A6.52,6.52,0,0,1,67.39,0h4.35a6.52,6.52,0,0,1,6.52,6.52V21.74H93.48A6.52,6.52,0,0,1,100,28.26Z"/><path class="cls-2" d="M91.3,21.74V73.91A17.38,17.38,0,0,1,73.91,91.3H65.22A17.38,17.38,0,0,1,47.83,73.91V21.74h13V6.52A6.52,6.52,0,0,1,67.39,0h4.35a6.52,6.52,0,0,1,6.52,6.52V21.74Z"/><path class="cls-7" d="M60.87,21.74V6.52A6.52,6.52,0,0,1,67.39,0h4.35a6.52,6.52,0,0,1,6.52,6.52V21.74Z"/><path class="cls-8" d="M78.26,21.74H60.87V15.22H78.26Z"/><path class="cls-1" d="M84.78,57.61H80.22a10.87,10.87,0,0,0-1.59-3.82l3.23-3.23a2.17,2.17,0,1,0-3.07-3.08l-3.24,3.24a10.71,10.71,0,0,0-3.81-1.59V44.57a2.18,2.18,0,1,0-4.35,0v4.56a10.71,10.71,0,0,0-3.81,1.59l-3.24-3.23a2.17,2.17,0,0,0-3.07,3.07l3.23,3.23a10.87,10.87,0,0,0-1.59,3.82H54.35a2.18,2.18,0,1,0,0,4.35h4.56a11.09,11.09,0,0,0,1.59,3.81L57.27,69a2.17,2.17,0,0,0,0,3.07,2.16,2.16,0,0,0,3.07,0l3.24-3.23a10.88,10.88,0,0,0,3.81,1.58V75a2.18,2.18,0,0,0,4.35,0V70.43a10.88,10.88,0,0,0,3.81-1.58l3.24,3.23A2.17,2.17,0,0,0,81.86,69l-3.23-3.24A10.9,10.9,0,0,0,80.22,62h4.56a2.18,2.18,0,1,0,0-4.35ZM69.57,66.3a6.52,6.52,0,1,1,6.52-6.52A6.53,6.53,0,0,1,69.57,66.3Z"/></g></g></svg>