<?xml version="1.0" encoding="utf-8"?>
<!-- Generator: Adobe Illustrator 23.1.0, SVG Export Plug-In . SVG Version: 6.00 Build 0)  -->
<svg version="1.1" id="Layer_1" xmlns="http://www.w3.org/2000/svg" xmlns:xlink="http://www.w3.org/1999/xlink" x="0px" y="0px"
	 viewBox="0 0 70.1 29" style="enable-background:new 0 0 70.1 29;" xml:space="preserve">
<style type="text/css">
	.st0{fill:#6E6F72;}
	.st1{clip-path:url(#SVGID_2_);}
	.st2{fill:#FFFFFF;}
	.st3{fill:#231F20;}
	.st4{fill:#922838;}
	.st5{fill:#BDBEC0;}
	.st6{fill:#A97D51;}
	.st7{fill:#424143;}
	.st8{fill:none;stroke:#939598;stroke-miterlimit:10;}
	.st9{opacity:0.69;fill:none;stroke:#939598;stroke-miterlimit:10;enable-background:new    ;}
	.st10{fill:#595A5C;}
	.st11{fill:none;}
	.st12{fill-rule:evenodd;clip-rule:evenodd;fill:#D91F34;}
	.st13{fill-rule:evenodd;clip-rule:evenodd;fill:#F17922;}
	.st14{fill:#4B1821;}
	.st15{fill-rule:evenodd;clip-rule:evenodd;fill:#4B1821;}
</style>
<g>
	<path class="st0" d="M37.3,0.3c3.6,0,7.2,1,10.3,2.9L55.6,8c0.2,0.1,0.5,0.3,0.8,0.4l9.8,3.5c0.6,0.2,1.6,0.7,1.6,1.2v0l0,1.3
		c0,0.2,0.1,0.4,0.2,0.5l0.2,0.2l0,0l0,0l0.3,0.3c0.6,0.6,0.6,1.9,0.6,1.9v0l0.2,5.5c0,0.3,0.2,0.6,0.5,0.6h0h0h0
		c0.1,0,0.1,0.1,0.1,0.1c0,0,0,0,0,0l-0.1,0.3c0,0,0,0.1-0.1,0.1L67,24.1l-2.7,0.3l-1.6,0.2h0c0,0,0,0,0,0c0,0,0,0-0.1,0l-1.4-2.8
		L60.3,20l0,0l0,0c-1.2-1.5-3.3-1.8-4.9-0.7c-0.2,0.2-0.5,0.4-0.7,0.7l0,0l0,0.1l-1.2,4.8c0,0,0,0,0,0H16c0,0,0,0-0.1,0l-2.5-5.4
		l0,0l0,0c-1-1.3-2.9-1.6-4.2-0.5C9,19,8.8,19.2,8.6,19.3l0,0l0,0l-2.2,4.7c0,0,0,0-0.1,0h0c0,0,0,0,0,0h0h0l-1.9-0.2l-3.7-0.5
		c0,0-0.1,0-0.1-0.1L0.5,23l-0.1-0.1c-0.2-0.4-0.2-0.8-0.1-1.2l0.4-1.5v0c0,0,0,0,0,0l0,0l0,0l0.4-0.7c0,0,0,0,0.1,0
		c0.2,0,0.3-0.1,0.4-0.2c0.1-0.1,0.2-0.3,0.2-0.4v-5c0-3.2,0.2-6.4,0.7-9.6l0.6-3.6c0,0,0-0.1,0-0.1l0.3-0.2c0,0,0,0,0,0H37.3
		 M37.3,0H3.6C3.5,0,3.5,0,3.4,0.1L3.1,0.2C3,0.3,2.9,0.4,2.9,0.5L2.3,4.1c-0.5,3.2-0.7,6.4-0.7,9.7v5c0,0.1,0,0.2-0.1,0.3
		c0,0-0.1,0.1-0.1,0.1c0,0-0.1,0-0.1,0c-0.1,0-0.2,0.1-0.3,0.2L0.6,20c0,0,0,0.1,0,0.1l-0.4,1.5c-0.1,0.5-0.1,1,0.1,1.4l0.1,0.1
		l0.2,0.4c0.1,0.1,0.2,0.2,0.3,0.2l3.7,0.5l1.9,0.2c0,0,0,0,0.1,0h0c0.1,0,0.2-0.1,0.3-0.1l2.2-4.8c0.9-1.2,2.6-1.4,3.8-0.4
		c0.2,0.1,0.3,0.3,0.4,0.5l2.5,5.4c0.1,0.1,0.2,0.2,0.3,0.2h37.4c0.1,0,0.2-0.1,0.3-0.2l1.2-4.8c1.1-1.4,3.1-1.7,4.5-0.6
		c0.2,0.2,0.4,0.4,0.6,0.6l0.9,1.8l1.4,2.8c0.1,0.1,0.2,0.2,0.3,0.2c0,0,0,0,0.1,0l1.6-0.2l2.7-0.3l2.7-0.3c0.1,0,0.3-0.1,0.3-0.2
		l0.1-0.3c0.1-0.2,0-0.4-0.2-0.5c0,0,0,0,0,0l0,0c-0.2,0-0.3-0.2-0.3-0.4l-0.3-5.5c0-0.1-0.1-1.4-0.7-2.1l-0.3-0.3l-0.2-0.2
		C68,14.5,68,14.4,68,14.3l0-1.3c0-0.9-1.6-1.4-1.8-1.5l-9.8-3.5C56.2,8,56,7.9,55.7,7.8l-7.9-4.8C44.7,1,41,0,37.3,0z"/>
	<g>
		<defs>
			<path id="SVGID_1_" d="M70.1,23.6L70,23.8c0,0.1-0.2,0.2-0.3,0.2L67,24.4l-2.7,0.3l-1.6,0.2c-0.1,0-0.3,0-0.4-0.1L60.9,22
				L60,20.2c-1.3-1.7-3.8-1.7-5.1,0L53.7,25c-0.1,0.1-0.2,0.2-0.3,0.2H16c-0.1,0-0.2-0.1-0.3-0.2l-2.5-5.4c-0.9-1.2-2.6-1.4-3.8-0.5
				c-0.2,0.1-0.3,0.3-0.5,0.4l-2.2,4.8c-0.1,0.1-0.2,0.1-0.3,0.1c0,0-0.1,0-0.1,0l-1.9-0.2l-3.7-0.5c-0.1,0-0.2-0.1-0.3-0.2
				l-0.2-0.4L0.2,23c-0.2-0.4-0.3-1-0.1-1.4l0.4-1.5c0,0,0-0.1,0-0.1L1,19.4c0.1-0.1,0.2-0.2,0.3-0.2c0,0,0.1,0,0.1,0
				c0,0,0.1-0.1,0.1-0.1c0.1-0.1,0.1-0.2,0.1-0.3v-5c0-3.2,0.2-6.5,0.7-9.7l0.6-3.6c0-0.1,0.1-0.2,0.2-0.3l0.3-0.2
				C3.5,0,3.5,0,3.6,0h33.7c3.7,0,7.3,1,10.5,2.9l7.9,4.8C56,7.9,56.2,8,56.4,8.1l9.8,3.5c0.2,0.1,1.8,0.6,1.8,1.5l0,1.3
				c0,0.1,0,0.2,0.1,0.3l0.2,0.2l0.3,0.3c0.6,0.7,0.7,2,0.7,2.1l0.2,5.5c0,0.2,0.1,0.3,0.3,0.4l0,0C70.1,23.1,70.2,23.3,70.1,23.6
				C70.1,23.5,70.1,23.5,70.1,23.6z"/>
		</defs>
		<clipPath id="SVGID_2_">
			<use xlink:href="#SVGID_1_"  style="overflow:visible;"/>
		</clipPath>
		<g class="st1">
			<path class="st2" d="M37.3,0.3c3.6,0,7.2,1,10.3,2.9L55.6,8c0.2,0.1,0.5,0.3,0.8,0.4l9.8,3.5c0.6,0.2,1.6,0.7,1.6,1.2v0l0,1.3
				c0,0.2,0.1,0.4,0.2,0.5l0.2,0.2l0,0l0,0l0.3,0.3c0.6,0.6,0.6,1.9,0.6,1.9v0l0.2,5.5c0,0.3,0.2,0.6,0.5,0.6h0h0h0
				c0.1,0,0.1,0.1,0.1,0.1c0,0,0,0,0,0l-0.1,0.3c0,0,0,0.1-0.1,0.1L67,24.1l-2.7,0.3l-1.6,0.2h0c0,0,0,0,0,0c0,0,0,0-0.1,0l-1.4-2.8
				L60.3,20l0,0l0,0c-1.2-1.5-3.3-1.8-4.9-0.7c-0.2,0.2-0.5,0.4-0.7,0.7l0,0l0,0.1l-1.2,4.8c0,0,0,0,0,0H16c0,0,0,0-0.1,0l-2.5-5.4
				l0,0l0,0c-1-1.3-2.9-1.6-4.2-0.5C9,19,8.8,19.2,8.6,19.3l0,0l0,0l-2.2,4.7c0,0,0,0-0.1,0h0c0,0,0,0,0,0h0h0l-1.9-0.2l-3.7-0.5
				c0,0-0.1,0-0.1-0.1L0.5,23l-0.1-0.1c-0.2-0.4-0.2-0.8-0.1-1.2l0.4-1.5v0c0,0,0,0,0,0l0,0l0,0l0.4-0.7c0,0,0,0,0.1,0
				c0.2,0,0.3-0.1,0.4-0.2c0.1-0.1,0.2-0.3,0.2-0.4v-5c0-3.2,0.2-6.4,0.7-9.6l0.6-3.6c0,0,0-0.1,0-0.1l0.3-0.2c0,0,0,0,0,0H37.3"/>
			<path class="st3" d="M66.2,11.6l0.3,1.6c0.1,0.4,0.3,0.7,0.6,0.9l1.4,0.8l0-2.9L66.2,11.6z"/>
			<path class="st4" d="M3.4,7.6C3.4,8.2,3.3,8.8,3.3,9.4c0,0.6-0.1,1.2-0.1,1.8c0,0.7,0,1.3-0.1,2H1.6c0-0.7,0-1.3,0-2
				c0-0.6,0.1-1.2,0.1-1.8c0-0.6,0.1-1.2,0.2-1.8L3.4,7.6z"/>
			<path class="st5" d="M3.3,9.4c0,0.6-0.1,1.2-0.1,1.8H1.7c0-0.6,0.1-1.2,0.1-1.8H3.3z"/>
			<rect x="1.3" y="15.1" class="st6" width="62.1" height="2.4"/>
			<polygon class="st0" points="66.1,25.4 -0.2,25.4 -0.4,16.6 63.5,17.2 			"/>
			<path class="st7" d="M63,16.4l0-1.2c0-0.2,0.2-0.4,0.4-0.4c0,0,0,0,0.1,0l6,1.3c0.1,0,0.2,0.1,0.2,0.2l4.3,7.5
				c0.1,0.2,0,0.4-0.1,0.5c0,0-0.1,0-0.1,0l-9.5,2.8c-0.2,0.1-0.4-0.1-0.5-0.3c0,0,0,0,0,0L62,19c0-0.1,0-0.3,0.1-0.3l0,0
				C62.6,18.1,63,17.2,63,16.4z"/>
			<path class="st3" d="M70.2,17.7l-4.4-0.6c-0.6-0.1-1.1,0.3-1.2,0.9c0,0.1,0,0.2,0,0.3l0.5,3.1c0.1,0.5,0.4,0.8,0.9,0.9l3.8,0.6
				c0.6,0.1,1.1-0.3,1.2-0.9c0-0.1,0-0.1,0-0.2l0-3.1C71.1,18.2,70.7,17.8,70.2,17.7z"/>
			<polyline class="st8" points="29.2,-1.8 31.8,22.7 30.1,26.2 			"/>
			<rect x="1.9" y="1" class="st6" width="45.5" height="2"/>
			<path class="st7" d="M20.1,23.3l0.7-0.7c0.1-0.1,0.2-0.1,0.3-0.1L46,22.9c0.1,0,0.1,0,0.2,0.1l0.8,0.5c0.4,0.2,0.2,0.8-0.2,0.8
				l-26.3-0.1c-0.2,0-0.4-0.2-0.4-0.4C20,23.5,20.1,23.4,20.1,23.3z"/>
			<path class="st9" d="M54.7,8.9c0,0,0.3,4-2.4,8.7c-2.3,4-2.3,6.4-2.5,9.5"/>
			<path class="st7" d="M8.1,19.6l-1.7,4.9l-6.3-0.6l0-0.6L0,23.1c-0.2-0.4-0.1-1,0.1-1.5l0.4-1.5c0,0,0-0.1,0-0.1L1,19.4
				c0.1-0.1,0.2-0.2,0.3-0.2c0,0,0.1,0,0.1,0L8.1,19.6z"/>
		</g>
	</g>
	<path class="st10" d="M59.6,11L59.6,11c-0.3,0.3-0.4,0.8-0.1,1.1L60,13c0.1,0.2,0.3,0.3,0.5,0.3l3.4,0.8c0.4,0.1,0.9-0.2,1-0.6
		c0-0.1,0-0.2,0-0.3l-0.1-0.3c-0.1-0.3-0.3-0.5-0.5-0.6l-3.9-1.4C60.1,10.8,59.8,10.8,59.6,11z"/>
	<path class="st10" d="M61.3,11.6L61.3,11.6c-0.3,0.2-0.3,0.7-0.1,1l0.5,0.7c0.1,0.1,0.2,0.2,0.4,0.3l2.7,0.7
		c0.5,0.1,0.9-0.3,0.8-0.8l0-0.3c0-0.2-0.2-0.5-0.4-0.6L62,11.5C61.7,11.4,61.5,11.5,61.3,11.6z"/>
	<path class="st3" d="M17.8,23.5c0,0.6-0.1,1.1-0.2,1.7H16c-0.1,0-0.2-0.1-0.3-0.2l-2.5-5.4c-0.9-1.2-2.6-1.4-3.8-0.5
		c-0.2,0.1-0.3,0.3-0.5,0.4l-2.2,4.8c-0.1,0.1-0.2,0.1-0.3,0.1c0,0-0.1,0-0.1,0l-1.9-0.2c0-0.2,0-0.5,0-0.7c0-3.7,3-6.7,6.7-6.7
		S17.8,19.8,17.8,23.5L17.8,23.5z"/>
	<path class="st3" d="M64.4,23.6c0,0.4,0,0.8-0.1,1.1l-1.6,0.2c-0.1,0-0.3,0-0.4-0.1L60.9,22L60,20.2c-1.3-1.7-3.8-1.7-5.1,0
		L53.7,25c-0.1,0.1-0.2,0.2-0.3,0.2h-2.2c-0.8-3.6,1.4-7.2,5-8c3.6-0.8,7.2,1.4,8,5C64.3,22.6,64.4,23.1,64.4,23.6L64.4,23.6z"/>
	<circle class="st5" cx="11.1" cy="23.5" r="4.5"/>
	<path class="st7" d="M11.1,19.9c2,0,3.6,1.6,3.6,3.6s-1.6,3.6-3.6,3.6s-3.6-1.6-3.6-3.6v0C7.5,21.5,9.1,19.9,11.1,19.9 M11.1,18.1
		c-3,0-5.4,2.4-5.4,5.4c0,3,2.4,5.4,5.4,5.4c3,0,5.4-2.4,5.4-5.4v0C16.5,20.5,14.1,18.1,11.1,18.1z"/>
	<circle class="st5" cx="57.7" cy="23.6" r="4.5"/>
	<path class="st7" d="M57.7,20c2,0,3.6,1.6,3.6,3.6c0,2-1.6,3.6-3.6,3.6c-2,0-3.6-1.6-3.6-3.6C54.1,21.6,55.7,20,57.7,20 M57.7,18.2
		c-3,0-5.4,2.4-5.4,5.4c0,3,2.4,5.4,5.4,5.4c3,0,5.4-2.4,5.4-5.4v0C63.1,20.6,60.7,18.2,57.7,18.2z"/>
	<circle class="st10" cx="57.7" cy="23.6" r="2.6"/>
	<circle class="st10" cx="11.1" cy="23.4" r="2.6"/>
	<path class="st7" d="M40.6,1.3l-7-0.2c-1.1,0-2,0.8-1.9,1.7l0.6,4.7c0.1,0.4,0.3,0.8,0.7,1l2.4,1.6c0.3,0.2,0.7,0.3,1,0.3l15.7,0.3
		c0.3,0,0.6-0.1,0.8-0.2l0,0c1.1-0.5,1.3-1.8,1.9-1.5l-8.4-5.2C43.8,1.9,42.2,1.3,40.6,1.3z"/>
	<path class="st0" d="M40.6,1.6l-6.7-0.2c-1.1,0-1.9,0.7-1.8,1.6l0.6,4.4c0,0.4,0.3,0.7,0.7,1l2.3,1.5c0.3,0.2,0.6,0.3,1,0.3
		l15.2,0.3c0.3,0,0.5,0,0.8-0.2l0,0c1.1-0.5,1.3-1.7,1.8-1.4l-8.1-5C43.6,2.2,42.2,1.7,40.6,1.6z"/>
	<polygon class="st7" points="50.6,6.5 50.1,10.4 52.7,10.4 54.4,8.8 	"/>
	<path class="st11" d="M5.3,3.7l-0.2,4C5,8.4,5.6,9,6.3,9l22.4,0.5c0.8,0,1.4-0.6,1.4-1.3c0,0,0,0,0,0V2.8c0-0.8-0.6-1.4-1.4-1.4H10
		c-0.1,0-0.2,0-0.3,0.1L6.2,2.5C5.7,2.6,5.3,3.1,5.3,3.7z"/>
	<path class="st12" d="M7.6,9.7c0.3,0,0.6-0.3,0.6-0.6c0-0.3-0.3-0.6-0.6-0.6C7.3,8.5,7,8.8,7,9.1C7,9.5,7.3,9.7,7.6,9.7"/>
	<path class="st13" d="M7.6,7.8c-0.8,0-1.4,0.6-1.4,1.4c0,0.2,0,0.4,0.1,0.6h0.9C6.9,9.5,6.8,9.1,7,8.8c0.1-0.2,0.4-0.3,0.6-0.3h1.6
		V7.8L7.6,7.8z"/>
	<path class="st13" d="M8.8,8.5H8c0.2,0.1,0.3,0.3,0.3,0.6c0,0.4-0.3,0.7-0.7,0.7H6v0.7h1.6C8.4,10.5,9,9.9,9,9.1
		C9,8.9,8.9,8.7,8.8,8.5z"/>
	<path class="st14" d="M22.5,8.3h-0.4V10h0.4V8.3z"/>
	<path class="st14" d="M11.2,10H9.8V9.8l0.7-0.7L9.8,8.5V8.3h1.3v0.3h-0.8l0.6,0.5l-0.6,0.6h0.9V10z"/>
	<path class="st14" d="M13,10h-0.5L12,9.2l-0.2,0.2V10h-0.4V8.3h0.4V9l0.7-0.7H13L12.2,9L13,10z"/>
	<path class="st14" d="M14.3,10h0.4l-0.6-1.7h-0.4L13.1,10h0.4l0.4-1.3L14.3,10z"/>
	<path class="st15" d="M16.6,10h-0.4l-0.1-0.4h-0.7L15.2,10h-0.4l0.7-1.7h0.4L16.6,10z M16,9.4l-0.3-0.7l0,0l-0.3,0.7L16,9.4z"/>
	<path class="st15" d="M18.1,9.9c0.1-0.1,0.2-0.2,0.2-0.4c0-0.2-0.1-0.3-0.3-0.4C18,9,18.1,9,18.1,8.9c0-0.1,0.1-0.1,0.1-0.2
		c0-0.2-0.1-0.3-0.2-0.3c-0.1-0.1-0.3-0.1-0.4-0.1h-0.9V10h0.8C17.8,10,17.9,9.9,18.1,9.9z M17.5,9.7h-0.4V9.2h0.4
		c0.1,0,0.2,0,0.2,0.1c0.1,0,0.1,0.1,0.1,0.2c0,0.1,0,0.1-0.1,0.2C17.7,9.7,17.6,9.7,17.5,9.7L17.5,9.7L17.5,9.7z M17.5,8.9h-0.4
		V8.6h0.4c0.1,0,0.1,0,0.2,0c0.1,0,0.1,0.1,0.1,0.1c0,0.1,0,0.1-0.1,0.1C17.7,8.9,17.6,8.9,17.5,8.9L17.5,8.9z"/>
	<path class="st14" d="M19.9,10h-1.4V8.3h1.3v0.3h-1v0.4h0.9v0.3h-0.9v0.4h1L19.9,10z"/>
	<path class="st14" d="M21.3,10h0.4V8.3h-0.4v1.2l-0.8-1.2h-0.4V10h0.4V8.8L21.3,10z"/>
	<path class="st14" d="M23.7,8.6h0.5V8.3h-1.5v0.3h0.5V10h0.4V8.6z"/>
	<path class="st14" d="M26,10h-0.4V9.2h-0.8V10h-0.4V8.3h0.4v0.6h0.8V8.3H26L26,10L26,10z"/>
	<path class="st14" d="M26.2,10h1.4V9.7h-0.9l0.6-0.6l-0.6-0.5h0.8V8.3h-1.3v0.3l0.6,0.6l-0.7,0.7L26.2,10L26.2,10z"/>
</g>
</svg>
