<?xml version="1.0" encoding="utf-8"?>
<!-- Generator: Adobe Illustrator 23.1.0, SVG Export Plug-In . SVG Version: 6.00 Build 0)  -->
<svg version="1.1" id="Layer_1" xmlns="http://www.w3.org/2000/svg" xmlns:xlink="http://www.w3.org/1999/xlink" x="0px" y="0px"
	 viewBox="0 0 69.8 29.1" style="enable-background:new 0 0 69.8 29.1;" xml:space="preserve">
<style type="text/css">
	.st0{fill:#D6D5D5;}
</style>
<g>
	<path class="st0" d="M61.7,27.1L61.7,27.1C61.6,27.1,61.6,27.1,61.7,27.1C61.6,27.1,61.6,27.1,61.7,27.1z"/>
	<ellipse transform="matrix(0.9732 -0.2298 0.2298 0.9732 -3.9105 13.8283)" class="st0" cx="57.4" cy="23.7" rx="5.4" ry="5.4"/>
	<circle class="st0" cx="11" cy="23.6" r="5.4"/>
	<path class="st0" d="M69.5,22.9L69.5,22.9c-0.2,0-0.3-0.2-0.3-0.4L69,17.1c0-0.1-0.1-1.4-0.7-2.1L68,14.8l-0.2-0.2
		c-0.1-0.1-0.1-0.2-0.1-0.3l0-1.3c0-0.9-1.6-1.4-1.7-1.5l-9.7-3.4c-0.2-0.1-0.5-0.2-0.7-0.3l-7.9-4.8C44.5,1,40.8,0,37.2,0H3.6
		C3.5,0,3.4,0,3.4,0L3.1,0.2C3,0.3,2.9,0.4,2.9,0.5L2.3,4.1c-0.5,3.2-0.7,6.4-0.7,9.6v5c0,0.1,0,0.2-0.1,0.3c0,0-0.1,0.1-0.1,0.1
		c0,0-0.1,0-0.1,0c-0.1,0-0.2,0.1-0.3,0.2l-0.4,0.7c0,0,0,0.1,0,0.1l-0.4,1.5c-0.1,0.5-0.1,1,0.1,1.4l0.1,0.1l0.2,0.4
		c0.1,0.1,0.2,0.2,0.3,0.2l3.7,0.5c0-0.2,0-0.5,0-0.7c0-3.7,3-6.7,6.7-6.7c3.7,0,6.7,3,6.7,6.7c0,0.6-0.1,1.1-0.2,1.6h33.4
		c-0.1-0.5-0.2-1-0.2-1.5c0-3.7,3-6.7,6.7-6.7c3.7,0,6.7,3,6.7,6.7c0,0.4,0,0.8-0.1,1.1l2.7-0.3l2.7-0.3c0.1,0,0.3-0.1,0.3-0.2
		l0.1-0.3C69.9,23.2,69.8,23,69.5,22.9z M52.8,10.4c-0.3,0.1-0.5,0.2-0.8,0.2l-15.7-0.3c-0.4,0-0.7-0.1-1-0.3l-2.4-1.6
		c-0.4-0.2-0.6-0.6-0.7-1l-0.6-4.7C31.5,1.8,32.4,1,33.5,1l7,0.2c1.6,0.1,3.2,0.7,5.9,2.4l8.4,5.2C54.2,8.6,54,9.9,52.8,10.4z
		 M62.9,16.4l-3.4-0.8c-0.2,0-0.3-0.2-0.5-0.3l-0.6-0.8c-0.3-0.4-0.2-0.8,0.1-1.1c0.2-0.2,0.5-0.2,0.8-0.1l3.9,1.4
		c0.3,0.1,0.5,0.3,0.5,0.6l0.1,0.3C64,16,63.5,16.5,62.9,16.4z"/>
</g>
</svg>
